<?xml version="1.0" encoding="UTF-8"?>
<svg id="Camada_2" data-name="Camada 2" xmlns="http://www.w3.org/2000/svg" viewBox="0 0 522.06 402.3">
  <defs>
    <style>
      .cls-1 {
        opacity: .5;
      }

      .cls-2 {
        fill: #502c1e;
      }

      .cls-3 {
        fill: #fec6a0;
      }

      .cls-4 {
        opacity: .2;
      }

      .cls-5 {
        fill: #e71c29;
      }

      .cls-6 {
        fill: #ffa8a4;
      }

      .cls-7 {
        fill: #39b54a;
      }

      .cls-8 {
        fill: #d18561;
      }

      .cls-9 {
        fill: #03a1d2;
      }

      .cls-10 {
        fill: #fabc11;
      }

      .cls-11 {
        fill: #f38075;
      }

      .cls-12 {
        fill: #ffdbc2;
      }
    </style>
  </defs>
  <g id="Camada_1-2" data-name="Camada 1">
    <g>
      <g>
        <g id="Camada_2-2" data-name="Camada 2-2">
          <path class="cls-9" d="m94.52,284.45c.47-4.03-2.83-5.6-5.8-7.23-6.76-3.7-8.92-10.38-5.78-17.48,1.42-3.23,3.83-5.25,6.52-7.2,1.74-1.26,3.64-2.32,5.68-2.98.97-.31,1.95-.57,2.97-.74,1.54-.28,3.12-.35,4.68-.27,2.72.13,5.32.22,7.88,1.51,7.39,3.71,11.04,12.02,6.07,19.53-.73,1.11-1.32,2.38-1.67,3.66-.93,3.37.6,6,3.61,6.67,12.28-3.64,24.57-7.28,36.86-10.92,3.9-1.16,4.43-1.33,3.63-4.32-.02-.3-.06-.6-.15-.9l-9.65-32.55c-.24-1.17-.38-2.35-.4-3.54-.05-4.08,2.86-6.37,6.81-5.31,1.28.35,2.56.93,3.67,1.65,7.54,4.92,15.82,1.22,19.48-6.19,1.27-2.57,1.35-5.16,1.46-7.89.07-1.56,0-3.14-.3-4.68-.19-1.02-.44-2-.77-2.96-.68-2.04-1.74-3.93-3.02-5.67-1.97-2.68-4.01-5.07-7.25-6.48-7.12-3.09-13.78-.89-17.44,5.9-1.61,2.98-3.17,6.29-7.2,5.84-3.18-.36-4.45-2.77-5.33-5.32l-9.93-33.5c-.06-.22-.15-.43-.25-.63-.69-1.82-1.68-2.38-3.51-2.03-.29.01-.57.06-.85.14-11.84,3.51-23.67,7.01-35.51,10.52-1.53.87-2.72,2.15-2.97,4.31-.45,4.03,2.86,5.59,5.84,7.2,6.79,3.66,8.98,10.33,5.9,17.44-1.4,3.24-3.8,5.28-6.48,7.25-1.73,1.27-3.62,2.34-5.67,3.02-.97.32-1.95.57-2.96.77-1.54.29-3.11.36-4.68.3-2.72-.11-5.32-.19-7.89-1.46-7.41-3.66-11.11-11.95-6.19-19.48.73-1.11,1.31-2.39,1.65-3.67,1.06-3.95-1.22-6.87-5.31-6.81-.45,0-.9.03-1.35.07-11.35,3.37-22.71,6.73-34.06,10.09-3.9,1.16-4.43,1.33-3.63,4.32.02.3.06.6.15.9l9.65,32.55c.24,1.17.38,2.35.4,3.54.05,4.08-2.86,6.37-6.81,5.31-1.28-.35-2.56-.93-3.67-1.65-7.54-4.92-15.82-1.22-19.48,6.19-1.27,2.57-1.35,5.16-1.46,7.89-.07,1.56,0,3.14.3,4.68.19,1.02.44,2,.77,2.96.68,2.04,1.74,3.93,3.02,5.67,1.97,2.68,4.01,5.07,7.25,6.48,7.12,3.09,13.78.89,17.44-5.9,1.61-2.98,3.17-6.29,7.2-5.84,3.18.36,4.45,2.77,5.33,5.32l9.93,33.5c.06.22.15.43.25.63.69,1.82,1.68,2.38,3.51,2.03.29-.02.57-.06.85-.14,12.45-3.68,24.89-7.38,37.34-11.06.69-.76,1.17-1.72,1.32-3h0Z"/>
        </g>
        <g>
          <path class="cls-3" d="m172.78,271.49c6.6,5.81,5.75,13.85-1.92,18.12-1.68-1.57-3.33-3.18-5.07-4.68-5.89-5.09-4.1-6.93,1.1-11.12,1.63-1.32,3.61-2.36,5.89-2.33h0Z"/>
          <path class="cls-3" d="m124.3,202.69c1.51,2.26,5.37,1.85,5.92,5.2-2.63,9.08-2.83,9.18-11.72,6.05-2.34-.82-4.73-1.44-7.24-1.38,1.55-5.46,6.57-6.58,10.81-8.69.74-.39,1.49-.79,2.23-1.18h0Z"/>
          <path class="cls-3" d="m20.52,235.82c-.03-1.79-.32-3.62-.06-5.37.79-5.35,5.41-8.24,10.64-6.84.08,3.12.21,6.25.21,9.38,0,1.05.04,2.93-1.61,2.22-3.28-1.41-6.12.71-9.18.6h0Z"/>
          <path class="cls-3" d="m51.07,215.4c3.49-7.61,8.17-8.81,14.18-3.64-.27,1.97.26,4.58-2.99,4.43-3.73-.17-7.46-.52-11.19-.79h0Z"/>
          <path class="cls-3" d="m101.14,207.47c-2.1,1.18-4.5,2.21-6.59.78-5.2-3.57-10.69-2.62-16.26-1.7-.04-.93-.07-1.85-.11-2.77l.1-.17c1.3.14,2.16-.6,3.04-1.4,5.82-5.28,11.86-5.17,17.54.37.95.92,1.98,1.1,3.17,1.01.41,1.45.33,2.79-.88,3.87h-.01Z"/>
        </g>
        <path class="cls-8" d="m165.79,284.93c-5.89-5.09-4.1-6.92,1.1-11.12,1.63-1.32,3.61-2.37,5.89-2.33-9.17-2.07-14.79,3.75-20.04,9.55-3.22,3.55-5.85,7.62-9.86,10.43-3.5,2.45-6.74,5.09-11.09,6.37-3.62,1.06-6.05.45-8.38-2.11-1.51-.7-1.93-2.16-2.43-3.56-5.69-5.32-6-11.64-5-19.06.96-7.13.56-14.47,2.27-21.58.26-1.09-.1-2.4,1.5-2.69-.11-1.48-.58-3.02-.28-4.41,2.23-10.43,8.34-19.14,12.81-28.58-.32-2.74,3.61-6.59-2.06-7.94-2.63,9.09-2.82,9.18-11.72,6.05-2.34-.82-4.73-1.44-7.24-1.38-.63-.05-1.26-.1-1.9-.15-6.71,6.44-9.57,14.77-11.55,23.54-.57,2.52-.86,5.26-3.5,6.73,1.93,2.65-.67,4.18-1.51,6.16-.23-2.1-1.42-4.27.56-6.13-2-6.08.95-11.57,2.09-17.26,1.24-6.19,5.5-11.45,5.68-18-2.1,1.19-4.51,2.22-6.59.78-5.2-3.57-10.69-2.62-16.26-1.7-.66.31-1.32.61-1.98.92-4.25,4.32-6.2,9.45-6.2,15.56,0,3.41-.77,6.83-3,9.67.72,7.25-.57,14.31-1.92,21.38-1.58-7.31.31-14.5.68-21.73.28.1.57.19.85.29-.36-3.92-.34-7.76.49-11.69.64-3.01,2.26-6.05.93-9.3-.34-.13-.68-.25-1.02-.38-.62.17-1.24.34-1.86.5-.27,1.97.26,4.58-2.99,4.43-3.74-.17-7.46-.52-11.19-.79-3.78,1.14-5.44,2.73-5.31,7.59.11,3.93-2.9,8.91-2.76,12.61.22,5.95-2.28,11.3-1.84,17.04-.44,4.53-.87,9.07-1.31,13.6l-1.67.04c.85-5.02-1.66-9.62-.78-14.65-1.12-6.24-.9-12.56-1.12-18.85-.14-3.86-1.24-7.38-5.19-9.18.08,3.13.21,6.26.21,9.38,0,1.05.04,2.93-1.61,2.22-3.29-1.41-6.12.72-9.18.6-3.08,12.63-4.17,25.35-2.09,38.27,1.2,7.44,1.68,15.04,3.38,22.36,3.27,14.05,7.22,27.95,10.8,41.93.77,3.02,1.12,6.15,1.67,9.23v54.72h86.47v-54.72h.5v.02c9.1-8.72,16.81-18.5,23.53-29.21,3.62-5.77,10.08-8.97,15.2-13.4,3.64-3.15,7.27-6.25,10.56-9.8,1.99-2.14,1.52-3.65.33-5.59-1.69-1.56-3.33-3.17-5.07-4.68Z"/>
      </g>
      <g>
        <g id="Camada_2-2-2" data-name="Camada 2-2">
          <path class="cls-7" d="m207.25,194.85c26.24,13.39,52.49,26.77,78.75,40.16,3.08,1.57,3.51,1.78,4.77-.54.17-.19.32-.4.43-.64l13.11-25.72c.54-.86,1.14-1.67,1.83-2.42,2.36-2.55,5.5-2.25,7.31.72.59.97,1.03,2.07,1.3,3.17,1.77,7.45,9.04,10.02,15.64,7.59,2.28-.84,3.85-2.4,5.52-4.01.96-.92,1.83-1.94,2.56-3.06.48-.74.9-1.49,1.26-2.28.78-1.65,1.23-3.44,1.46-5.26.35-2.81.5-5.47-.68-8.24-2.58-6.07-7.98-8.62-14.21-6.58-2.74.9-5.64,2.03-7.86-.61-1.76-2.08-1.12-4.32-.17-6.4l13.49-26.47c.09-.17.16-.35.21-.53.64-1.53.36-2.45-.98-3.3-.18-.16-.39-.3-.61-.41-9.35-4.77-18.7-9.54-28.05-14.31-1.45-.36-2.94-.27-4.35.92-2.64,2.22-1.51,5.12-.61,7.86,2.04,6.23-.51,11.63-6.58,14.21-2.76,1.18-5.43,1.03-8.24.68-1.81-.23-3.6-.68-5.26-1.46-.79-.37-1.54-.79-2.28-1.26-1.12-.72-2.13-1.6-3.06-2.56-1.61-1.66-3.17-3.23-4.01-5.52-2.43-6.6.14-13.87,7.59-15.64,1.1-.26,2.2-.71,3.17-1.3,2.97-1.81,3.27-4.95.72-7.31-.28-.26-.58-.51-.88-.75-8.97-4.57-17.94-9.15-26.91-13.72-3.08-1.57-3.51-1.78-4.77.54-.17.19-.32.4-.43.64l-13.11,25.72c-.54.86-1.14,1.67-1.83,2.42-2.36,2.55-5.5,2.25-7.31-.72-.59-.97-1.03-2.07-1.3-3.17-1.77-7.45-9.04-10.02-15.64-7.59-2.28.84-3.85,2.4-5.52,4.01-.96.92-1.83,1.94-2.56,3.06-.48.74-.9,1.49-1.26,2.28-.78,1.65-1.23,3.44-1.46,5.26-.35,2.81-.5,5.47.68,8.24,2.58,6.07,7.98,8.62,14.21,6.58,2.74-.9,5.64-2.03,7.86.61,1.76,2.08,1.12,4.32.17,6.4l-13.49,26.47c-.09.17-.16.35-.21.53-.64,1.53-.36,2.45.98,3.3.18.16.39.3.61.41h0Z"/>
        </g>
        <path class="cls-6" d="m184.87,130.48c-6.6-5.81-5.75-13.85,1.92-18.12,1.68,1.57,3.33,3.18,5.07,4.68,5.89,5.09,4.1,6.93-1.1,11.12-1.63,1.32-3.61,2.36-5.89,2.33h0Z"/>
        <path class="cls-6" d="m233.35,199.28c-1.51-2.26-5.37-1.85-5.92-5.2,2.63-9.08,2.83-9.18,11.72-6.05,2.34.82,4.73,1.44,7.24,1.38-1.55,5.46-6.57,6.58-10.81,8.69-.74.39-1.49.79-2.23,1.18h0Z"/>
        <path class="cls-6" d="m337.13,166.15c.03,1.79.32,3.62.06,5.37-.79,5.35-5.41,8.24-10.64,6.84-.08-3.12-.21-6.25-.21-9.38,0-1.05-.04-2.93,1.61-2.22,3.28,1.41,6.12-.71,9.18-.6h0Z"/>
        <path class="cls-6" d="m306.58,186.57c-3.49,7.61-8.17,8.81-14.18,3.64.27-1.97-.26-4.58,2.99-4.43,3.73.17,7.46.52,11.19.79h0Z"/>
        <path class="cls-6" d="m256.51,194.5c2.1-1.18,4.5-2.21,6.59-.78,5.2,3.57,10.69,2.62,16.26,1.7.04.93.07,1.85.11,2.77l-.1.17c-1.3-.14-2.16.6-3.04,1.4-5.82,5.28-11.86,5.17-17.54-.37-.95-.92-1.98-1.1-3.17-1.01-.41-1.45-.33-2.79.88-3.87h.01Z"/>
        <path class="cls-11" d="m339.23,127.9c-1.2-7.44-1.68-15.04-3.38-22.36-3.27-14.05-7.22-27.95-10.8-41.93-.77-3.02-1.12-6.15-1.67-9.23V0h-86.47v54.38h-.5v-.02c-9.1,8.72-16.81,18.5-23.53,29.21-3.62,5.77-10.08,8.97-15.2,13.4-3.64,3.15-7.27,6.25-10.56,9.8-1.99,2.14-1.52,3.65-.33,5.59,1.69,1.56,3.33,3.17,5.07,4.68,5.89,5.09,4.1,6.92-1.1,11.12-1.63,1.32-3.61,2.37-5.89,2.33,9.17,2.07,14.79-3.75,20.04-9.55,3.22-3.55,5.85-7.62,9.86-10.43,3.5-2.45,6.74-5.09,11.09-6.37,3.62-1.06,6.05-.45,8.38,2.11,1.51.7,1.93,2.16,2.43,3.56,5.69,5.32,6,11.64,5,19.06-.96,7.13-.56,14.47-2.27,21.58-.26,1.09.1,2.4-1.5,2.69.11,1.48.58,3.02.28,4.41-2.23,10.43-8.34,19.14-12.81,28.58.32,2.74-3.61,6.59,2.06,7.94,2.63-9.09,2.82-9.18,11.72-6.05,2.34.82,4.73,1.44,7.24,1.38.63.05,1.26.1,1.9.15,6.71-6.44,9.57-14.77,11.55-23.54.57-2.52.86-5.26,3.5-6.73-1.93-2.65.67-4.18,1.51-6.16.23,2.1,1.42,4.27-.56,6.13,2,6.08-.95,11.57-2.09,17.26-1.24,6.19-5.5,11.45-5.68,18,2.1-1.19,4.51-2.22,6.59-.78,5.2,3.57,10.69,2.62,16.26,1.7.66-.31,1.32-.61,1.98-.92,4.25-4.32,6.2-9.45,6.2-15.56,0-3.41.77-6.83,3-9.67-.72-7.25.57-14.31,1.92-21.38,1.58,7.31-.31,14.5-.68,21.73-.28-.1-.57-.19-.85-.29.36,3.92.34,7.76-.49,11.69-.64,3.01-2.26,6.05-.93,9.3.34.13.68.25,1.02.38.62-.17,1.24-.34,1.86-.5.27-1.97-.26-4.58,2.99-4.43,3.74.17,7.46.52,11.19.79,3.78-1.14,5.44-2.73,5.31-7.59-.11-3.93,2.9-8.91,2.76-12.61-.22-5.95,2.28-11.3,1.84-17.04.44-4.53.87-9.07,1.31-13.6l1.67-.04c-.85,5.02,1.66,9.62.78,14.65,1.12,6.24.9,12.56,1.12,18.85.14,3.86,1.24,7.38,5.19,9.18-.08-3.13-.21-6.26-.21-9.38,0-1.05-.04-2.93,1.61-2.22,3.29,1.41,6.12-.72,9.18-.6,3.08-12.63,4.17-25.35,2.09-38.27Z"/>
      </g>
      <g>
        <g id="Camada_2-2-3" data-name="Camada 2-2">
          <path class="cls-5" d="m459.45,153.22l53.27,85.55c1.03,1.65.56,3.83-1.06,4.91-9.67,6.39-19.63,12.31-29.48,18.38-.65.41-1.49.57-2.27.71-3.66.65-6.26-1.3-6.72-4.96-.27-2.14.42-4.14.86-6.18,1.07-4.9-.49-8.83-4.5-11.77-5.16-3.78-13.42-3.7-19.51.14-6.16,3.88-9.79,11.19-8.63,17.5.9,4.9,3.77,7.98,8.64,9.18,1.64.4,3.35.71,4.86,1.42,4.28,2,5.03,6,1.82,9.48-.79.86-1.8,1.57-2.81,2.19-9.2,5.77-18.48,11.43-27.62,17.28-2.4,1.54-3.66,1.31-5.15-1.17-5.41-8.95-10.95-17.83-16.59-26.64-1.69-2.64-3.55-5.79-7.35-5.18-3.85.61-4.44,4.07-5.17,7.24-1.66,7.21-7.26,10.94-14.64,9.9-3.36-.47-5.85-2.17-8.35-4.15-1.62-1.28-3.09-2.75-4.23-4.47-.54-.82-1.03-1.65-1.46-2.55-.66-1.35-1.13-2.79-1.47-4.26-.59-2.55-1.18-4.97-.66-7.67,1.5-7.79,8.22-13.33,16.45-10.69,1.21.39,2.54.6,3.82.59,3.92-.02,6.04-2.88,4.95-6.65-.52-1.81-1.35-3.51-2.37-5.13-5.23-8.35-10.44-16.73-15.64-25.09-1.62-2.61-1.15-4.71,1.41-6.31,28.21-17.58,56.44-35.16,84.68-52.73h0c1.66-1.04,3.88-.52,4.91,1.15Z"/>
        </g>
        <g>
          <path class="cls-12" d="m366.63,270.65c2.28-.03,4.26,1.01,5.89,2.33,5.2,4.19,6.99,6.03,1.1,11.12-1.74,1.5-3.39,3.11-5.07,4.68-7.67-4.27-8.52-12.31-1.92-18.12h0Z"/>
          <path class="cls-12" d="m415.11,201.86c.74.39,1.49.79,2.23,1.18,4.24,2.11,9.26,3.23,10.81,8.69-2.51-.06-4.9.56-7.24,1.38-8.89,3.13-9.09,3.03-11.72-6.05.55-3.35,4.41-2.94,5.92-5.2h0Z"/>
          <path class="cls-12" d="m518.89,234.98c-3.06.11-5.9-2.01-9.18-.6-1.65.71-1.61-1.17-1.61-2.22,0-3.13.13-6.26.21-9.38,5.23-1.4,9.85,1.49,10.64,6.84.26,1.75-.03,3.58-.06,5.37h0Z"/>
          <path class="cls-12" d="m488.34,214.57c-3.73.27-7.46.62-11.19.79-3.25.15-2.72-2.46-2.99-4.43,6.01-5.17,10.69-3.97,14.18,3.64h0Z"/>
          <path class="cls-12" d="m438.26,206.63c-1.21-1.08-1.29-2.42-.88-3.87,1.19.09,2.22-.09,3.17-1.01,5.68-5.54,11.72-5.65,17.54-.37.88.8,1.74,1.54,3.04,1.4l.1.17c-.04.92-.07,1.84-.11,2.77-5.57-.92-11.06-1.87-16.26,1.7-2.09,1.43-4.49.4-6.59-.78h-.01Z"/>
        </g>
        <path class="cls-3" d="m518.9,234.97c-3.06.12-5.89-2.01-9.18-.6-1.65.71-1.61-1.17-1.61-2.22,0-3.12.13-6.25.21-9.38-3.95,1.8-5.05,5.32-5.19,9.18-.22,6.29,0,12.61-1.12,18.85.88,5.03-1.63,9.63-.78,14.65l-1.67-.04c-.44-4.53-.87-9.07-1.31-13.6.44-5.74-2.06-11.09-1.84-17.04.14-3.7-2.87-8.68-2.76-12.61.13-4.86-1.53-6.45-5.31-7.59-3.73.27-7.45.62-11.19.79-3.25.15-2.72-2.46-2.99-4.43-.62-.16-1.24-.33-1.86-.5-.34.13-.68.25-1.02.38-1.33,3.25.29,6.29.93,9.3.83,3.93.85,7.77.49,11.69.28-.1.57-.19.85-.29.37,7.23,2.26,14.42.68,21.73-1.35-7.07-2.64-14.13-1.92-21.38-2.23-2.84-3-6.26-3-9.67,0-6.11-1.95-11.24-6.2-15.56-.66-.31-1.32-.61-1.98-.92-5.57-.92-11.06-1.87-16.26,1.7-2.08,1.44-4.49.41-6.59-.78.18,6.55,4.44,11.81,5.68,18,1.14,5.69,4.09,11.18,2.09,17.26,1.98,1.86.79,4.03.56,6.13-.84-1.98-3.44-3.51-1.51-6.16-2.64-1.47-2.93-4.21-3.5-6.73-1.98-8.77-4.84-17.1-11.55-23.54-.64.05-1.27.1-1.9.15-2.51-.06-4.9.56-7.24,1.38-8.9,3.13-9.09,3.04-11.72-6.05-5.67,1.35-1.74,5.2-2.06,7.94,4.47,9.44,10.58,18.15,12.81,28.58.3,1.39-.17,2.93-.28,4.41,1.6.29,1.24,1.6,1.5,2.69,1.71,7.11,1.31,14.45,2.27,21.58,1,7.42.69,13.74-5,19.06-.5,1.4-.92,2.86-2.43,3.56-2.33,2.56-4.76,3.17-8.38,2.11-4.35-1.28-7.59-3.92-11.09-6.37-4.01-2.81-6.64-6.88-9.86-10.43-5.25-5.8-10.87-11.62-20.04-9.55,2.28-.04,4.26,1.01,5.89,2.33,5.2,4.2,6.99,6.03,1.1,11.12-1.74,1.51-3.38,3.12-5.07,4.68-1.19,1.94-1.66,3.45.33,5.59,3.29,3.55,6.92,6.65,10.56,9.8,5.12,4.43,11.58,7.63,15.2,13.4,6.68,10.64,14.33,20.36,23.36,29.04v54.69h87.17v-54.69c.53-3.03.89-6.1,1.64-9.07,3.58-13.98,7.53-27.88,10.8-41.93,1.7-7.32,2.18-14.92,3.38-22.36,2.08-12.92.99-25.64-2.09-38.27Z"/>
      </g>
      <g>
        <g id="Camada_2-2-4" data-name="Camada 2-2" class="cls-4">
          <path d="m50.74,47.98c-9.15,18.67-18.29,37.35-27.42,56.04-1.07,2.19-1.21,2.5.43,3.36.14.12.29.22.46.3l18.3,8.95c.61.37,1.19.78,1.73,1.26,1.82,1.63,1.65,3.85-.42,5.16-.67.42-1.45.75-2.22.95-5.24,1.34-6.96,6.5-5.17,11.12.62,1.6,1.74,2.69,2.89,3.85.66.66,1.39,1.27,2.19,1.77.53.33,1.06.62,1.62.86,1.18.53,2.45.83,3.73.97,1.98.22,3.87.29,5.8-.57,4.26-1.89,5.99-5.73,4.48-10.1-.67-1.92-1.5-3.95.34-5.55,1.45-1.26,3.03-.84,4.51-.19l18.83,9.21c.12.06.25.11.38.14,1.09.44,1.73.22,2.32-.73.11-.13.21-.28.28-.44,3.26-6.65,6.51-13.31,9.77-19.96.24-1.03.16-2.08-.7-3.06-1.6-1.83-3.63-1-5.55-.34-4.37,1.51-8.21-.23-10.1-4.48-.86-1.94-.79-3.82-.57-5.8.14-1.28.44-2.55.97-3.73.25-.56.54-1.09.86-1.62.5-.8,1.1-1.52,1.77-2.19,1.16-1.16,2.25-2.27,3.85-2.89,4.63-1.79,9.79-.06,11.12,5.17.2.77.53,1.55.95,2.22,1.31,2.07,3.53,2.25,5.16.42.18-.2.35-.41.52-.63,3.12-6.38,6.25-12.77,9.37-19.15,1.07-2.19,1.21-2.5-.43-3.36-.14-.12-.29-.22-.46-.3l-18.3-8.95c-.61-.37-1.19-.78-1.73-1.26-1.82-1.63-1.65-3.85.42-5.16.67-.42,1.45-.75,2.22-.95,5.24-1.34,6.96-6.5,5.17-11.12-.62-1.6-1.74-2.69-2.89-3.85-.66-.66-1.39-1.27-2.19-1.77-.53-.33-1.06-.62-1.62-.86-1.18-.53-2.45-.83-3.73-.97-1.98-.22-3.87-.29-5.8.57-4.26,1.89-5.99,5.73-4.48,10.1.67,1.92,1.5,3.95-.34,5.55-1.45,1.26-3.03.84-4.51.19l-18.83-9.21c-.12-.06-.25-.11-.38-.14-1.09-.44-1.73-.22-2.32.73-.11.13-.21.28-.28.44h0Z"/>
        </g>
        <g id="Camada_2-2-5" data-name="Camada 2-2" class="cls-4">
          <path d="m206.13,330.29l28.61-58.37c.55-1.13,1.91-1.62,3.05-1.1,6.8,3.11,13.44,6.53,20.13,9.85.45.22.82.62,1.16,1,1.61,1.78,1.43,3.87-.42,5.37-1.08.88-2.41,1.19-3.67,1.64-3.05,1.09-4.66,3.28-4.9,6.48-.3,4.12,2.56,8.61,6.74,10.63,4.22,2.04,9.47,1.53,12.52-1.26,2.37-2.17,3.08-4.79,2.07-7.86-.34-1.03-.75-2.07-.88-3.14-.37-3.02,1.57-4.8,4.56-4.24.74.14,1.47.45,2.16.79,6.3,3.06,12.56,6.2,18.89,9.2,1.66.79,1.96,1.56,1.12,3.22-3.05,6.02-6.01,12.08-8.91,18.17-.87,1.82-1.95,3.92-.32,5.79,1.65,1.89,3.74,1.04,5.73.35,4.51-1.56,8.47.24,10.41,4.63.89,2,.81,3.94.58,5.99-.15,1.32-.45,2.63-1,3.84-.26.58-.55,1.13-.9,1.67-.51.82-1.14,1.57-1.83,2.26-1.19,1.19-2.32,2.34-3.97,2.98-4.77,1.84-10.1.05-11.47-5.35-.2-.8-.54-1.6-.98-2.29-1.35-2.14-3.64-2.32-5.33-.44-.81.91-1.46,1.94-2,3.05-2.78,5.72-5.59,11.42-8.39,17.13-.87,1.78-2.18,2.24-3.94,1.39-19.25-9.43-38.52-18.87-57.77-28.31h0c-1.14-.56-1.61-1.94-1.05-3.08Z"/>
        </g>
        <path class="cls-7" d="m387.34,116.49c-.76,3.1-2.98,5.01-6.58,4.94-3.88-.07-5.12-3.12-5.32-6.14-.19-2.94,1.95-4.77,4.92-5.11,2.84-.33,6.87,3.16,6.98,6.31h0Z"/>
        <path class="cls-5" d="m398.34,140.77c-.46-3.08,1.43-3.69,4.18-3.63,3.29.07,4.78,1.67,4.85,4.87.08,3.66-3.21,3.78-5.18,3.99-2.99.31-4.11-2.13-3.85-5.23Z"/>
        <path class="cls-5" d="m373.34,142.26c-.05,1.14-.55,1.9-1.76,1.97-1.12.06-2.01-.39-2.04-1.62-.02-1.32.73-2.21,2.1-2.28,1.28-.07,1.67.82,1.7,1.93h0Z"/>
        <path class="cls-9" d="m175.21,171.53c-1.32-4.31.7-6.39,4.42-7.35,3.46-.9,8.77,1.9,9.48,4.96.78,3.35-2.41,7.83-6.03,8.5-2.22.41-7.24-3.6-7.86-6.09h0Z"/>
        <path class="cls-7" d="m147.93,88.69c-1.49-4.76-4.94-5.13-9.05-4.05-3.36.9-5.04,3.21-4.69,6.53.44,4.09,3.03,6.9,7.11,6.95,3.65.05,6.55-1.87,6.65-6.2.79-1.08.33-2.16-.02-3.24h0Z"/>
        <path class="cls-9" d="m37.72,137.26c2.5-.83,4.74-.12,5.24,1.73.55,2.06-1.66,3.49-3.51,3.94-2.03.5-3.71-.38-4.25-2.79-.57-2.58,1.44-2.45,2.52-2.88Z"/>
        <path class="cls-7" d="m108.57,67.72c-1.56.49-2.81,1.36-2.16,3.25.59,1.7,1.94,2.11,3.62,1.65,1.82-.49,1.73-1.72,1.26-3.17-.1-1.77-1.15-2.24-2.72-1.74h0Z"/>
        <path class="cls-7" d="m69.68,121.19c.37,1.53-.2,2.64-1.6,3.17-1.49.56-2.58-.08-3.13-1.52-.61-1.58.26-2.56,1.58-3.11,1.47-.61,2.53.04,3.14,1.45h0Z"/>
        <path class="cls-5" d="m304.44,303.26c2.13,4.61,1.27,8.08-2.41,9.69-3.73,1.63-8.89-.37-10.48-4.07-1.65-3.86.1-7.66,4.37-9.55,4.08-1.8,6.34-.76,8.5,3.93h.01Z"/>
        <path class="cls-9" d="m210.91,285.69c-2.97.91-4.71-.72-5.8-2.76-1.32-2.47-.43-5.23,1.86-6.29,2.1-.98,4.95-.71,6.15,2.24,1.2,2.93-.32,4.98-2.2,6.81Z"/>
        <path class="cls-7" d="m277.48,291.85c1.18,2.14,1.19,3.9-1.35,4.9-2.72,1.07-4.85.46-6.24-2.22-1.27-2.43-.03-3.82,2.1-4.63,2.34-.89,4.58-1.1,5.49,1.94Z"/>
        <path class="cls-5" d="m265.6,365.53c-1.48-2.83-1.07-5.73,1.68-8.06,2.96-2.51,5.9-1.04,8.05,1.1,2.08,2.08,1.69,4.87-.32,7.09-1.91,2.12-7.25,2.17-9.41-.13h0Z"/>
        <path class="cls-9" d="m215.95,354.76c2.38,2.01,1.36,3.71-.74,5.49-2.52,2.12-4.69,1.9-6.86-.45-2.48-2.69-.09-4.96,1.25-6.42,2.04-2.21,4.49-1.12,6.35,1.38Z"/>
        <path class="cls-7" d="m233.73,337.12c-.72-.89-.84-1.79.02-2.64.8-.78,1.77-1.03,2.6-.13.89.98.91,2.14-.07,3.1-.91.9-1.8.49-2.55-.33h0Z"/>
      </g>
      <g class="cls-1">
        <path class="cls-10" d="m323.72,279.54c-.11.28-.23.56-.34.84-.75,1.83-1.93,3.25-3.81,4.03-.33.14-.47.14-.65-.22-.71-1.48-.64-2.99-.3-4.53.14-.62.35-1.22.48-1.88-.32.3-.63.6-.95.9-1.1,1.05-2.38,1.7-3.91,1.84-.02,0-.04,0-.06,0-1.13.15-1.4-.15-1.22-1.25.22-1.3.78-2.44,1.52-3.49.42-.59.91-1.13,1.43-1.76-.74.28-1.4.59-2.09.78-1.51.43-3,.45-4.49-.16-.45-.18-.47-.4-.3-.79.61-1.4,1.6-2.45,2.89-3.25.61-.38,1.25-.7,2.07-1.05-1.07-.03-1.98.04-2.88-.13-1.3-.25-2.37-.91-3.33-1.77-.3-.27-.26-.56.03-.86.95-.96,2.1-1.53,3.41-1.78.89-.17,1.8-.27,2.78-.41-.81-.34-1.55-.64-2.25-1.06-1.33-.79-2.18-1.94-2.8-3.31-.09-.2-.05-.3.14-.4,1.01-.51,2.07-.68,3.19-.58,1.15.1,2.25.39,3.36.73-.57-.67-1.23-1.26-1.68-2.01-.68-1.13-1.15-2.33-1.12-3.68,0-.32.1-.41.42-.42,1.78-.07,3.29.6,4.69,1.64.52.38.93.87,1.55,1.4-.31-.8-.56-1.44-.8-2.09-.55-1.49-.45-2.97.05-4.45.21-.63.32-.68.93-.44,1.25.49,2.15,1.39,2.92,2.46.5.7.85,1.49,1.36,2.24,0-.6-.01-1.2,0-1.8.04-1.67.79-3.03,1.86-4.25.2-.22.42-.31.74-.01,1.37,1.28,1.89,2.9,2.06,4.7.05.49.07.99.24,1.51.1-.24.21-.47.31-.71.72-1.81,1.84-3.27,3.64-4.12.59-.28.77-.23,1.01.38.47,1.19.51,2.41.29,3.66-.14.82-.42,1.6-.66,2.49.65-.42,1.03-1,1.58-1.4,1.29-.94,2.69-1.4,4.28-1.32.34.02.28.23.28.43.04,1.41-.38,2.67-1.13,3.85-.51.79-1.12,1.49-1.75,2.19.69-.25,1.37-.53,2.07-.73,1.53-.44,3.05-.37,4.54.21.28.11.38.23.27.59-.44,1.36-1.4,2.27-2.49,3.09-.7.52-1.52.84-2.27,1.32.99-.03,1.96.07,2.92.27,1.27.26,2.31.91,3.23,1.79.21.2.16.33,0,.52-.94,1.07-2.17,1.63-3.5,1.99-.92.25-1.87.31-2.89.39.66.3,1.27.56,1.85.85,1.41.71,2.45,1.79,3.12,3.24.18.39.16.6-.29.81-1.43.66-2.89.64-4.37.32-.66-.14-1.31-.35-1.96-.58.56.58,1.12,1.14,1.58,1.79.86,1.19,1.24,2.53,1.21,3.99,0,.3-.16.3-.38.33-1.71.28-3.05-.56-4.37-1.43-.62-.41-1.15-.93-1.83-1.49.29.68.51,1.25.72,1.83.55,1.58.51,3.13-.04,4.69-.17.5-.44.56-.89.36-2.02-.88-3.13-2.56-3.99-4.48-.04-.08-.08-.17-.19-.39-.01.89-.03,1.64-.13,2.38-.19,1.55-.87,2.83-1.95,3.92-.28.28-.48.04-.66-.13-.95-.9-1.47-2.05-1.81-3.29-.26-.93-.28-1.89-.47-2.86Zm11.23-12.31c.17-4.73-3.77-8.63-8.5-8.73-5.01-.11-8.82,4.05-8.87,8.58-.05,4.69,3.85,8.83,8.7,8.82,4.52,0,8.81-3.77,8.67-8.67Z"/>
        <path class="cls-2" d="m334.95,267.23c.14,4.9-4.14,8.66-8.67,8.67-4.85,0-8.76-4.13-8.7-8.82.05-4.53,3.86-8.69,8.87-8.58,4.73.1,8.67,4,8.5,8.73Z"/>
      </g>
      <g class="cls-1">
        <path class="cls-10" d="m138.65,149.29c-.11.28-.23.56-.34.84-.75,1.83-1.93,3.25-3.81,4.03-.33.14-.47.14-.65-.22-.71-1.48-.64-2.99-.3-4.53.14-.62.35-1.22.48-1.88-.32.3-.63.6-.95.9-1.1,1.05-2.38,1.7-3.91,1.84-.02,0-.04,0-.06,0-1.13.15-1.4-.15-1.22-1.25.22-1.3.78-2.44,1.52-3.49.42-.59.91-1.13,1.43-1.76-.74.28-1.4.59-2.09.78-1.51.43-3,.45-4.49-.16-.45-.18-.47-.4-.3-.79.61-1.4,1.6-2.45,2.89-3.25.61-.38,1.25-.7,2.07-1.05-1.07-.03-1.98.04-2.88-.13-1.3-.25-2.37-.91-3.33-1.77-.3-.27-.26-.56.03-.86.95-.96,2.1-1.53,3.41-1.78.89-.17,1.8-.27,2.78-.41-.81-.34-1.55-.64-2.25-1.06-1.33-.79-2.18-1.94-2.8-3.31-.09-.2-.05-.3.14-.4,1.01-.51,2.07-.68,3.19-.58,1.15.1,2.25.39,3.36.73-.57-.67-1.23-1.26-1.68-2.01-.68-1.13-1.15-2.33-1.12-3.68,0-.32.1-.41.42-.42,1.78-.07,3.29.6,4.69,1.64.52.38.93.87,1.55,1.4-.31-.8-.56-1.44-.8-2.09-.55-1.49-.45-2.97.05-4.45.21-.63.32-.68.93-.44,1.25.49,2.15,1.39,2.92,2.46.5.7.85,1.49,1.36,2.24,0-.6-.01-1.2,0-1.8.04-1.67.79-3.03,1.86-4.25.2-.22.42-.31.74-.01,1.37,1.28,1.89,2.9,2.06,4.7.05.49.07.99.24,1.51.1-.24.21-.47.31-.71.72-1.81,1.84-3.27,3.64-4.12.59-.28.77-.23,1.01.38.47,1.19.51,2.41.29,3.66-.14.82-.42,1.6-.66,2.49.65-.42,1.03-1,1.58-1.4,1.29-.94,2.69-1.4,4.28-1.32.34.02.28.23.28.43.04,1.41-.38,2.67-1.13,3.85-.51.79-1.12,1.49-1.75,2.19.69-.25,1.37-.53,2.07-.73,1.53-.44,3.05-.37,4.54.21.28.11.38.23.27.59-.44,1.36-1.4,2.27-2.49,3.09-.7.52-1.52.84-2.27,1.32.99-.03,1.96.07,2.92.27,1.27.26,2.31.91,3.23,1.79.21.2.16.33,0,.52-.94,1.07-2.17,1.63-3.5,1.99-.92.25-1.87.31-2.89.39.66.3,1.27.56,1.85.85,1.41.71,2.45,1.79,3.12,3.24.18.39.16.6-.29.81-1.43.66-2.89.64-4.37.32-.66-.14-1.31-.35-1.96-.58.56.58,1.12,1.14,1.58,1.79.86,1.19,1.24,2.53,1.21,3.99,0,.3-.16.3-.38.33-1.71.28-3.05-.56-4.37-1.43-.62-.41-1.15-.93-1.83-1.49.29.68.51,1.25.72,1.83.55,1.58.51,3.13-.04,4.69-.17.5-.44.56-.89.36-2.02-.88-3.13-2.56-3.99-4.48-.04-.08-.08-.17-.19-.39-.01.89-.03,1.64-.13,2.38-.19,1.55-.87,2.83-1.95,3.92-.28.28-.48.04-.66-.13-.95-.9-1.47-2.05-1.81-3.29-.26-.93-.28-1.89-.47-2.86Zm11.23-12.31c.17-4.73-3.77-8.63-8.5-8.73-5.01-.11-8.82,4.05-8.87,8.58-.05,4.69,3.85,8.83,8.7,8.82,4.52,0,8.81-3.77,8.67-8.67Z"/>
        <path class="cls-2" d="m149.88,136.98c.14,4.9-4.14,8.66-8.67,8.67-4.85,0-8.76-4.13-8.7-8.82.05-4.53,3.86-8.69,8.87-8.58,4.73.1,8.67,4,8.5,8.73Z"/>
      </g>
      <g class="cls-1">
        <path class="cls-10" d="m415.38,103.5c-.11.28-.23.56-.34.84-.75,1.83-1.93,3.25-3.81,4.03-.33.14-.47.14-.65-.22-.71-1.48-.64-2.99-.3-4.53.14-.62.35-1.22.48-1.88-.32.3-.63.6-.95.9-1.1,1.05-2.38,1.7-3.91,1.84-.02,0-.04,0-.06,0-1.13.15-1.4-.15-1.22-1.25.22-1.3.78-2.44,1.52-3.49.42-.59.91-1.13,1.43-1.76-.74.28-1.4.59-2.09.78-1.51.43-3,.45-4.49-.16-.45-.18-.47-.4-.3-.79.61-1.4,1.6-2.45,2.89-3.25.61-.38,1.25-.7,2.07-1.05-1.07-.03-1.98.04-2.88-.13-1.3-.25-2.37-.91-3.33-1.77-.3-.27-.26-.56.03-.86.95-.96,2.1-1.53,3.41-1.78.89-.17,1.8-.27,2.78-.41-.81-.34-1.55-.64-2.25-1.06-1.33-.79-2.18-1.94-2.8-3.31-.09-.2-.05-.3.14-.4,1.01-.51,2.07-.68,3.19-.58,1.15.1,2.25.39,3.36.73-.57-.67-1.23-1.26-1.68-2.01-.68-1.13-1.15-2.33-1.12-3.68,0-.32.1-.41.42-.42,1.78-.07,3.29.6,4.69,1.64.52.38.93.87,1.55,1.4-.31-.8-.56-1.44-.8-2.09-.55-1.49-.45-2.97.05-4.45.21-.63.32-.68.93-.44,1.25.49,2.15,1.39,2.92,2.46.5.7.85,1.49,1.36,2.24,0-.6-.01-1.2,0-1.8.04-1.67.79-3.03,1.86-4.25.2-.22.42-.31.74-.01,1.37,1.28,1.89,2.9,2.06,4.7.05.49.07.99.24,1.51.1-.24.21-.47.31-.71.72-1.81,1.84-3.27,3.64-4.12.59-.28.77-.23,1.01.38.47,1.19.51,2.41.29,3.66-.14.82-.42,1.6-.66,2.49.65-.42,1.03-1,1.58-1.4,1.29-.94,2.69-1.4,4.28-1.32.34.02.28.23.28.43.04,1.41-.38,2.67-1.13,3.85-.51.79-1.12,1.49-1.75,2.19.69-.25,1.37-.53,2.07-.73,1.53-.44,3.05-.37,4.54.21.28.11.38.23.27.59-.44,1.36-1.4,2.27-2.49,3.09-.7.52-1.52.84-2.27,1.32.99-.03,1.96.07,2.92.27,1.27.26,2.31.91,3.23,1.79.21.2.16.33,0,.52-.94,1.07-2.17,1.63-3.5,1.99-.92.25-1.87.31-2.89.39.66.3,1.27.56,1.85.85,1.41.71,2.45,1.79,3.12,3.24.18.39.16.6-.29.81-1.43.66-2.89.64-4.37.32-.66-.14-1.31-.35-1.96-.58.56.58,1.12,1.14,1.58,1.79.86,1.19,1.24,2.53,1.21,3.99,0,.3-.16.3-.38.33-1.71.28-3.05-.56-4.37-1.43-.62-.41-1.15-.93-1.83-1.49.29.68.51,1.25.72,1.83.55,1.58.51,3.13-.04,4.69-.17.5-.44.56-.89.36-2.02-.88-3.13-2.56-3.99-4.48-.04-.08-.08-.17-.19-.39-.01.89-.03,1.64-.13,2.38-.19,1.55-.87,2.83-1.95,3.92-.28.28-.48.04-.66-.13-.95-.9-1.47-2.05-1.81-3.29-.26-.93-.28-1.89-.47-2.86Zm11.23-12.31c.17-4.73-3.77-8.63-8.5-8.73-5.01-.11-8.82,4.05-8.87,8.58-.05,4.69,3.85,8.83,8.7,8.82,4.52,0,8.81-3.77,8.67-8.67Z"/>
        <path class="cls-2" d="m426.61,91.19c.14,4.9-4.14,8.66-8.67,8.67-4.85,0-8.76-4.13-8.7-8.82.05-4.53,3.86-8.69,8.87-8.58,4.73.1,8.67,4,8.5,8.73Z"/>
      </g>
    </g>
  </g>
</svg>