<?xml version="1.0" encoding="utf-8"?>
<!-- Generator: Adobe Illustrator 27.2.0, SVG Export Plug-In . SVG Version: 6.00 Build 0)  -->
<svg version="1.1" id="Camada_2_00000030487151996260956250000010597857232328203443_"
	 xmlns="http://www.w3.org/2000/svg" xmlns:xlink="http://www.w3.org/1999/xlink" x="0px" y="0px" viewBox="0 0 71.3 71.3"
	 style="enable-background:new 0 0 71.3 71.3;" xml:space="preserve">
<style type="text/css">
	.st0{fill:#FFFFFF;}
	.st1{fill:none;stroke:#CB6E33;stroke-width:0.28;stroke-miterlimit:22.93;}
	.st2{clip-path:url(#SVGID_00000161612893045095958460000004235219734475891117_);}
	.st3{fill-rule:evenodd;clip-rule:evenodd;fill:#FFED00;}
	.st4{fill-rule:evenodd;clip-rule:evenodd;fill:#69B42E;}
	.st5{fill-rule:evenodd;clip-rule:evenodd;fill:#E30613;}
	.st6{fill-rule:evenodd;clip-rule:evenodd;fill:#0079BB;}
	.st7{fill:none;stroke:#0079BB;stroke-width:0.48;stroke-linejoin:round;}
	
		.st8{fill-rule:evenodd;clip-rule:evenodd;fill:url(#SVGID_00000047033349245346979220000005755094868411864973_);stroke:#84746C;stroke-width:0.11;stroke-miterlimit:22.93;}
	.st9{fill-rule:evenodd;clip-rule:evenodd;fill:#FFFFFF;stroke:#1D1D1B;stroke-width:0.28;stroke-miterlimit:22.93;}
	.st10{fill-rule:evenodd;clip-rule:evenodd;fill:url(#SVGID_00000049924594315022897830000011381036311738888582_);}
	.st11{fill-rule:evenodd;clip-rule:evenodd;fill:#CB6E33;}
	.st12{fill-rule:evenodd;clip-rule:evenodd;fill:#1D1510;stroke:#1D1D1B;stroke-width:0.11;stroke-miterlimit:22.93;}
	.st13{fill-rule:evenodd;clip-rule:evenodd;fill:#F08482;}
	.st14{fill-rule:evenodd;clip-rule:evenodd;fill:#F8AC4B;}
	.st15{fill-rule:evenodd;clip-rule:evenodd;fill:#2C1A12;stroke:#1D1D1B;stroke-width:0.11;stroke-miterlimit:22.93;}
	
		.st16{fill-rule:evenodd;clip-rule:evenodd;fill:#FFFFFF;stroke:#EF7D00;stroke-width:0.17;stroke-linecap:round;stroke-linejoin:round;}
	.st17{fill:none;stroke:#EF7D00;stroke-width:0.17;stroke-linecap:round;stroke-linejoin:round;}
	
		.st18{fill-rule:evenodd;clip-rule:evenodd;fill:#FFFFFF;stroke:#63C3D1;stroke-width:0.17;stroke-linecap:round;stroke-linejoin:round;}
	.st19{fill:none;stroke:#63C3D1;stroke-width:0.17;stroke-linecap:round;stroke-linejoin:round;}
	.st20{fill-rule:evenodd;clip-rule:evenodd;fill:#E30613;stroke:#E30613;stroke-width:0.57;stroke-miterlimit:22.93;}
	.st21{fill-rule:evenodd;clip-rule:evenodd;fill:url(#SVGID_00000093883315639941933860000014053198978506551218_);}
	.st22{fill-rule:evenodd;clip-rule:evenodd;fill:url(#SVGID_00000137838279565660963270000005396455940673198779_);}
	.st23{fill-rule:evenodd;clip-rule:evenodd;fill:url(#SVGID_00000034799734850426209750000011977734720327154358_);}
	.st24{fill-rule:evenodd;clip-rule:evenodd;fill:#6DB859;}
	.st25{fill-rule:evenodd;clip-rule:evenodd;fill:url(#SVGID_00000087400328131967727300000005342546039329683880_);}
	.st26{fill-rule:evenodd;clip-rule:evenodd;fill:#773520;}
	.st27{fill-rule:evenodd;clip-rule:evenodd;fill:url(#SVGID_00000130608993149187928580000005316876401214166693_);}
	.st28{fill-rule:evenodd;clip-rule:evenodd;fill:url(#SVGID_00000013878902886218240950000005497602974597489812_);}
	.st29{fill-rule:evenodd;clip-rule:evenodd;fill:#EF7D00;}
	.st30{fill-rule:evenodd;clip-rule:evenodd;fill:#009FE3;}
	.st31{fill-rule:evenodd;clip-rule:evenodd;fill:#485085;}
	.st32{fill-rule:evenodd;clip-rule:evenodd;fill:#5CBA9D;}
	.st33{clip-path:url(#SVGID_00000167384749433848993410000017069801089611368352_);}
	.st34{clip-path:url(#SVGID_00000108301723090935162770000015703805624837834148_);}
	.st35{fill-rule:evenodd;clip-rule:evenodd;fill:#CA5098;}
	.st36{fill-rule:evenodd;clip-rule:evenodd;fill:#AFCA0B;}
	.st37{fill-rule:evenodd;clip-rule:evenodd;fill:#FFCC00;}
	.st38{fill-rule:evenodd;clip-rule:evenodd;fill:url(#SVGID_00000145743472214349294120000001856242700049131418_);}
	.st39{fill-rule:evenodd;clip-rule:evenodd;fill:#FFFFFF;}
	.st40{fill-rule:evenodd;clip-rule:evenodd;fill:#009640;}
	
		.st41{fill-rule:evenodd;clip-rule:evenodd;fill:url(#SVGID_00000016763217087278453620000011960596163694497696_);stroke:#CB6E33;stroke-width:0.19;stroke-miterlimit:22.93;}
	
		.st42{fill-rule:evenodd;clip-rule:evenodd;fill:url(#SVGID_00000136379764313916002780000012208207394591359411_);stroke:#CB6E33;stroke-width:0.19;stroke-miterlimit:22.93;}
	.st43{fill:none;stroke:#CB6E33;stroke-width:0.19;stroke-miterlimit:22.93;}
	.st44{clip-path:url(#SVGID_00000065060187988773369600000007428222200001563047_);}
	.st45{fill-rule:evenodd;clip-rule:evenodd;fill:#A1DAF8;}
	.st46{clip-path:url(#SVGID_00000034091265737020372840000003407806584848131990_);}
	.st47{fill:none;stroke:#485085;stroke-width:0.11;stroke-miterlimit:22.93;}
	.st48{clip-path:url(#SVGID_00000075868872495876013640000013504485229243271571_);}
	.st49{clip-path:url(#SVGID_00000156588639285389245820000001401297139837482645_);}
	.st50{fill-rule:evenodd;clip-rule:evenodd;fill:#9D9D9C;stroke:#9D9D9C;stroke-width:0.11;stroke-miterlimit:22.93;}
	.st51{clip-path:url(#SVGID_00000163767713677066039530000015343385656243194800_);}
	.st52{fill:none;stroke:#9D9D9C;stroke-width:0.11;stroke-miterlimit:22.93;}
	.st53{clip-path:url(#SVGID_00000149367528732695668960000002247710973494175918_);}
	.st54{clip-path:url(#SVGID_00000023244737027433686550000009980632113000961465_);}
	.st55{fill-rule:evenodd;clip-rule:evenodd;fill:#B2B2B2;}
	.st56{clip-path:url(#SVGID_00000130628007015765525340000005999155601387772848_);}
	.st57{clip-path:url(#SVGID_00000055694604107142902690000012100350127768206470_);}
	.st58{clip-path:url(#SVGID_00000109725378830434774170000000664702272251518852_);}
	.st59{clip-path:url(#SVGID_00000065072307758537592950000015663267742083682723_);}
	.st60{clip-path:url(#SVGID_00000047739457160453794180000002750928577496656830_);}
	.st61{fill-rule:evenodd;clip-rule:evenodd;fill:url(#SVGID_00000160157435525925710080000018032083432387992224_);}
	.st62{clip-path:url(#SVGID_00000163782739414191838990000002203343454479925928_);}
	.st63{clip-path:url(#SVGID_00000183951153589911231030000013532907655724795305_);}
	.st64{fill-rule:evenodd;clip-rule:evenodd;fill:#C4A1A0;}
	.st65{fill-rule:evenodd;clip-rule:evenodd;fill:#AB7E80;}
	.st66{fill-rule:evenodd;clip-rule:evenodd;fill:url(#SVGID_00000179630987751051924860000003864479529111290247_);}
	.st67{opacity:0.36;fill-rule:evenodd;clip-rule:evenodd;fill:#009640;enable-background:new    ;}
	.st68{fill-rule:evenodd;clip-rule:evenodd;fill:#1D1D1B;}
	.st69{fill-rule:evenodd;clip-rule:evenodd;fill:#FFFFFF;stroke:#FFFFFF;stroke-width:0.11;stroke-miterlimit:22.93;}
	.st70{fill:none;stroke:#FFFFFF;stroke-width:0.14;stroke-miterlimit:22.93;}
	.st71{fill-rule:evenodd;clip-rule:evenodd;fill:#FFFFFF;stroke:#1D1D1B;stroke-width:0.45;stroke-miterlimit:22.93;}
	.st72{fill-rule:evenodd;clip-rule:evenodd;fill:#1D1D1B;stroke:#1D1D1B;stroke-width:0.11;stroke-miterlimit:22.93;}
	.st73{fill-rule:evenodd;clip-rule:evenodd;fill:#DA368B;}
	.st74{fill-rule:evenodd;clip-rule:evenodd;fill:#DA368B;stroke:#1D1D1B;stroke-width:0.11;stroke-miterlimit:22.93;}
	.st75{fill-rule:evenodd;clip-rule:evenodd;fill:url(#SVGID_00000114073862576306768360000008195447571809414572_);}
	.st76{clip-path:url(#SVGID_00000024689612955375162040000009318451535113496476_);}
	.st77{clip-path:url(#SVGID_00000052801801748400292250000014776226978245115551_);}
	.st78{opacity:0.81;fill-rule:evenodd;clip-rule:evenodd;fill:#009640;enable-background:new    ;}
	.st79{opacity:0.28;fill-rule:evenodd;clip-rule:evenodd;fill:#009640;enable-background:new    ;}
	.st80{fill-rule:evenodd;clip-rule:evenodd;fill:#C81517;}
</style>
<g id="Cartão_visita">
	<g id="Frente">
		<g>
			<circle class="st0" cx="35.7" cy="35.7" r="29.6"/>
			<path class="st1" d="M43.7,53.5c-1.3,2.3-1.8,5.2-1.5,7.7"/>
			<g>
				<defs>
					<path id="SVGID_1_" d="M35.7,0.2c19.6,0,35.4,15.9,35.4,35.4S55.2,71.1,35.7,71.1S0.2,55.2,0.2,35.7S16.1,0.2,35.7,0.2
						L35.7,0.2z M35.6,10C21.4,10,9.8,21.5,9.8,35.8s11.6,25.8,25.9,25.8S61.5,50,61.5,35.8S49.9,10,35.6,10z"/>
				</defs>
				<clipPath id="SVGID_00000063623398992986337430000012174355981330326954_">
					<use xlink:href="#SVGID_1_"  style="overflow:visible;"/>
				</clipPath>
				<g style="clip-path:url(#SVGID_00000063623398992986337430000012174355981330326954_);">
					<g>
						<path class="st3" d="M11.5,29.2c-0.5-0.4-1.7-0.6-2.8-0.6s-2,0.2-2.9,0.8s-1.6,1.5-2.1,2.6s-0.8,2.4-0.8,3.6s0.3,2.2,0.8,3.1
							s1.3,1.6,1.8,2.3c0.5,0.6,0.8,1.2,0.7,1.6c-0.1,0.4-0.5,0.7-1.8,1s-3.4,0.8-4.5,1.3s-0.9,1,2.2,5.6s9.4,13.2,16.1,18.1
							s13.8,6.2,18.3,6c4.5-0.1,6.4-1.7,7-3.5c0.5-1.8-0.3-4-1.4-4.9c-1-0.9-2.3-0.7-4-0.1s-4,1.3-5.9,1.2s-3.4-1.2-4-2.9
							s-0.2-3.9-0.1-5.1s0-1.3-2-2.7c-2-1.4-5.8-4-8.6-7s-4.6-6.4-5.4-9.6c-0.8-3.2-0.7-6.1-0.6-7.9C11.8,30.1,12,29.6,11.5,29.2
							L11.5,29.2z"/>
						<path class="st4" d="M28.2,59.7c-0.4,0.5-0.7,1.8-0.4,3.2s1.2,2.8,2.3,3.6c1.1,0.8,2.5,0.9,4,0.8c1.5-0.2,3.1-0.7,4.2-1
							c1.1-0.3,1.7-0.4,2.3-0.3c0.7,0.1,1.4,0.3,1.9,0.9c0.5,0.6,0.6,1.4,0.8,2.2s0.2,1.5,0.2,1.8c0,0.3,0.1,0.3,1.5-0.2
							s4.2-1.5,7.5-2.9c3.3-1.4,7.1-3.3,10.1-6.6c3-3.2,5.2-7.8,6.9-12.5c1.7-4.8,2.9-9.7,3.2-13.3c0.3-3.6-0.3-5.8-0.8-7.1
							s-0.7-1.5-1.3-1.5c-0.5,0-1.3,0.2-2.4,0.6c-1.1,0.3-2.4,0.8-3.1,1.3c-0.7,0.5-0.8,1.1-0.5,1.6c0.3,0.5,0.9,1,1.5,1.7
							s1.1,1.6,1.3,2.7s0.2,2.2,0,3.1s-0.4,1.6-0.9,2.2c-0.4,0.6-1,1.2-2,1.7s-2.2,0.7-3.1,0.8c-0.9,0.1-1.4,0-1.7-0.1
							c-0.3,0-0.4,0-0.9,1.3c-0.5,1.3-1.5,4-3.2,6.4c-1.7,2.4-4.2,4.7-7.1,6.4c-3,1.8-6.5,3.1-9.8,3.6c-3.3,0.5-6.4,0.2-8.1-0.1
							C28.9,59.6,28.5,59.2,28.2,59.7L28.2,59.7z"/>
						<path class="st5" d="M59.9,42.5c0.4,0.3,1.5,0.5,3.1,0c1.6-0.5,3.7-1.5,4.5-3.5c0.8-1.9,0.3-4.6-0.3-6.3s-1.3-2.4-1.5-2.9
							s0.2-0.9,0.9-1.3c0.8-0.4,2.1-0.8,3-1.2c0.9-0.5,1.4-1.1,1.2-2.8c-0.2-1.7-1.2-4.6-3.5-8.3c-2.3-3.7-6-8.2-11.2-11.2
							c-5.3-3-12.1-4.5-17.2-5s-8.5-0.1-10.4,0.4c-1.9,0.4-2.2,0.9-2.3,1.7S26,3.8,26.3,4.5s1.1,1,2.5,0.9s3.6-0.9,5.2-1.2
							c1.6-0.3,2.7-0.3,3.7,0c1,0.3,1.8,0.9,2.5,1.8c0.7,0.9,1.2,2.1,1.5,3.2c0.3,1.1,0.3,2.1,1,2.8c0.7,0.7,2.1,1.2,4,2.3
							s4.1,2.6,5.8,4c1.7,1.4,2.8,2.6,3.8,4.4s1.9,4.1,2.5,6.1s1,3.7,1.2,5.7s0,4.2-0.1,5.6C59.7,41.6,59.5,42.1,59.9,42.5
							L59.9,42.5z"/>
						<path class="st6" d="M26.1,1c0.9,0.1,0.8,1.1,0.8,1.9c0,0.8,0.3,1.4,0.9,1.5c0.6,0.1,1.6-0.2,3.5-0.5s4.4-0.5,6.2-0.1
							s2.7,1.1,3.4,2.2s1.3,2.6,1.6,3.6s0.3,1.7-0.4,2c-0.7,0.2-2.1,0.1-4,0s-4.3-0.1-7,0.2c-2.6,0.3-5.5,1-8.1,2.5
							s-4.8,3.9-6.6,6.6s-3.3,5.6-4.6,7s-2.3,1.4-3.3,1.6S6.4,30,5.7,30.7s-1.2,1.7-1.5,2.6c-0.2,0.8-0.3,1.5-0.2,2.2
							c0.2,0.7,0.5,1.4,1,2.5s1.4,2.5,1.7,3.7s-0.1,2-1.2,2.5c-1.2,0.6-3.2,0.9-4.4,1c-1.1,0.1-1.4,0.1-2-2s-1.5-6.4-0.8-12.5
							c0.7-6,3.2-13.8,7.3-18.8s9.8-7.3,13.7-8.8S25.1,0.9,26.1,1L26.1,1z"/>
					</g>
				</g>
			</g>
			<path class="st7" d="M35.7,0.2c19.6,0,35.4,15.9,35.4,35.4S55.2,71.1,35.7,71.1S0.2,55.2,0.2,35.7S16.1,0.2,35.7,0.2L35.7,0.2z
				 M35.6,10C21.4,10,9.8,21.5,9.8,35.8s11.6,25.8,25.9,25.8S61.5,50,61.5,35.8S49.9,10,35.6,10z"/>
			
				<radialGradient id="SVGID_00000132793197694641169050000003505775646747961226_" cx="-1360.1578" cy="-346.6" r="5.56" gradientTransform="matrix(6.674326e-17 -1.09 -1.04 -6.368163e-17 -329.14 -1446.14)" gradientUnits="userSpaceOnUse">
				<stop  offset="0" style="stop-color:#E3AC9E"/>
				<stop  offset="1" style="stop-color:#BC5F30"/>
			</radialGradient>
			
				<path style="fill-rule:evenodd;clip-rule:evenodd;fill:url(#SVGID_00000132793197694641169050000003505775646747961226_);stroke:#84746C;stroke-width:0.11;stroke-miterlimit:22.93;" d="
				M33.9,41.1c0.3-0.1,0.7-0.4,1.2-1.2c0.5-0.8,1.1-2,1.4-3.1c0.3-1.2,0.3-2.3,0.1-3.3c-0.2-1-0.5-1.7-0.9-2.3c-0.4-0.6-1-1-1.7-1.3
				s-1.8-0.7-2.7-0.8c-0.9-0.1-1.8,0-2.5,0.2c-0.7,0.2-1.4,0.5-1.9,1c-0.5,0.4-0.8,1-1,1.6c-0.2,0.6-0.4,1.4-0.5,2.4
				s-0.1,2.1-0.1,2.8c0,0.6,0,0.7,0.5,0.7c0.6,0,1.8,0.1,3.1,0.4c1.3,0.3,2.7,0.8,3.4,1.4s1,1.1,1.1,1.4
				C33.5,41.1,33.6,41.2,33.9,41.1L33.9,41.1z"/>
			<path class="st9" d="M24.2,38c0-0.3-0.1-0.9,0.2-1.5c0.3-0.6,0.8-1.1,1.3-1.1c0.5-0.1,1,0.3,1.6,0.8s1.2,1.3,1.4,1.6
				s0.2,0.4-0.6,0.5c-0.8,0-2.3,0-3.1,0C24.3,38.3,24.2,38.3,24.2,38z"/>
			<path class="st9" d="M29.2,37.1c0.1-0.3,0.5-0.8,1-1.1s1.3-0.4,1.8-0.2s0.7,0.8,0.9,1.5c0.2,0.8,0.3,1.7,0.3,2.2s-0.1,0.5-0.8,0
				s-1.9-1.2-2.6-1.7S29.1,37.4,29.2,37.1L29.2,37.1z"/>
			
				<linearGradient id="SVGID_00000160897893874981318990000011018092848170560673_" gradientUnits="userSpaceOnUse" x1="25.9613" y1="24.5792" x2="31.4013" y2="34.0192" gradientTransform="matrix(1 0 0 -1 0 74)">
				<stop  offset="0" style="stop-color:#4EAD33"/>
				<stop  offset="1" style="stop-color:#D3DF81"/>
			</linearGradient>
			<path style="fill-rule:evenodd;clip-rule:evenodd;fill:url(#SVGID_00000160897893874981318990000011018092848170560673_);" d="
				M21.5,40.3c0,1.2,1.2,2.9,1.3,3.7c0.5,2.4,0.5,3.8-0.3,5.7c3.5,0.8,8.1,2,12.6,1.3c0.8-5.5-0.3-10-3.6-13.1
				C28.4,35.1,21.1,37.7,21.5,40.3L21.5,40.3z"/>
			<path class="st11" d="M44.6,26.2c0-0.1,0-0.3,0.2-0.4c0.1-0.1,0.3-0.3,0.6-0.4s0.7-0.1,0.9,0c0.2,0,0.2,0,0.2,0.1
				s-0.3,0.3-0.3,0.5s-0.1,0.5-0.1,0.8c0,0.2,0.1,0.4,0.1,0.5c0,0.1,0,0.1-0.2,0c-0.2-0.1-0.7-0.4-1-0.6
				C44.7,26.5,44.6,26.4,44.6,26.2L44.6,26.2z"/>
			<path class="st1" d="M44.3,37.4c-0.7-0.5-1.5-0.9-2.5-2.2c-1.1-1.3-2.4-3.3-3.8-5.4"/>
			<path class="st12" d="M56.2,30.7c-0.4-0.4-0.5-1.1-0.5-1.5c0-0.2,0.1-0.3,0.2-0.2c0.3,0.2,0.9,0.5,1.4,0.9s1.1,0.6,1.4,0.8
				c0.2,0.1,0.2,0.2,0.1,0.2c-0.2,0.1-0.5,0.2-1,0.2C57.3,31.2,56.6,31.1,56.2,30.7L56.2,30.7z"/>
			<path class="st13" d="M13.4,21.3c-1.8,3.5-3,6.9-3.1,10.5c2.3,0,4.6-0.1,6.9-0.1c0.2-2.7,1-5.1,2.2-7.6L13.4,21.3L13.4,21.3z"/>
			<path class="st14" d="M51.3,25c-2.1-1.7-3.2-2.8-3.7-5C48.8,21.5,50,23.4,51.3,25z"/>
			<path class="st15" d="M59,30.9c-0.8-1.4-2.4-3.8-3.2-5.2c-2.4-1.8-4.9-3.1-7.4-4.9c-0.1,0-0.3-0.4-0.4-0.4c0.1,1,3.7,5,4.5,5.5
				c0.8,0.5,1.1,1,1.9,1.4C55.4,29.2,56.6,29.5,59,30.9z"/>
			<g>
				<path class="st16" d="M46.1,27.2c-0.7-0.5-0.6-0.8-0.5-1.1c0.1-0.3,0.3-0.5,0.5-0.6c0.2-0.1,0.4-0.2,0.6-0.2
					c0.1,0,0.2,0,0.3-0.1c0.1-0.1,0.1-0.2,0.2-0.3c0.1-0.1,0.2-0.2,0.3-0.2s0.3-0.1,0.5-0.1c0.2,0,0.3,0,0.5,0.1s0.2,0.1,0.3,0.2
					c0,0,0.1,0,0.1,0c0.1,0,0.2-0.1,0.3-0.2c0.2-0.1,0.3-0.1,0.5-0.1c0.2,0,0.3,0,0.4,0s0.3,0.1,0.4,0.2c0.1,0,0.1,0.1,0.1,0
					c0.1,0,0.2-0.1,0.3-0.1s0.3,0.1,0.5,0.1c0.1,0.1,0.2,0.2,0.2,0.2c0,0,0,0,0.1,0c0,0,0.1,0,0.3,0s0.4,0.2,0.6,0.3
					s0.3,0.3,0.3,0.4s0.1,0.3,0.1,0.3c0,0.1,0,0.1,0,0c0,0,0-0.1,0.2-0.1s0.3,0.2,0.5,0.3s0.3,0.2,0.3,0.3c0.1,0.1,0.1,0.2,0.1,0.3
					c0,0.1,0,0.1,0,0c0,0,0.1-0.1,0.2,0s0.3,0.2,0.5,0.3c0.2,0.1,0.3,0.3,0.3,0.5c0.1,0.2,0.1,0.3,0.1,0.4c0,0.1-0.1,0.1-0.1,0.2
					s0,0,0,0c0.1,0,0.3,0.1,0.4,0.2c0.1,0.1,0.2,0.4,0.2,0.6c0,0.2,0.1,0.5,0.1,0.8c0,0.2,0,0.5,0,0.6c0,0.1,0,0.1-1-0.2
					c-1-0.3-3.2-0.9-4.9-1.5C48.2,28.2,46.8,27.6,46.1,27.2L46.1,27.2z"/>
				<path class="st17" d="M48.7,24.7c-0.1,0.2-0.2,0.4-0.2,0.5s0,0.3,0.1,0.4c0.1,0.1,0.2,0.1,0.4,0.2"/>
				<path class="st17" d="M48.5,25.5c-0.2,0-0.3-0.1-0.5-0.1c-0.2,0-0.3,0.1-0.5,0.2s-0.2,0.2-0.3,0.4c0,0.1,0,0.2,0,0.3
					c0.1,0.1,0.2,0.1,0.3,0.1c0.1,0,0.2,0,0.3,0.1c0.1,0,0.2,0.1,0.2,0.2c0,0.1,0,0.1,0.1,0.1c0,0,0.2,0,0.3-0.1c0.1,0,0.2,0,0.3,0
					s0.2,0.1,0.2,0.2s0.1,0.2,0.1,0.3c0,0.1,0,0.1,0,0.2c0,0,0.2,0,0.3,0c0.1,0,0.3,0.1,0.4,0.2c0.1,0.1,0.1,0.2,0.1,0.3
					s0,0.2-0.1,0.3s-0.1,0.1-0.2,0.2c-0.1,0.1-0.2,0.2-0.3,0.3"/>
				<path class="st17" d="M49.9,27.8c0.1,0,0.1,0.1,0.2,0.1c0.1,0,0.1,0,0.2,0"/>
				<path class="st17" d="M50.2,27.3c-0.1-0.2-0.3-0.4-0.3-0.6c0-0.2,0-0.4,0.1-0.5s0.1-0.1,0.2-0.2c0.1,0,0.1,0,0.2,0
					s0.1,0.1,0.2,0.1"/>
				<path class="st17" d="M50.2,26.1c0-0.1,0-0.2,0-0.2c0-0.1-0.1-0.2-0.2-0.2c-0.1,0-0.2,0-0.4,0c-0.1,0-0.3-0.1-0.3-0.1
					s-0.1-0.1-0.1-0.1"/>
				<path class="st17" d="M50,26.9c0.1,0,0.2,0,0.2,0s0.2-0.1,0.3-0.1"/>
				<path class="st17" d="M46.6,26.3c0.1,0.1,0.2,0.2,0.3,0.2c0.1,0,0.2,0,0.3-0.1s0.1-0.1,0.1-0.2"/>
				<path class="st17" d="M46,25.9c0.1-0.1,0.2-0.2,0.3-0.2s0.3,0,0.4,0s0.2,0,0.3-0.1"/>
				<path class="st17" d="M47.2,25.3c0.1-0.1,0.1-0.2,0.2-0.2c0.1,0,0.2,0,0.3,0c0.1,0,0.2,0,0.3,0s0.1,0,0.1,0"/>
				<path class="st17" d="M48.3,26c0.1,0.1,0.1,0.2,0.2,0.2c0.1,0,0.2,0.1,0.3,0.1s0.2,0,0.3,0c0.1,0,0.1,0.1,0.1,0.2"/>
				<path class="st17" d="M50.4,24.6c0,0.3,0,0.6,0,0.8c0.1,0.2,0.2,0.4,0.4,0.5c0.1,0.2,0.3,0.3,0.3,0.5s0,0.3-0.1,0.5
					c-0.1,0.2-0.2,0.3-0.2,0.5c0,0.1,0.1,0.3,0.2,0.5c0.1,0.2,0.2,0.4,0.2,0.6c0,0.2,0,0.4,0,0.6"/>
				<path class="st17" d="M51.6,27c0.2,0.1,0.4,0.2,0.5,0.4s0.1,0.4,0,0.5s-0.2,0.3-0.2,0.5s-0.1,0.4,0,0.6c0,0.1,0,0.2,0,0.3
					c0,0,0,0,0,0"/>
				<path class="st17" d="M52.1,27.4c0.1-0.1,0.2-0.1,0.2-0.2c0-0.1,0-0.2,0.1-0.3"/>
				<path class="st17" d="M52,28.2c0.1,0.1,0.2,0.1,0.3,0.1s0.3,0,0.4,0c0.1,0,0.2,0.2,0.3,0.3c0,0.1,0,0.2,0.1,0.3
					c0,0.1,0.1,0.2,0.1,0.3s0,0.3,0,0.4"/>
				<path class="st17" d="M53.1,28.9c-0.1,0-0.2,0-0.3,0s-0.2,0-0.2-0.1"/>
				<path class="st17" d="M46.1,27.2c0.1-0.1,0.2-0.1,0.3-0.3c0-0.1,0-0.4,0-0.6"/>
				<path class="st17" d="M51.4,24.9c0,0.1,0,0.2,0,0.4"/>
				<path class="st17" d="M51.4,25.5c0.1,0.1,0.1,0.2,0.1,0.2c0,0.1,0,0.2-0.1,0.2s-0.1,0.1-0.1,0.1"/>
				<path class="st17" d="M51.6,25.8c0.1,0,0.2,0,0.2,0c0.1,0,0.1,0,0.2,0.1c0,0,0.1,0.1,0.1,0.2"/>
				<path class="st17" d="M52.2,26.5c0.1,0,0.2,0.1,0.3,0.1s0.2,0,0.3,0c0.1,0,0.2,0,0.3,0.1c0.1,0.1,0.2,0.2,0.3,0.3"/>
				<path class="st17" d="M52.8,26c0,0.1,0,0.2,0,0.2s0.1,0.1,0.1,0.1"/>
				<path class="st17" d="M54,26.8c0,0,0,0.1,0,0.1c0,0,0,0,0,0c0,0,0,0,0,0c0,0,0,0,0,0"/>
				<path class="st17" d="M53.1,27.5c0.1-0.1,0.2-0.1,0.4-0.1s0.3,0.1,0.3,0.2s0.1,0.2,0.1,0.2c0,0,0.1,0.1,0.2,0.1
					c0.1,0,0.2,0,0.3,0s0.1,0.1,0.2,0.2"/>
				<path class="st17" d="M54,27.2c0,0.1,0,0.3,0,0.4s0.1,0.2,0.1,0.3c0,0.1-0.1,0.2-0.1,0.3c0,0.1,0,0.2,0,0.3s0.1,0.3,0.1,0.4
					c0,0.1,0,0.2-0.1,0.3c0,0,0,0,0,0"/>
				<path class="st17" d="M53.6,29.1c0.1,0,0.2,0,0.3,0c0.1,0,0.2,0.1,0.2,0.1c0,0,0.1,0.1,0.1,0.1"/>
				<path class="st17" d="M54.8,28.5c0.2,0.2,0.3,0.5,0.3,0.7c0,0.2,0,0.3-0.1,0.5c0,0.1-0.1,0.3-0.2,0.5"/>
				<path class="st17" d="M55.1,29.6c-0.1-0.1-0.2-0.1-0.2-0.1c0,0-0.1,0-0.1,0"/>
				<path class="st17" d="M55.8,30c-0.1-0.3-0.2-0.6-0.2-0.8s-0.1-0.3-0.2-0.4"/>
			</g>
			<g>
				<path class="st18" d="M46.4,27.8c-0.7-0.5-0.6-0.8-0.5-1.1c0.1-0.3,0.3-0.5,0.5-0.6c0.2-0.1,0.4-0.2,0.6-0.2
					c0.1,0,0.2,0,0.3-0.1c0.1-0.1,0.1-0.2,0.2-0.3c0.1-0.1,0.2-0.2,0.3-0.2s0.3-0.1,0.5-0.1c0.2,0,0.3,0,0.5,0.1s0.2,0.1,0.3,0.2
					c0,0,0.1,0,0.1,0c0.1,0,0.2-0.1,0.3-0.2c0.2-0.1,0.3-0.1,0.5-0.1c0.2,0,0.3,0,0.4,0c0.1,0,0.3,0.1,0.4,0.2c0.1,0,0.1,0.1,0.1,0
					c0.1,0,0.2-0.1,0.3-0.1s0.3,0.1,0.5,0.1c0.1,0.1,0.2,0.2,0.2,0.2c0,0,0,0,0.1,0s0.1,0,0.3,0s0.4,0.2,0.6,0.3s0.3,0.3,0.3,0.4
					c0.1,0.1,0.1,0.3,0.1,0.3c0,0.1,0,0.1,0,0c0,0,0-0.1,0.2-0.1s0.3,0.2,0.5,0.3s0.3,0.2,0.3,0.3c0.1,0.1,0.1,0.2,0.1,0.3
					c0,0.1,0,0.1,0,0c0,0,0.1-0.1,0.2,0c0.1,0,0.3,0.2,0.5,0.3s0.3,0.3,0.3,0.5c0.1,0.2,0.1,0.3,0.1,0.4c0,0.1-0.1,0.1-0.1,0.2
					c0,0,0,0,0,0c0.1,0,0.3,0.1,0.4,0.2c0.1,0.1,0.2,0.4,0.2,0.6c0,0.2,0.1,0.5,0.1,0.8c0,0.2,0,0.5,0,0.6c0,0.1,0,0.1-1-0.2
					c-1-0.3-3.2-0.9-4.9-1.5S47.1,28.3,46.4,27.8L46.4,27.8z"/>
				<path class="st19" d="M49,25.4c-0.1,0.2-0.2,0.4-0.2,0.5s0,0.3,0.1,0.4c0.1,0.1,0.2,0.1,0.4,0.2"/>
				<path class="st19" d="M48.8,26.1c-0.2,0-0.3-0.1-0.5-0.1c-0.2,0-0.3,0.1-0.5,0.2s-0.2,0.2-0.3,0.4c0,0.1,0,0.2,0,0.3
					c0.1,0.1,0.2,0.1,0.3,0.1c0.1,0,0.2,0,0.3,0.1c0.1,0,0.2,0.1,0.2,0.2c0,0.1,0,0.1,0.1,0.1s0.2,0,0.3-0.1c0.1,0,0.2,0,0.3,0
					s0.2,0.1,0.2,0.2s0.1,0.2,0.1,0.3c0,0.1,0,0.1,0,0.2c0,0,0.2,0,0.3,0s0.3,0.1,0.4,0.2c0.1,0.1,0.1,0.2,0.1,0.3s0,0.2-0.1,0.3
					s-0.1,0.1-0.2,0.2c-0.1,0.1-0.2,0.2-0.3,0.3"/>
				<path class="st19" d="M50.2,28.4c0.1,0,0.1,0.1,0.2,0.1c0.1,0,0.1,0,0.2,0"/>
				<path class="st19" d="M50.5,27.9c-0.1-0.2-0.3-0.4-0.3-0.6c0-0.2,0-0.4,0.1-0.5s0.1-0.1,0.2-0.2c0.1,0,0.1,0,0.2,0
					s0.1,0.1,0.2,0.1"/>
				<path class="st19" d="M50.5,26.7c0-0.1,0-0.2,0-0.2c0-0.1-0.1-0.2-0.2-0.2c-0.1,0-0.2,0-0.4,0c-0.1,0-0.3-0.1-0.3-0.1
					S49.5,26,49.5,26"/>
				<path class="st19" d="M50.3,27.6c0.1,0,0.2,0,0.2,0s0.2-0.1,0.3-0.1"/>
				<path class="st19" d="M47,26.9c0.1,0.1,0.2,0.2,0.3,0.2c0.1,0,0.2,0,0.3-0.1s0.1-0.1,0.1-0.2"/>
				<path class="st19" d="M46.3,26.6c0.1-0.1,0.2-0.2,0.3-0.2s0.3,0,0.4,0s0.2,0,0.3-0.1"/>
				<path class="st19" d="M47.5,25.9c0.1-0.1,0.1-0.2,0.2-0.2c0.1,0,0.2,0,0.3,0c0.1,0,0.2,0,0.3,0s0.1,0,0.1,0"/>
				<path class="st19" d="M48.6,26.6c0.1,0.1,0.1,0.2,0.2,0.2c0.1,0,0.2,0.1,0.3,0.1s0.2,0,0.3,0c0.1,0,0.1,0.1,0.1,0.2"/>
				<path class="st19" d="M50.7,25.3c0,0.3,0,0.6,0,0.8c0.1,0.2,0.2,0.4,0.4,0.5c0.1,0.2,0.3,0.3,0.3,0.5s0,0.3-0.1,0.5
					c-0.1,0.2-0.2,0.3-0.2,0.5c0,0.1,0.1,0.3,0.2,0.5c0.1,0.2,0.2,0.4,0.2,0.6c0,0.2,0,0.4,0,0.6"/>
				<path class="st19" d="M51.9,27.6c0.2,0.1,0.4,0.2,0.5,0.4s0.1,0.4,0,0.5s-0.2,0.3-0.2,0.5s-0.1,0.4,0,0.6s0,0.2,0,0.3
					c0,0,0,0,0,0"/>
				<path class="st19" d="M52.4,28c0.1-0.1,0.2-0.1,0.2-0.2c0-0.1,0-0.2,0.1-0.3"/>
				<path class="st19" d="M52.3,28.8c0.1,0.1,0.2,0.1,0.3,0.1s0.3,0,0.4,0c0.1,0,0.2,0.2,0.3,0.3c0,0.1,0,0.2,0.1,0.3
					c0,0.1,0.1,0.2,0.1,0.3s0,0.3,0,0.4"/>
				<path class="st19" d="M53.4,29.6c-0.1,0-0.2,0-0.3,0s-0.2,0-0.2-0.1"/>
				<path class="st19" d="M46.4,27.8c0.1-0.1,0.2-0.1,0.3-0.3c0-0.1,0-0.4,0-0.6"/>
				<path class="st19" d="M51.8,25.5c0,0.1,0,0.2,0,0.4"/>
				<path class="st19" d="M51.8,26.1c0.1,0.1,0.1,0.2,0.1,0.2c0,0.1,0,0.2-0.1,0.2s-0.1,0.1-0.1,0.1"/>
				<path class="st19" d="M51.9,26.4c0.1,0,0.2,0,0.2,0c0.1,0,0.1,0,0.2,0.1c0,0,0.1,0.1,0.1,0.2"/>
				<path class="st19" d="M52.5,27.1c0.1,0,0.2,0.1,0.3,0.1s0.2,0,0.3,0c0.1,0,0.2,0,0.3,0.1s0.2,0.2,0.3,0.3"/>
				<path class="st19" d="M53.2,26.6c0,0.1,0,0.2,0,0.2s0.1,0.1,0.1,0.1"/>
				<path class="st19" d="M54.3,27.4c0,0,0,0.1,0,0.1c0,0,0,0,0,0c0,0,0,0,0,0c0,0,0,0,0,0"/>
				<path class="st19" d="M53.5,28.1c0.1-0.1,0.2-0.1,0.4-0.1s0.3,0.1,0.3,0.2c0.1,0.1,0.1,0.2,0.1,0.2c0,0,0.1,0.1,0.2,0.1
					c0.1,0,0.2,0,0.3,0s0.1,0.1,0.2,0.2"/>
				<path class="st19" d="M54.3,27.9c0,0.1,0,0.3,0,0.4s0.1,0.2,0.1,0.3c0,0.1-0.1,0.2-0.1,0.3c0,0.1,0,0.2,0,0.3s0.1,0.3,0.1,0.4
					c0,0.1,0,0.2-0.1,0.3c0,0,0,0,0,0"/>
				<path class="st19" d="M53.9,29.7c0.1,0,0.2,0,0.3,0c0.1,0,0.2,0.1,0.2,0.1c0,0,0.1,0.1,0.1,0.1"/>
				<path class="st19" d="M55.1,29.2c0.2,0.2,0.3,0.5,0.3,0.7c0,0.2,0,0.3-0.1,0.5c0,0.1-0.1,0.3-0.2,0.5"/>
				<path class="st19" d="M55.4,30.2c-0.1-0.1-0.2-0.1-0.2-0.1c0,0-0.1,0-0.1,0"/>
				<path class="st19" d="M56.1,30.6c-0.1-0.3-0.2-0.6-0.2-0.8s-0.1-0.3-0.2-0.4"/>
			</g>
			<path class="st20" d="M69.6,49c-0.9,0.2-1.2,1-1,1.9c0.2,1.7-0.3,3.4-0.8,3.9c-1.3,1.5-3.7,0-5.3,0.9c-2.2,2-2.4,6.3-8.3,2.1
				c-0.9-0.6-3.1-1-4-0.5c-1.6,1-2.2,0-3.2,0.3c-0.9,0.3,0.1-9.8,0-10.7c3-1.8,1.3-8.4,5.4-8c0.7,0.5,5.3,3.6,6,4.2
				c3.4,2.3,7.2,4.5,11.2,5.3C69.7,48.4,70,48.9,69.6,49L69.6,49z"/>
			<line class="st1" x1="50.2" y1="54.6" x2="50" y2="57.5"/>
			
				<radialGradient id="SVGID_00000150800845782188935320000004185291942793208737_" cx="-1336.6578" cy="-581.2282" r="4.64" gradientTransform="matrix(6.674326e-17 -1.09 -0.83 -5.082284e-17 -425.34 -1409.4701)" gradientUnits="userSpaceOnUse">
				<stop  offset="0" style="stop-color:#FDF9D7"/>
				<stop  offset="1" style="stop-color:#FFED00"/>
			</radialGradient>
			<path style="fill-rule:evenodd;clip-rule:evenodd;fill:url(#SVGID_00000150800845782188935320000004185291942793208737_);" d="
				M60.8,46.8c-0.2,0.7-0.5,1.2-0.7,1.5c-0.2,0.3-0.2,0.3-0.4,0.1c-0.2-0.1-0.5-0.4-0.8-0.5c-0.3-0.1-0.7-0.1-1-0.1
				c-0.3,0.1-0.5,0.2-0.7,0.5c-0.2,0.3-0.3,0.7-0.3,1c0.1,0.4,0.4,0.7,0.8,0.8s0.9,0,1.2,0c0.3,0,0.3,0,0.2,0.2
				c-0.2,0.3-0.5,0.8-0.7,1.2c-0.2,0.4-0.4,0.7-0.5,0.8s-0.1,0.2-0.8,0.1c-0.7-0.1-2.2-0.3-2.9-0.4c-0.7-0.1-0.8-0.2-0.6-0.3
				c0.1-0.1,0.5-0.3,0.7-0.5s0.4-0.6,0.3-0.8s-0.5-0.5-0.8-0.6c-0.2-0.1-0.2-0.1-0.1-1.3c0-1.2,0.1-3.7,0.2-5c0-1.2,0.1-1.2,0.2-1
				c0.2,0.2,0.6,0.7,0.8,0.9c0.2,0.2,0.2,0.2,0.6,0s1.1-0.6,1.5-0.8s0.3-0.2,0.5-0.1c0.2,0.1,0.6,0.3,0.8,0.4
				c0.2,0.1,0.2,0.1,0.2,0.2c-0.1,0.1-0.2,0.3-0.3,0.4c-0.1,0.1-0.1,0.1,0.3,0.3c0.4,0.2,1.2,0.5,1.8,0.6c0.6,0.2,1,0.2,1,0.6
				C61.2,45.4,61,46.1,60.8,46.8L60.8,46.8z"/>
			
				<radialGradient id="SVGID_00000174601030497224522670000000372022998448468909_" cx="-31.5391" cy="-275.4127" r="5.64" gradientTransform="matrix(1.1 0 0 -0.63 96.8 -117.7)" gradientUnits="userSpaceOnUse">
				<stop  offset="0" style="stop-color:#C9E8F6"/>
				<stop  offset="1" style="stop-color:#008BD2"/>
			</radialGradient>
			<path style="fill-rule:evenodd;clip-rule:evenodd;fill:url(#SVGID_00000174601030497224522670000000372022998448468909_);" d="
				M57.9,52.5c-0.5,0.2-0.8,0.7-1.1,1c-0.2,0.3-0.4,0.6-0.3,0.7c0.1,0.1,0.3,0.1,0.7,0.1s0.8-0.1,1.2-0.1c0.4,0,0.7,0,0.9,0.1
				s0.3,0.3,0.2,0.5c-0.1,0.2-0.3,0.4-0.7,0.5c-0.4,0.1-0.9,0.2-1.4,0.2s-0.9-0.1-1.1-0.1c-0.2,0-0.2-0.1-0.2,0.1S56,56,56,56.5
				c0,0.5,0.2,1.2,0.4,1.7c0.2,0.5,0.5,0.9,0.8,1.1s0.8,0.2,1.2,0.2c0.4,0,0.8-0.2,1.2-0.5s0.7-0.8,1-1.2c0.3-0.5,0.6-0.9,0.9-1.3
				s0.7-0.8,1.1-1s0.8-0.2,1.3-0.1c0.4,0,0.8,0,1.1,0.1s0.6,0,0.8,0c0.2,0,0.3,0,0.2-0.1s-0.2-0.2-0.3-0.3c-0.1-0.2-0.1-0.5,0.2-0.7
				c0.2-0.2,0.7-0.3,1.1-0.3s0.7,0,0.9,0c0.2,0,0.2,0,0.2-0.1c0.1-0.1,0.2-0.3,0.2-0.6s0.1-0.5,0.1-0.6c0-0.2,0-0.3,0-0.2
				c0,0-0.1,0.2-0.8,0.2c-0.7,0-1.9,0-2.6,0c-0.7,0-0.7,0-0.7,0.1s0.2,0.2,0.3,0.3s0,0.3-0.3,0.4c-0.3,0.1-0.8,0.1-1.3,0.1
				c-0.4,0-0.8-0.1-1-0.1c-0.2,0-0.4-0.1-0.3-0.2s0.3-0.2,0.5-0.3c0.1-0.1,0.1-0.2-0.4-0.3c-0.5-0.1-1.5-0.2-2.2-0.2
				C58.9,52.4,58.4,52.3,57.9,52.5L57.9,52.5z"/>
			
				<radialGradient id="SVGID_00000069386061545684742780000009701513255548232885_" cx="-30.6691" cy="-124.1168" r="5.91" gradientTransform="matrix(1.1 0 0 -0.77 96.8 -46.23)" gradientUnits="userSpaceOnUse">
				<stop  offset="0" style="stop-color:#E5EDC4"/>
				<stop  offset="1" style="stop-color:#69B42E"/>
			</radialGradient>
			<path style="fill-rule:evenodd;clip-rule:evenodd;fill:url(#SVGID_00000069386061545684742780000009701513255548232885_);" d="
				M64.1,46.6c0,0.2-0.1,0.4-0.2,0.7c0,0.3,0,0.6,0.1,0.8c0.1,0.3,0.4,0.5,0.7,0.6c0.3,0.1,0.7,0.1,1,0c0.3-0.1,0.4-0.3,0.5-0.5
				c0.1-0.2,0.1-0.5,0.1-0.6c0-0.1,0.2-0.1,0.5,0c0.5,0.2,1.5,0.5,2,0.6c0.5,0.2,0.6,0.2,0.7,0.3c0.1,0.1,0.2,0.2,0.2,0.3
				c0,0.1,0,0.2-0.1,0.3s-0.3,0.1-0.5,0.2c-0.2,0.1-0.3,0.2-0.4,0.4c-0.1,0.2-0.2,0.5-0.2,1.1s0,1.2,0,1.6s0,0.5-0.7,0.6
				c-0.6,0-1.9,0-2.6,0s-0.7,0-0.6,0.1s0.3,0.2,0.3,0.4s-0.2,0.3-0.7,0.4c-0.5,0.1-1.4,0.1-1.9,0c-0.5-0.1-0.8-0.2-0.7-0.4
				c0-0.2,0.3-0.3,0.5-0.5c0.2-0.1,0.2-0.1-0.6-0.2c-0.8-0.1-2.4-0.2-3.2-0.2c-0.5,0-0.7-0.2-0.6-0.4c0.2-0.3,0.7-1,0.9-1.4
				c0.3-0.3,0.3-0.4,0.1-0.4s-0.8-0.1-1.2-0.2s-0.6-0.3-0.7-0.7c-0.1-0.4,0-0.9,0.3-1.2s0.6-0.5,1-0.5s0.8,0,1.1,0.1
				c0.3,0.1,0.6,0.3,0.7,0.4c0.1,0.1,0.1,0.1,0.2-0.1s0.2-0.5,0.4-0.8c0.1-0.4,0.3-0.8,0.4-1.2s0.2-0.9,0.3-1.2s0-0.3,0.4-0.1
				c0.3,0.2,0.9,0.6,1.4,0.9s0.8,0.5,1,0.6S64.1,46.5,64.1,46.6L64.1,46.6z"/>
			<path class="st3" d="M42.4,49.1c-1.1,1.1-1.6,2.4-1.8,3.8c1.6,0.8,3.5,1.4,5.3,1.8c0,0,0.7-2.7,0.8-2.2c0,0.8,0,1.5-0.1,2.2
				c2.3,0.8,4.5,1,6.8,0.5c0-1.9-0.1-3.5-0.5-5.4C49.4,49.6,45.9,49.3,42.4,49.1L42.4,49.1z"/>
			<path class="st24" d="M45.8,40.1c-2,2.7-3.4,5-4.8,8.3c3.2,2.3,7.9,3,12.5,2.4c0.7-2.5,0.6-5.6,0.2-8.5c0.4,0.5,0.8,1,1.2,1.4
				c0.8-0.4,1.6-0.8,2.4-1.2c-1.4-1.2-2.5-2.2-3.9-3.3c-4.7,0.5-7.4-1.1-9.3-2.4c0,0,0,0.2-0.1,0.2s-0.2-0.1-0.2,0
				c-0.3,0.3-0.5,0.6-0.8,0.9C43.7,38.8,44.9,39.5,45.8,40.1L45.8,40.1z"/>
			<line class="st1" x1="56.6" y1="42.6" x2="62.6" y2="49.4"/>
			
				<linearGradient id="SVGID_00000092453757479646112740000018051585470589704343_" gradientUnits="userSpaceOnUse" x1="59.0869" y1="46.6466" x2="50.7369" y2="54.1066" gradientTransform="matrix(1 0 0 -1 0 74)">
				<stop  offset="0" style="stop-color:#FBC98B"/>
				<stop  offset="1" style="stop-color:#F8E9DA"/>
			</linearGradient>
			<path style="fill-rule:evenodd;clip-rule:evenodd;fill:url(#SVGID_00000092453757479646112740000018051585470589704343_);" d="
				M47.5,20c4.1,3.3,7.9,7.1,11.5,10.8C61.7,22.6,53.3,17.6,47.5,20z"/>
			<path class="st26" d="M53.3,21.3c-1.7-0.6-3.9-1.2-6.1-1.4c6.5-3.4,15.3,4,11.8,10.9c-0.6-0.6-1.5-1.5-2.1-2.1
				c0.4-1.5,0.8-2.7,0.5-4.2c-0.6-0.3-1.3-0.5-2.2-0.5c0.4-0.2,0.8-0.3,1.1-0.6c-1.4-0.7-2.6-1.3-4.2-1.7
				C52.6,21.5,53,21.4,53.3,21.3L53.3,21.3z"/>
			
				<linearGradient id="SVGID_00000183221048469982403670000008695409416932879537_" gradientUnits="userSpaceOnUse" x1="34.5592" y1="31.0449" x2="23.6092" y2="29.1349" gradientTransform="matrix(1 0 0 -1 0 74)">
				<stop  offset="0" style="stop-color:#C4A1A0"/>
				<stop  offset="0.34" style="stop-color:#C49F9D"/>
				<stop  offset="0.53" style="stop-color:#C59C95"/>
				<stop  offset="0.68" style="stop-color:#C89587"/>
				<stop  offset="0.82" style="stop-color:#CB8C73"/>
				<stop  offset="0.94" style="stop-color:#D0805A"/>
				<stop  offset="1" style="stop-color:#D3794A"/>
			</linearGradient>
			<path style="fill-rule:evenodd;clip-rule:evenodd;fill:url(#SVGID_00000183221048469982403670000008695409416932879537_);" d="
				M35.1,51c0.3-0.1,0.6-0.2,0.9-0.2c0.2-4.4,0.2-7.8-2.3-11.7c-1.1-1.6-2.1-2.3-3.8-2.8c-1-0.2-2.2-0.3-3.3-0.1
				c-1.6,0.2-3.8,1.7-4.3,2.3c-0.1,0.1-0.6,0.8-0.5,0.8s1.3-1.2,1.9-1.6c2.9-1.4,5.7-1.2,7.5,0C34.7,40.2,35.7,46.6,35.1,51L35.1,51
				z"/>
			
				<linearGradient id="SVGID_00000095312601565760987450000014193670496748171950_" gradientUnits="userSpaceOnUse" x1="54.0403" y1="37.4202" x2="45.9703" y2="46.0603" gradientTransform="matrix(1 0 0 -1 0 74)">
				<stop  offset="0" style="stop-color:#FBC98B"/>
				<stop  offset="1" style="stop-color:#F8E9DA"/>
			</linearGradient>
			<path style="fill-rule:evenodd;clip-rule:evenodd;fill:url(#SVGID_00000095312601565760987450000014193670496748171950_);" d="
				M44.7,25.8c1,2.1,9.1,5.4,14.3,5c0.2,3-0.8,6.3-4.5,8c-2.6,1.2-10.4,0.9-12.3-4.7c-0.2-0.6-0.3-1-0.3-1.6
				C41.9,30.5,42.4,28,44.7,25.8z"/>
			<path class="st29" d="M46.4,19.7c0.6,1,1.2,2,1.7,3c-1,0.3-2,1.1-2.5,2.4c-1-0.5-2.1-1.4-3.1-2C43.4,21.6,44.7,20.3,46.4,19.7
				L46.4,19.7z"/>
			<path class="st30" d="M39.5,16.9c-1.7,1-3.2,2.9-4.4,5.2c1.5,0.7,3,1.2,4.5,1.8c0.8-1.5,1.8-2.8,3.1-3.5
				C41.8,19,40.6,17.9,39.5,16.9L39.5,16.9z"/>
			<path class="st31" d="M33.6,12.5c-3.2,2.2-6,4.7-8.1,7.6l5.1,3.1c1.7-2.2,3.4-3.9,5.6-5.3C35.6,16.1,34.6,14.3,33.6,12.5
				L33.6,12.5z"/>
			<path class="st32" d="M45.8,40.1c-2,2.7-3.4,5-4.8,8.3c3.2,2.3,7.9,3,12.5,2.4c0.7-2.5,0.6-5.6,0.2-8.5c0.4,0.5,0.8,1,1.2,1.4
				c0.8-0.4,1.6-0.8,2.4-1.2c-1.4-1.2-2.5-2.2-3.9-3.3c-4.7,0.5-7.4-1.1-9.3-2.4c0,0,0,0.2-0.1,0.2s-0.2-0.1-0.2,0
				c-0.3,0.3-0.5,0.6-0.8,0.9C43.7,38.8,44.9,39.5,45.8,40.1L45.8,40.1z"/>
			<g>
				<defs>
					<path id="SVGID_00000114765659667175471070000017073029186887676583_" d="M45.8,40.2c-2,2.7-3.4,5-4.8,8.3
						c3.2,2.3,7.9,3,12.5,2.4c0.7-2.5,0.6-5.6,0.2-8.5c0.4,0.5,0.8,1,1.2,1.4c0.8-0.4,1.6-0.8,2.4-1.2c-1.4-1.2-2.5-2.2-3.9-3.3
						c-4.7,0.5-7.4-1.1-9.3-2.4c0,0,0,0.2-0.1,0.2s-0.2-0.1-0.2,0c-0.3,0.3-0.5,0.6-0.8,0.9C43.7,38.8,44.9,39.5,45.8,40.2
						L45.8,40.2z"/>
				</defs>
				<clipPath id="SVGID_00000171682560621960999800000017834697411339207051_">
					<use xlink:href="#SVGID_00000114765659667175471070000017073029186887676583_"  style="overflow:visible;"/>
				</clipPath>
				<g style="clip-path:url(#SVGID_00000171682560621960999800000017834697411339207051_);">
					<g>
						<defs>
							<rect id="SVGID_00000064326071160236622340000015438296906229214082_" x="41" y="36.8" width="16.4" height="14.4"/>
						</defs>
						<clipPath id="SVGID_00000058563700308496535930000013764041347763050893_">
							<use xlink:href="#SVGID_00000064326071160236622340000015438296906229214082_"  style="overflow:visible;"/>
						</clipPath>
						<g style="clip-path:url(#SVGID_00000058563700308496535930000013764041347763050893_);">
							
								<image style="overflow:visible;enable-background:new    ;" width="329" height="295" xlink:href="250E3EE0.png"  transform="matrix(5.101695e-02 0 0 5.101695e-02 41.1027 36.78)">
							</image>
						</g>
					</g>
				</g>
			</g>
			<path class="st35" d="M22.9,20.1c-1.8,3.9-3.3,7.7-3.8,11.6c2.2,0.2,4.3,0.4,6.5,0.6c0.4-2.8,1.1-5.9,2.7-8.5
				C26.5,22.5,24.6,21.4,22.9,20.1L22.9,20.1z"/>
			<path class="st36" d="M14.9,17.9c1.7,1,3.7,2.1,5.5,3.1c1.9-2.5,4.3-4.8,6.9-6.4c-0.9-1.9-1.8-4-2.6-5.9
				C20.5,11.4,17.2,14.4,14.9,17.9L14.9,17.9z"/>
			<path class="st37" d="M9.5,12.3c-2.9,4.4-5.2,8.3-6.8,12.8c2.3,0.4,4.7,0.8,7,1.2c1.1-3.3,2.7-6.4,4.7-9.4
				C12.8,15.4,11.1,13.9,9.5,12.3z"/>
			
				<radialGradient id="SVGID_00000130646940142509247820000001595368689398503580_" cx="-44.8491" cy="-209.3163" r="3.07" gradientTransform="matrix(1.1 0 0 -0.67 96.8 -104.27)" gradientUnits="userSpaceOnUse">
				<stop  offset="0" style="stop-color:#EB595D"/>
				<stop  offset="1" style="stop-color:#F6AF95"/>
			</radialGradient>
			<path style="fill-rule:evenodd;clip-rule:evenodd;fill:url(#SVGID_00000130646940142509247820000001595368689398503580_);" d="
				M44.5,33.7c1.7,1.3,4.8,1.3,6.7,0.7C51.9,39.3,44.1,38.7,44.5,33.7z"/>
			<path class="st39" d="M46.1,34.5c0.8,0.2,1.9,0.3,2.8,0.3C48.5,36.4,45.9,35.8,46.1,34.5z"/>
			<path class="st26" d="M51,30.9c0-0.3-0.2-0.6-0.4-0.6c-0.3,0-0.5,0.2-0.5,0.5c0,0.3,0.2,0.6,0.4,0.6C50.8,31.5,51,31.2,51,30.9z"
				/>
			<g>
				<path class="st5" d="M47.7,42.9c0.1-0.1,0.3-0.2,0.5-0.3c0.2-0.1,0.5-0.2,0.7-0.2s0.5,0,0.8,0s0.5,0.2,0.7,0.4s0.3,0.4,0.4,0.8
					s0,0.9-0.2,1.4s-0.5,1-0.8,1.3s-0.6,0.4-1,0.6c-0.5,0.2-1.1,0.3-1.5,0.2s-0.7-0.6-0.9-0.9c-0.2-0.4-0.2-0.6-0.1-1
					c0.1-0.4,0.4-0.8,0.6-1.1c0.2-0.2,0.2-0.3,0.2-0.2s0.1,0.1,0.2,0.2s0.2,0.1,0.4,0c0.2-0.1,0.3-0.2,0.4-0.4
					c0.1-0.2,0.1-0.4,0-0.5C48.1,43,47.9,43,47.7,42.9C47.7,43,47.6,43,47.7,42.9L47.7,42.9z"/>
				<path class="st40" d="M46.2,45.3c0.5-0.1,1,0.1,1.2,0.2c0.1,0.1,0.2,0.1,0.2,0.2c0,0-0.1,0.2-0.2,0.3c-0.1,0.1-0.1,0.3-0.1,0.4
					c0,0.2,0.1,0.3,0.3,0.4c0.2,0.1,0.4,0.2,0.5,0.1c0.2,0,0.3-0.2,0.3-0.3s0-0.4,0-0.6s0-0.1,0.2,0s0.7,0.4,0.9,0.5
					s0.2,0.1-0.1,0.4c-0.3,0.2-1,0.8-1.7,1.2s-1.5,0.7-1.9,0.8c-0.4,0.1-0.4,0.1-0.5-0.1c-0.1-0.2-0.2-0.7-0.3-1.2
					c-0.1-0.5-0.3-1-0.1-1.5S45.7,45.3,46.2,45.3L46.2,45.3z"/>
				<path class="st3" d="M44.1,43.8c-0.1,0.2-0.2,0.4-0.2,0.8c0,0.4,0.1,1.1,0.3,1.9s0.7,1.5,0.9,1.9s0.2,0.4,0.3,0.2
					c0-0.2,0.1-0.7,0.2-0.9s0-0.2,0-0.2c-0.1,0-0.2,0-0.3,0s-0.2-0.2-0.3-0.3s-0.1-0.4,0-0.6s0.2-0.3,0.3-0.3c0.1,0,0.2,0,0.3,0
					s0.1,0.2,0.2,0.3s0,0.1,0.2-0.2c0.1-0.3,0.3-0.8,0.4-1.1c0.1-0.3,0.1-0.3,0.1-0.6c-0.1-0.3-0.2-1-0.5-1.2s-0.8-0.2-1.1-0.1
					S44.3,43.7,44.1,43.8L44.1,43.8z"/>
				<path class="st30" d="M46.3,41.5c0,0.1-0.2,0.2-0.2,0.3c-0.1,0.1,0,0.3,0,0.4c0.1,0.1,0.2,0.1,0.4,0.1c0.2,0,0.3-0.2,0.4-0.3
					c0.1-0.1,0.1-0.2,0.1-0.3c0-0.1,0.1-0.1,0.2,0c0.1,0.1,0.2,0.2,0.3,0.4c0.1,0.2,0.1,0.4,0.1,0.5c0,0.2,0,0.2,0.1,0.3
					c0.1,0,0.4,0,0.5,0.2c0.1,0.2,0,0.6-0.2,0.8s-0.5,0.2-0.7,0.1c-0.2-0.1-0.2-0.3-0.3-0.1c-0.1,0.2-0.4,0.7-0.5,0.9
					s-0.1,0.2-0.3,0.1c-0.2-0.1-0.5-0.2-0.7-0.3s-0.2-0.1-0.1-0.1c0.1,0,0.2-0.1,0.3-0.2c0.1-0.1,0.2-0.3,0.2-0.4
					c0-0.2,0-0.3-0.1-0.3c-0.1-0.1-0.2-0.1-0.3-0.1s-0.2,0-0.3,0.1c-0.1,0.1-0.2,0.2-0.3,0.4c-0.1,0.1-0.1,0.3-0.1,0.3s0,0.1-0.1,0
					s-0.5-0.2-0.7-0.3c-0.2-0.1-0.2-0.1-0.1-0.2c0-0.2,0.2-0.4,0.3-0.7c0.2-0.3,0.4-0.6,0.6-0.9c0.2-0.3,0.4-0.5,0.6-0.6
					c0.2-0.1,0.3-0.2,0.5-0.2C46.1,41.4,46.3,41.5,46.3,41.5L46.3,41.5z"/>
			</g>
			<path class="st26" d="M45.4,30.1c0.1-0.3,0-0.6-0.2-0.7s-0.5,0.1-0.6,0.4s0,0.6,0.2,0.7S45.3,30.4,45.4,30.1z"/>
			
				<linearGradient id="SVGID_00000014591983001082050130000000890952359950256051_" gradientUnits="userSpaceOnUse" x1="64.6994" y1="22.5818" x2="63.1494" y2="24.5818" gradientTransform="matrix(1 0 0 -1 0 74)">
				<stop  offset="0" style="stop-color:#FBC98B"/>
				<stop  offset="1" style="stop-color:#F8E9DA"/>
			</linearGradient>
			
				<path style="fill-rule:evenodd;clip-rule:evenodd;fill:url(#SVGID_00000014591983001082050130000000890952359950256051_);stroke:#CB6E33;stroke-width:0.19;stroke-miterlimit:22.93;" d="
				M63.7,48.9c-0.3,0-0.6,0-0.8,0.1c-0.2,0.1-0.4,0.3-0.6,0.5s-0.2,0.4-0.3,0.6c-0.1,0.2-0.1,0.4-0.1,0.6s0.1,0.5,0.2,0.7
				s0.3,0.3,0.4,0.3s0.3-0.1,0.4-0.2c0.1-0.1,0.1-0.2,0.1-0.2c0,0,0-0.1,0.1,0c0.1,0,0.2,0.2,0.5,0.2c0.3,0.1,0.7,0.1,1.1,0
				c0.4,0,0.8-0.2,1.1-0.3c0.3-0.2,0.4-0.4,0.4-0.7c0-0.3-0.1-0.6-0.4-0.8c-0.3-0.3-0.7-0.5-1.1-0.6S64,48.9,63.7,48.9L63.7,48.9z"
				/>
			<path class="st1" d="M63.2,51.2c0-0.1,0-0.2,0-0.3s-0.2-0.3-0.3-0.5"/>
			<path class="st5" d="M48.3,39.7c-0.1-0.1-0.4-0.2-0.8-0.3s-0.7-0.1-1,0.1c-0.4,0.1-0.8,0.4-1.1,0.7s-0.3,0.5-0.3,0.6
				c0,0.2,0,0.2,0.2,0.2c0.1,0,0.3-0.1,0.5-0.2s0.5,0,0.8,0s0.5,0.1,0.7,0.1s0.5,0,0.8-0.1c0.2-0.1,0.3-0.2,0.4-0.2
				c0.1-0.1,0-0.1,0-0.2c0-0.1,0-0.2,0-0.3C48.5,40,48.5,39.9,48.3,39.7L48.3,39.7z"/>
			<path class="st30" d="M38.1,28.1c0.8-0.1,1.1,0.1,1.4,0.4c0.3,0.3,0.5,0.6,0.6,0.9c0.1,0.3,0,0.6-0.2,0.9
				c-0.2,0.3-0.6,0.7-0.8,0.9c-0.2,0.2-0.3,0.3-0.4,0.3s-0.1,0.1-0.2,0.1s-0.3-0.2-0.4-0.2s-0.1-0.1,0-0.1c0.1-0.1,0.2-0.2,0.3-0.5
				c0.1-0.3,0.1-0.7,0.2-1c0.1-0.3,0.3-0.6,0-0.7c-0.3-0.1-1.2,0-1.9,0.2c-0.7,0.3-1.2,0.7-1.5,0.9c-0.3,0.2-0.6,0.2-0.6,0
				c0-0.3,0.2-0.8,1-1.2C36.2,28.5,37.4,28.2,38.1,28.1z"/>
			
				<linearGradient id="SVGID_00000121255616922450391830000006200146540103820694_" gradientUnits="userSpaceOnUse" x1="38.2532" y1="44.8835" x2="36.1332" y2="46.8435" gradientTransform="matrix(1 0 0 -1 0 74)">
				<stop  offset="0" style="stop-color:#FBC98B"/>
				<stop  offset="1" style="stop-color:#F8E9DA"/>
			</linearGradient>
			
				<path style="fill-rule:evenodd;clip-rule:evenodd;fill:url(#SVGID_00000121255616922450391830000006200146540103820694_);stroke:#CB6E33;stroke-width:0.19;stroke-miterlimit:22.93;" d="
				M38.2,29.8c-0.2,0.1-0.6,0.1-1,0.1s-0.8-0.2-1.1-0.6s-0.6-0.9-0.7-1.3s0-0.9,0.2-1.1s0.4-0.3,0.7-0.4s0.8,0,1.2,0.2
				c0.4,0.2,0.8,0.4,1.1,0.8s0.4,0.7,0.4,1c0,0.3-0.2,0.7-0.3,0.9c-0.1,0.2-0.2,0.3-0.3,0.3S38.4,29.7,38.2,29.8L38.2,29.8z"/>
			<path class="st43" d="M38.4,28.1c-0.2-0.2-0.4-0.3-0.6-0.4s-0.3,0-0.4,0.1c-0.1,0.1-0.2,0.3-0.1,0.4c0,0.2,0.2,0.4,0.5,0.5
				c0.2,0.1,0.5,0.1,0.7,0.1c0.2,0,0.3-0.1,0.4-0.3c0.1-0.2,0.1-0.4,0.1-0.6s0-0.3,0-0.4"/>
			<g>
				<defs>
					<polygon id="SVGID_00000070800705047857977760000001647741596069449383_" points="24.4,39.1 30.9,39.3 30.9,43.2 24.4,43.1 
											"/>
				</defs>
				<clipPath id="SVGID_00000155866944822705375360000008770776638064773529_">
					<use xlink:href="#SVGID_00000070800705047857977760000001647741596069449383_"  style="overflow:visible;"/>
				</clipPath>
				<g style="clip-path:url(#SVGID_00000155866944822705375360000008770776638064773529_);">
					
						<image style="overflow:visible;enable-background:new    ;" width="134" height="69" xlink:href="250E3EE1.png"  transform="matrix(5.111941e-02 0 0 5.111941e-02 24.37 39.5564)">
					</image>
				</g>
			</g>
			<path class="st45" d="M27,40.1c-0.5,0.1-1.2,0.2-1.6,0.2c-0.4,0-0.4,0.1-0.4,0.2c-0.1,0.2-0.2,0.5-0.2,0.8c0,0.4,0.1,0.8,0.1,1
				c0.1,0.2,0.1,0.2,0.8,0.2s1.9,0,2.8-0.1c0.9-0.1,1.4-0.2,1.7-0.2c0.3-0.1,0.3-0.1,0.3-0.4c0-0.3-0.1-0.9-0.2-1.3S30,39.9,30,39.7
				c-0.1-0.2-0.1-0.2-0.4-0.1c-0.3,0.1-0.8,0.2-1.2,0.3C27.9,40,27.6,40,27,40.1L27,40.1z"/>
			<g>
				<defs>
					<polygon id="SVGID_00000090973408474375624860000002612449523117204610_" points="25.3,40.6 26,40.6 26,40.8 25.3,40.8 					
						"/>
				</defs>
				<clipPath id="SVGID_00000055686318448145224280000003722561535924610976_">
					<use xlink:href="#SVGID_00000090973408474375624860000002612449523117204610_"  style="overflow:visible;"/>
				</clipPath>
				<g style="clip-path:url(#SVGID_00000055686318448145224280000003722561535924610976_);">
					
						<image style="overflow:visible;enable-background:new    ;" width="10" height="3" xlink:href="250E3EE7.png"  transform="matrix(7.500000e-02 0 0 7.500000e-02 25.28 40.5925)">
					</image>
				</g>
			</g>
			<path class="st47" d="M25.3,40.7c0.2,0,0.4,0,0.7,0"/>
			<g>
				<defs>
					<polygon id="SVGID_00000054981646720094757470000018364144834181789320_" points="26.5,40.4 27.2,40.4 27.2,40.7 26.5,40.7 
											"/>
				</defs>
				<clipPath id="SVGID_00000150819984540293023770000012029290039139728053_">
					<use xlink:href="#SVGID_00000054981646720094757470000018364144834181789320_"  style="overflow:visible;"/>
				</clipPath>
				<g style="clip-path:url(#SVGID_00000150819984540293023770000012029290039139728053_);">
					
						<image style="overflow:visible;enable-background:new    ;" width="16" height="6" xlink:href="250E3EE2.png"  transform="matrix(4.000000e-02 0 0 4.000000e-02 26.51 40.42)">
					</image>
				</g>
			</g>
			<path class="st47" d="M26.5,40.6c0.2,0,0.4-0.1,0.6-0.1"/>
			<g>
				<defs>
					<polygon id="SVGID_00000010298711966337838650000011747113673809103788_" points="24,39.8 25.2,39.9 25.2,40.8 24,40.8 					
						"/>
				</defs>
				<clipPath id="SVGID_00000066479005106355658660000006247346410356180395_">
					<use xlink:href="#SVGID_00000010298711966337838650000011747113673809103788_"  style="overflow:visible;"/>
				</clipPath>
				<g style="clip-path:url(#SVGID_00000066479005106355658660000006247346410356180395_);">
					
						<image style="overflow:visible;enable-background:new    ;" width="15" height="20" xlink:href="250E3EE3.png"  transform="matrix(5.250000e-02 0 0 5.250000e-02 24.2563 39.85)">
					</image>
				</g>
			</g>
			<path class="st50" d="M25,40.4c0-0.1-0.1-0.2-0.3-0.3c-0.1-0.1-0.3-0.1-0.4-0.1s-0.1,0-0.1,0.1c0,0.1,0,0.3,0,0.4
				c0,0.1,0,0.1,0,0.1c0.1,0,0.2,0,0.3,0c0.1,0,0.3,0.1,0.4,0.1c0.1,0,0.1,0,0.1,0C25,40.6,25,40.5,25,40.4L25,40.4z"/>
			<g>
				<defs>
					<polygon id="SVGID_00000172419621518387337770000010329303578546731699_" points="24.4,40 24.7,40 24.7,40.6 24.4,40.6 					
						"/>
				</defs>
				<clipPath id="SVGID_00000176756873427336604610000006840052343623275162_">
					<use xlink:href="#SVGID_00000172419621518387337770000010329303578546731699_"  style="overflow:visible;"/>
				</clipPath>
				<g style="clip-path:url(#SVGID_00000176756873427336604610000006840052343623275162_);">
					
						<image style="overflow:visible;enable-background:new    ;" width="5" height="8" xlink:href="250E3EEE.png"  transform="matrix(4.800000e-02 0 0 4.800000e-02 24.44 40.088)">
					</image>
				</g>
			</g>
			<path class="st52" d="M24.6,40.1c0,0.1-0.1,0.1-0.1,0.2c0,0.1,0,0.2,0,0.3"/>
			<g>
				<defs>
					<rect id="SVGID_00000165940181830844616960000011692762887749822374_" x="24" y="44.8" width="8.4" height="5.5"/>
				</defs>
				<clipPath id="SVGID_00000168799923917388038660000002430479160946144154_">
					<use xlink:href="#SVGID_00000165940181830844616960000011692762887749822374_"  style="overflow:visible;"/>
				</clipPath>
				<g style="clip-path:url(#SVGID_00000168799923917388038660000002430479160946144154_);">
					
						<image style="overflow:visible;enable-background:new    ;" width="164" height="111" xlink:href="250E3EEF.png"  transform="matrix(5.180180e-02 0 0 5.180180e-02 24.1373 44.84)">
					</image>
				</g>
			</g>
			<path class="st45" d="M30.9,45.5c-0.8,0-2.3,0.1-3.4,0.1c-1.1,0-1.7,0-2.1,0c-0.4,0-0.5-0.1-0.6,0c-0.1,0.1-0.2,0.3-0.3,0.9
				c0,0.6,0.1,1.6,0.1,2.1c0,0.5,0.1,0.5,0.5,0.6c0.4,0.1,1.1,0.3,2.1,0.4c0.9,0.1,2.1,0.1,2.8,0.1c0.8,0,1.1-0.1,1.3-0.2
				c0.2,0,0.2-0.1,0.2-0.3c0-0.2,0.1-0.7,0.2-1.3c0-0.6,0-1.5,0-1.9C31.8,45.5,31.7,45.5,30.9,45.5L30.9,45.5z"/>
			<g>
				<defs>
					<rect id="SVGID_00000044875835121556220140000006607925021864959125_" x="32" y="44.1" width="1.8" height="1.6"/>
				</defs>
				<clipPath id="SVGID_00000042717781356496531570000014811991346235217051_">
					<use xlink:href="#SVGID_00000044875835121556220140000006607925021864959125_"  style="overflow:visible;"/>
				</clipPath>
				<g style="clip-path:url(#SVGID_00000042717781356496531570000014811991346235217051_);">
					
						<image style="overflow:visible;enable-background:new    ;" width="27" height="16" xlink:href="250E3EE4.png"  transform="matrix(6.851852e-02 0 0 6.851852e-02 32.03 44.4169)">
					</image>
				</g>
			</g>
			<path class="st55" d="M32.2,45.4c0.1-0.1,0.3-0.4,0.4-0.6c0.2-0.2,0.3-0.4,0.4-0.4c0.1-0.1,0.1-0.1,0.2,0s0.2,0.3,0.3,0.5
				c0.1,0.1,0.1,0.1-0.1,0.2c-0.2,0.1-0.6,0.3-0.9,0.4C32.2,45.6,32.2,45.5,32.2,45.4L32.2,45.4z"/>
			<g>
				<defs>
					<rect id="SVGID_00000158014391243888696180000007352559742108150167_" x="31.9" y="45.5" width="1.5" height="4.1"/>
				</defs>
				<clipPath id="SVGID_00000003819236387222531560000014504930190832995970_">
					<use xlink:href="#SVGID_00000158014391243888696180000007352559742108150167_"  style="overflow:visible;"/>
				</clipPath>
				<g style="clip-path:url(#SVGID_00000003819236387222531560000014504930190832995970_);">
					
						<image style="overflow:visible;enable-background:new    ;" width="18" height="78" xlink:href="250E3EE5.png"  transform="matrix(5.512821e-02 0 0 5.512821e-02 32.1538 45.53)">
					</image>
				</g>
			</g>
			<path class="st30" d="M32.3,45.7c0.1,0,0.2,0.1,0.4,0.3c0.1,0.2,0.2,0.4,0.3,0.9c0.1,0.5,0.2,1.1,0.2,1.5c0,0.3,0,0.3,0,0.4
				c0,0-0.1,0.1-0.2,0.1c0,0.1-0.1,0.1-0.2,0.2c-0.1,0.1-0.2,0.2-0.3,0.2c-0.2,0-0.3,0.1-0.4,0.1c-0.1,0-0.1,0,0-0.3
				s0.1-0.8,0.1-1.4c0-0.6,0-1.3,0-1.7C32.2,45.7,32.2,45.7,32.3,45.7L32.3,45.7z"/>
			<g>
				<defs>
					<rect id="SVGID_00000085219458446828505620000006060662836504082086_" x="25.6" y="46" width="0.5" height="0.2"/>
				</defs>
				<clipPath id="SVGID_00000077288278013838692450000017554023753691003798_">
					<use xlink:href="#SVGID_00000085219458446828505620000006060662836504082086_"  style="overflow:visible;"/>
				</clipPath>
				<g style="clip-path:url(#SVGID_00000077288278013838692450000017554023753691003798_);">
					
						<image style="overflow:visible;enable-background:new    ;" width="11" height="4" xlink:href="5B0F16BF.png"  transform="matrix(4.000000e-02 0 0 3.000000e-02 25.64 45.965)">
					</image>
				</g>
			</g>
			<path class="st47" d="M25.7,46c0.1,0,0.3,0,0.4,0"/>
			<g>
				<defs>
					<rect id="SVGID_00000160903748668102941930000012465695942280913567_" x="26.5" y="46" width="0.5" height="0.2"/>
				</defs>
				<clipPath id="SVGID_00000147901317730890605250000004260350598305280917_">
					<use xlink:href="#SVGID_00000160903748668102941930000012465695942280913567_"  style="overflow:visible;"/>
				</clipPath>
				<g style="clip-path:url(#SVGID_00000147901317730890605250000004260350598305280917_);">
					
						<image style="overflow:visible;enable-background:new    ;" width="13" height="5" xlink:href="5B0F16BD.png"  transform="matrix(3.200000e-02 0 0 3.200000e-02 26.582 45.98)">
					</image>
				</g>
			</g>
			<path class="st47" d="M26.6,46c0.2,0,0.3,0,0.5,0"/>
			<g>
				<defs>
					<rect id="SVGID_00000042013422708962817790000010672324455904866469_" x="27.6" y="46" width="0.5" height="0.2"/>
				</defs>
				<clipPath id="SVGID_00000162330700774905524610000012007841126020462223_">
					<use xlink:href="#SVGID_00000042013422708962817790000010672324455904866469_"  style="overflow:visible;"/>
				</clipPath>
				<g style="clip-path:url(#SVGID_00000162330700774905524610000012007841126020462223_);">
					
						<image style="overflow:visible;enable-background:new    ;" width="9" height="16" xlink:href="5B0F16BB.png"  transform="matrix(1.562500e-02 0 0 9.374999e-03 27.8397 46.04)">
					</image>
				</g>
			</g>
			<path class="st47" d="M27.6,46.1c0.2,0,0.3,0,0.5,0"/>
			<g>
				<defs>
					<rect id="SVGID_00000087384282988526415820000003006738514809283761_" x="28.8" y="46" width="0.5" height="0.2"/>
				</defs>
				<clipPath id="SVGID_00000097485334828241559440000018256358738751915946_">
					<use xlink:href="#SVGID_00000087384282988526415820000003006738514809283761_"  style="overflow:visible;"/>
				</clipPath>
				<g style="clip-path:url(#SVGID_00000097485334828241559440000018256358738751915946_);">
					
						<image style="overflow:visible;enable-background:new    ;" width="5" height="4" xlink:href="5B0F16B5.png"  transform="matrix(4.000000e-02 0 0 4.000000e-02 28.92 45.98)">
					</image>
				</g>
			</g>
			<path class="st47" d="M28.8,46.1h0.5"/>
			
				<linearGradient id="SVGID_00000165207617697241080350000013491611336965649309_" gradientUnits="userSpaceOnUse" x1="36.6306" y1="39.7166" x2="27.2906" y2="38.1966" gradientTransform="matrix(1 0 0 -1 0 74)">
				<stop  offset="0" style="stop-color:#C4A1A0"/>
				<stop  offset="0.34" style="stop-color:#C49F9D"/>
				<stop  offset="0.53" style="stop-color:#C59C95"/>
				<stop  offset="0.68" style="stop-color:#C89587"/>
				<stop  offset="0.82" style="stop-color:#CB8C73"/>
				<stop  offset="0.94" style="stop-color:#D0805A"/>
				<stop  offset="1" style="stop-color:#D3794A"/>
			</linearGradient>
			<path style="fill-rule:evenodd;clip-rule:evenodd;fill:url(#SVGID_00000165207617697241080350000013491611336965649309_);" d="
				M34.1,40.5c0.2,0.4,0.2,0.6,0.3,1c1.1-1,1.8-2.2,2.3-3.6c3.5-10-10.2-11.5-11.1-6.8c0.3,0.1,0.6,0.2,0.9,0.3c1.7-2.6,5-2.3,7.6-1
				C37.3,32,37.1,37.6,34.1,40.5L34.1,40.5z"/>
			<g>
				<defs>
					<rect id="SVGID_00000168839201751710643740000011343892998347332488_" x="29.7" y="46" width="0.6" height="0.2"/>
				</defs>
				<clipPath id="SVGID_00000073718763407296192300000013817339195601182083_">
					<use xlink:href="#SVGID_00000168839201751710643740000011343892998347332488_"  style="overflow:visible;"/>
				</clipPath>
				<g style="clip-path:url(#SVGID_00000073718763407296192300000013817339195601182083_);">
					
						<image style="overflow:visible;enable-background:new    ;" width="6" height="4" xlink:href="5B0F16B7.png"  transform="matrix(5.000000e-02 0 0 3.750000e-02 29.83 45.95)">
					</image>
				</g>
			</g>
			<path class="st47" d="M29.7,46c0.2,0,0.4,0,0.5,0"/>
			<g>
				<defs>
					<rect id="SVGID_00000054955666871284326060000002219871213707651499_" x="30.8" y="45.9" width="0.5" height="0.2"/>
				</defs>
				<clipPath id="SVGID_00000074424005636500252860000015052760319159365507_">
					<use xlink:href="#SVGID_00000054955666871284326060000002219871213707651499_"  style="overflow:visible;"/>
				</clipPath>
				<g style="clip-path:url(#SVGID_00000074424005636500252860000015052760319159365507_);">
					
						<image style="overflow:visible;enable-background:new    ;" width="5" height="2" xlink:href="5B0F16AA.png"  transform="matrix(0.1 0 0 0.1 30.82 45.88)">
					</image>
				</g>
			</g>
			<path class="st47" d="M30.8,46c0.2,0,0.3,0,0.5,0"/>
			<path class="st64" d="M22.5,49.7c0.9,2.5,10.3,2.1,12.7,2.3c0-0.4-0.1-0.5-0.1-0.9C30.4,51.8,26.1,50.4,22.5,49.7z"/>
			<polygon class="st65" points="36,50.8 36,51.7 35.2,51.9 35.1,51 			"/>
			<path class="st65" d="M39.5,48.5c-1.5,0.7-2.6,1.5-3.7,2.2c0,0.3,0.2,0.7,0.2,1c1.3-0.9,2.5-1.7,3.6-2.8
				C39.6,48.8,39.5,48.7,39.5,48.5L39.5,48.5z"/>
			
				<linearGradient id="SVGID_00000150789908871916372890000003343416397698128024_" gradientUnits="userSpaceOnUse" x1="32.4504" y1="32.2593" x2="40.4904" y2="36.8393" gradientTransform="matrix(1 0 0 -1 0 74)">
				<stop  offset="0" style="stop-color:#4EAD33"/>
				<stop  offset="1" style="stop-color:#D3DF81"/>
			</linearGradient>
			<path style="fill-rule:evenodd;clip-rule:evenodd;fill:url(#SVGID_00000150789908871916372890000003343416397698128024_);" d="
				M34.7,41.2c1,3.2,1.8,6.2,1.1,9.7c1.2-0.8,2.5-1.6,3.7-2.3c-0.6-4.5,0.4-8.3,1.6-12.3c-0.5-4.4-3.6-5.7-6.6-6.6
				C38.6,32.2,37.8,38.2,34.7,41.2L34.7,41.2z"/>
			<path class="st67" d="M34.4,41.2c-0.1,0.1-0.1,0.1,0,0.3c0.1,0.2,0.2,0.5,0.3,0.9c0.1,0.4,0.3,0.9,0.4,1.4
				c0.2,0.5,0.3,1.1,0.4,1.7c0.1,0.6,0.2,1.3,0.2,2.2s0,1.9-0.1,2.5s-0.1,0.7-0.1,0.8c0,0.1,0,0.1,0.1,0c0.1,0,0.3-0.2,0.4-0.2
				c0.1-0.1,0.1-0.1,0.2-0.3c0-0.2,0.1-0.6,0.1-1.2c0-0.7,0-1.7-0.2-2.7c-0.1-1-0.4-2-0.6-2.8s-0.4-1.6-0.5-1.9
				c-0.1-0.4,0-0.4,0-0.6c0.1-0.1,0.2-0.4,0.8-1.2c0.5-0.8,1.4-2.2,1.7-3.5c0.3-1.3,0-2.6-0.3-3.5c-0.3-0.9-0.6-1.5-1-1.9
				s-0.8-0.7-1.1-0.8s-0.3-0.2-0.1,0c0.1,0.1,0.4,0.4,0.7,0.6c0.2,0.3,0.5,0.5,0.6,0.8c0.2,0.3,0.3,0.6,0.5,0.9
				c0.1,0.3,0.3,0.7,0.3,1.2s0.1,0.9,0.1,1.3c0,0.5,0,0.9-0.1,1.3s-0.2,0.7-0.3,1.1c-0.1,0.3-0.2,0.6-0.4,0.9
				c-0.1,0.3-0.3,0.6-0.6,1c-0.3,0.4-0.7,1-1,1.3S34.4,41.2,34.4,41.2L34.4,41.2z"/>
			<polygon class="st68" points="32.7,36.7 39.9,38.8 41.6,37.7 41.9,38.1 40.3,39 42.3,39.4 42.4,40 40.9,39.7 41.9,40.4 
				41.5,40.9 40.4,40.1 40.3,41.2 39.7,41.2 39.7,39.5 32.9,37.5 			"/>
			<path class="st45" d="M33.7,24.1c-2.1,0.7-4.1,2.5-5.9,4.8c1.5,1,3,1.9,4.5,2.9c1.2-1.5,2.6-2.7,4.1-3.2
				C35.8,26.9,34.8,25.4,33.7,24.1L33.7,24.1z"/>
			<path class="st39" d="M30.6,26.9c-0.1,0-0.2,0.1-0.3,0.1s-0.1,0,0.2,0.3c0.3,0.3,1,0.8,1.3,1c0.3,0.3,0.3,0.2,0.7,0.1
				c0.4-0.1,1.2-0.4,1.5-0.5c0.4-0.1,0.4-0.1,0.3-0.2s-0.2-0.2-0.3-0.2c-0.1-0.1,0-0.1,0-0.1c0,0,0-0.1-0.1-0.2
				C34,27.1,33.8,27,33.7,27s-0.2,0-0.2,0c0,0,0,0-0.1-0.1c0-0.1-0.2-0.2-0.2-0.2c0-0.1,0-0.1,0-0.1s0-0.1-0.1-0.2
				c-0.1-0.1-0.2-0.2-0.4-0.2c-0.2,0-0.3-0.1-0.5,0c-0.1,0-0.2,0.1-0.3,0.2c0,0.1,0,0.1,0,0.1c0,0,0,0,0,0.1c0,0-0.1,0.1-0.2,0.1
				c0,0-0.1,0-0.1,0c0,0-0.1,0-0.2-0.1s-0.2,0-0.3,0c-0.1,0-0.2,0-0.3,0.1c-0.1,0-0.1,0.1-0.1,0.1C30.7,26.8,30.7,26.9,30.6,26.9
				L30.6,26.9L30.6,26.9z M31.8,27.2c0.1,0,0.1,0.1,0,0.2s-0.1,0.1-0.2,0.1c-0.1,0-0.2,0-0.4-0.1c-0.1,0-0.2-0.1-0.3-0.2
				s-0.1-0.1-0.1-0.2c0-0.1,0-0.1,0-0.1c0,0,0,0,0.1,0c0,0,0.1,0.1,0.2,0.2c0.1,0,0.3,0.1,0.4,0.1C31.6,27.2,31.7,27.2,31.8,27.2
				L31.8,27.2L31.8,27.2z M32.7,28c0.1,0,0.1,0.1,0.1,0.1c0,0-0.2,0.1-0.3,0.1s-0.3,0-0.4-0.1c-0.1,0-0.2-0.1-0.3-0.1
				s-0.1-0.1-0.1-0.2s0-0.1,0-0.1c0,0,0,0,0.1,0.1C32,28,32.2,28,32.4,28C32.5,28,32.6,27.9,32.7,28L32.7,28L32.7,28z M33.5,27.6
				c0.1,0,0.2,0,0.3,0s0.2,0,0.2,0c0,0,0,0.1,0,0.1c0,0.1-0.1,0.1-0.3,0.2s-0.3,0-0.4,0c-0.1,0-0.3-0.1-0.4-0.2s-0.1-0.2-0.1-0.3
				c0-0.1,0-0.1,0.1,0c0,0,0.1,0.1,0.2,0.1C33.3,27.5,33.4,27.6,33.5,27.6C33.5,27.6,33.5,27.6,33.5,27.6z M32.5,26.8
				c0.1,0,0.2,0,0.3,0c0.1,0,0.1-0.1,0.2,0c0,0,0.1,0.1,0.1,0.1c0,0-0.1,0.1-0.2,0.1c-0.1,0-0.2,0.1-0.4,0.1c-0.1,0-0.3,0-0.4-0.1
				c-0.1-0.1-0.2-0.2-0.2-0.2c0-0.1,0-0.1,0-0.1s0,0,0.1,0c0,0,0.1,0.1,0.2,0.1C32.3,26.8,32.4,26.8,32.5,26.8L32.5,26.8z"/>
			<polygon class="st39" points="30.2,27.2 32,28.7 31.9,29.9 30,28.3 			"/>
			<polygon class="st39" points="32.2,28.8 34.5,28 34.5,29.1 32.1,29.9 			"/>
			<g>
				<g>
					<polygon class="st39" points="28.2,4.3 28.7,8.8 30.2,8.6 29.9,6.1 					"/>
					<polygon class="st39" points="33.8,3.5 32.6,5.9 33,8.2 34.5,8.2 					"/>
					<polygon class="st39" points="29.6,3.2 31,4.9 31.3,7.3 28.1,3.5 					"/>
					<polygon class="st39" points="32.3,2.9 31.3,4.8 31.6,7.3 33.8,2.8 					"/>
					<path class="st39" d="M38.4,3c-0.1,0.4-0.1,0.9-0.2,1.3c-2,0.5-1.1,2.7-0.2,2.8c0,0.5,0,1-0.1,1.4C34.3,7.8,34.9,2.7,38.4,3z"
						/>
					<path class="st39" d="M38.8,3c0,0.4,0,0.9-0.1,1.3c1.9,0.8,0.5,2.8-0.3,2.8c-0.1,0.5-0.2,0.9-0.2,1.4C41.9,8.5,42.3,3.4,38.8,3
						z"/>
					<path class="st39" d="M45.6,4.4c-0.2,0.4-0.3,0.9-0.5,1.3c-1.3,0.1-2,1.4-0.8,2.6c-0.1,0.4-0.3,0.9-0.4,1.4
						C40.8,8.8,41.8,3.6,45.6,4.4L45.6,4.4z"/>
					<path class="st39" d="M46,4.5c-0.2,0.4-0.3,0.8-0.5,1.2c0.5,0.2,0.9,0.6,0.9,1c0.4-0.2,0.9-0.3,1.3-0.4C47.5,5.4,47,4.8,46,4.5
						z"/>
					<path class="st39" d="M44.6,8.5c0.4,0.1,1,0.1,1.4-0.2c0.2,0.3,0.5,0.6,0.7,1c-0.6,0.5-1.5,0.8-2.4,0.4
						C44.4,9.4,44.5,8.9,44.6,8.5L44.6,8.5z"/>
					<polygon class="st39" points="49.7,6.1 47,10.7 48.3,11.5 51,6.7 					"/>
					<polygon class="st39" points="50.2,8.6 49.5,9.8 50.7,10.5 51.4,9.3 					"/>
					<polygon class="st39" points="52.7,7.7 50,12.4 51.3,13.2 54,8.5 					"/>
					<polygon class="st39" points="55.3,9.4 52,13.6 53.2,14.6 56.5,10.3 					"/>
					<polygon class="st39" points="57.8,11.3 53.9,15.1 55,16.2 58.8,12.4 					"/>
					<polygon class="st39" points="56.2,15.6 55.2,16.4 56.8,18 57.7,17.1 					"/>
					<polygon class="st39" points="60.4,19.2 59.2,19.5 60.3,21.1 61.1,20.1 					"/>
					<polygon class="st39" points="57.2,18.2 62.9,17.1 63.8,18.2 60.6,23.2 59.6,21.9 61.8,18.6 58.1,19.5 					"/>
				</g>
				<g>
					<path class="st39" d="M12.9,57.9c-0.5,0.1-0.9,0.2-1.4,0.3c-0.1,0.8,0.4,1.5,1,2c0.3-0.3,0.6-0.6,0.9-0.9
						C13,58.9,13,58.4,12.9,57.9L12.9,57.9z"/>
					<g>
						<polygon class="st39" points="3.2,44.9 8.9,42.7 9.5,44.3 4,46.4 						"/>
						<path class="st39" d="M5.4,46.3c-0.5,0.2-1,0.4-1.5,0.6c1.2,4.2,7.6,2.3,5.7-2.2c-0.4,0.1-0.9,0.3-1.3,0.4
							C9.5,47.7,6,48.7,5.4,46.3z"/>
						<polygon class="st39" points="10.7,47.7 5.7,50.8 6.3,52.2 11.4,49 						"/>
						<polygon class="st39" points="11.7,49.4 10.5,50.2 11.5,51.9 12.7,51.1 						"/>
						<polygon class="st39" points="9.7,50.6 8.6,51.3 9.8,53.4 11,52.7 						"/>
						<polygon class="st39" points="7.7,51.8 6.6,52.5 7.9,55 9.2,54.2 						"/>
						<polygon class="st39" points="12.8,51.3 11.6,52 12,52.6 13.1,51.8 						"/>
						<path class="st39" d="M16.7,58.3c0.5-0.1,0.9-0.2,1.4-0.3c0.1-0.8-0.4-1.5-1-2c-0.3,0.3-0.6,0.6-0.9,0.9
							C16.6,57.3,16.7,57.8,16.7,58.3L16.7,58.3z"/>
						<path class="st39" d="M16.9,55.7c-0.4,0.4-0.7,0.7-1,1.1c-0.6-0.4-1-0.1-0.6,0.7c0.4,0.7,0.9,1.2,1.1,2
							c-0.2,2.2-2.1,2.2-3.6,1.1c0.3-0.3,0.6-0.7,0.8-1c0.5,0.4,1.8,0.4,0.9-0.6C12.3,56.6,14,54,16.9,55.7L16.9,55.7z"/>
						<path class="st39" d="M20.6,58.9c-0.3,0.4-0.5,0.8-0.8,1.2c-2.2-0.4-2.3,2.2-1.5,2.7c-0.2,0.5-0.5,0.9-0.7,1.4
							C14.3,61.9,17.2,57.1,20.6,58.9L20.6,58.9z"/>
						<path class="st39" d="M21,59.1c-0.2,0.4-0.4,0.9-0.6,1.3c1.5,1.7-0.7,3.1-1.5,2.7c-0.3,0.4-0.6,0.9-0.9,1.3
							C21.7,66,24.3,61.1,21,59.1L21,59.1z"/>
						<polygon class="st39" points="23.3,60.6 20.9,66.1 22.4,66.8 24.7,61.1 						"/>
						<path class="st39" d="M25,61.3c-0.2,0.4-0.4,0.8-0.6,1.2c0.6,0.2,1.2,0.4,1.3,0.9c0,0.3,0,0.4-0.2,0.6
							c-0.5,0.5-1.1,0.1-1.6-0.1c-0.2,0.4-0.3,0.8-0.5,1.2c0.1,0.1,0.2,0.2,0.4,0.3c0.1,0.7,0.2,1.4,0.4,2.1
							c0.6,0.2,1.2,0.4,1.9,0.6c-0.2-0.8-0.4-1.6-0.5-2.4c1,0.2,1.8-1.1,2-2.5c0.1-0.5-0.2-0.7-0.4-0.9C26.4,61.8,25.8,61.6,25,61.3
							L25,61.3z"/>
						<polygon class="st39" points="27.6,62.4 26.4,68.3 28,68.7 29.1,62.7 						"/>
						<path class="st39" d="M29.5,62.7c-0.1,0.4-0.2,0.9-0.3,1.3c0.6,0.1,1.3,0.2,1.5,0.6c0.1,0.3,0.1,0.4-0.1,0.6
							c-0.4,0.6-1,0.3-1.6,0.2c-0.1,0.4-0.1,0.8-0.2,1.2c0.1,0.1,0.3,0.2,0.4,0.2c0.2,0.7,0.5,1.3,0.8,2c0.6,0.1,1.3,0.2,2,0.2
							c-0.3-0.8-0.7-1.5-1-2.3c1-0.1,1.7-1.3,1.6-2.7c0-0.5-0.4-0.8-0.7-0.9C30.9,62.9,30.3,62.9,29.5,62.7L29.5,62.7z"/>
						<path class="st39" d="M38.5,65c0.3-0.3,0.6-0.7,0.9-1.1c-0.4-0.7-1.3-1-2.1-0.9c0,0.4-0.1,0.9-0.1,1.3
							C37.8,64.3,38.2,64.7,38.5,65z"/>
						<path class="st39" d="M37,62.8c0,0.5-0.1,1-0.1,1.5c-0.7,0-0.9,0.6,0,0.9c0.8,0.3,1.5,0.4,2.1,0.9c1.3,1.9-0.2,3-2.1,3.1
							c0-0.4,0-0.8,0.1-1.3c0.6,0,1.7-0.8,0.3-1C34,66.4,33.7,63.3,37,62.8z"/>
						<path class="st39" d="M35.3,67c-0.3,0.3-0.6,0.7-0.9,1.1c0.4,0.7,1.3,1,2.1,0.9c0-0.4,0.1-0.9,0.1-1.3
							C35.9,67.7,35.6,67.3,35.3,67z"/>
						<polygon class="st39" points="32.9,63 32.2,68.9 33.8,69 34.5,63.1 						"/>
						<path class="st39" d="M41.8,62.4c0.1,0.5,0.1,1,0.2,1.4c-2,1.1-0.3,3.1,0.6,3c0.1,0.5,0.3,1,0.4,1.5
							C39,68.8,38.1,63.3,41.8,62.4z"/>
						<path class="st39" d="M42.3,62.3c0.1,0.5,0.2,0.9,0.3,1.4c2.2,0.3,1.5,2.8,0.6,3c0.1,0.5,0.1,1,0.2,1.6
							C47.3,67.2,46.1,61.8,42.3,62.3z"/>
						<path class="st39" d="M49.1,61.7c0.2-0.4,0.3-0.9,0.5-1.3c-0.7-0.5-1.5-0.4-2.3-0.1c0.1,0.4,0.2,0.8,0.4,1.2
							C48.2,61.3,48.7,61.6,49.1,61.7z"/>
						<path class="st39" d="M46.9,60.3c0.2,0.5,0.3,1,0.5,1.4c-0.6,0.3-0.6,0.8,0.3,0.8c0.8,0,1.5-0.2,2.3,0.1
							c1.9,1.2,0.9,2.9-0.8,3.6c-0.1-0.4-0.3-0.8-0.4-1.2c0.6-0.2,1.2-1.3-0.1-1C45.4,64.7,43.9,62,46.9,60.3L46.9,60.3z"/>
						<path class="st39" d="M46.9,64.8c-0.2,0.4-0.3,0.9-0.5,1.3c0.7,0.5,1.5,0.4,2.3,0.1c-0.1-0.4-0.2-0.8-0.4-1.2
							C47.7,65.2,47.3,65,46.9,64.8z"/>
					</g>
				</g>
			</g>
			<g>
				<path class="st39" d="M31.7,16.3C31.7,16.3,31.7,16.3,31.7,16.3c-0.1,0.1-0.1,0.1-0.1,0.2c0,0,0,0.1,0,0.1c0,0,0,0.1-0.1,0.1
					c0,0,0,0,0,0c0,0,0,0-0.1,0c0,0-0.1,0-0.1,0c-0.1,0-0.1,0-0.2,0c0,0,0,0,0,0c0,0-0.1,0-0.1-0.1c0,0-0.1-0.1-0.1-0.1c0,0,0,0,0,0
					c0,0,0-0.1-0.1-0.1c0,0-0.1,0-0.1,0l-0.3,0.1c0,0,0,0,0,0c0,0,0,0,0,0c0,0.1,0,0.1,0,0.2c0,0,0,0.1,0,0.1c0,0,0.1,0.1,0,0.2
					c0,0,0,0,0,0.1c-0.1,0.1-0.2,0.1-0.2,0.2c0,0,0,0,0,0c-0.1,0-0.1,0-0.1,0c0,0-0.1,0-0.1,0c0,0-0.1,0-0.1,0c-0.1,0-0.1,0-0.1,0.1
					l-0.1,0.2c0,0,0,0,0,0.1c0,0,0,0.1,0.1,0.1c0,0,0.1,0,0.2,0.1c0,0,0,0,0.1,0c0.1,0,0.1,0.1,0.1,0.1c0,0,0,0,0,0.1
					c0,0,0,0.1,0,0.1c0,0.1,0,0.1,0,0.2c0,0,0,0,0,0c0,0,0,0.1-0.1,0.1c0,0-0.1,0-0.1,0.1c0,0,0,0,0,0c0,0-0.1,0-0.1,0.1
					c0,0,0,0.1,0,0.1c0,0.1,0.1,0.1,0.1,0.2c0,0,0,0.1,0,0.1c0,0,0.1,0,0.1,0c0,0,0.2-0.1,0.2-0.1c0.1,0,0.1,0,0.2,0c0,0,0,0,0,0
					l0,0c0.1,0.1,0.2,0.1,0.2,0.2c0,0,0,0,0,0.1c0,0,0,0.1,0,0.1c0,0,0,0.1,0,0.1c0,0,0,0.1,0,0.1c0,0,0,0.1,0.1,0.1
					c0,0,0.1,0,0.1,0c0,0,0.1,0,0.1,0c0,0,0.1,0,0.1,0c0.1,0,0.1-0.1,0.1-0.1l0.1-0.2c0-0.1,0.1-0.1,0.1-0.1c0,0,0,0,0.1,0
					c0,0,0.1,0,0.1,0c0,0,0.1,0,0.1,0c0,0,0.1,0,0.1,0c0,0,0.1,0,0.1,0c0,0,0,0,0,0.1l0.1,0.1c0,0,0,0,0,0c0,0,0.1,0.1,0.1,0
					c0,0,0.1,0,0.1,0c0,0,0,0,0,0c0,0,0.1,0,0.1,0c0,0,0.1,0,0.1,0c0,0,0.1,0,0-0.1c0,0,0-0.1,0-0.1c0,0,0-0.1,0-0.1
					c0-0.1-0.1-0.1,0-0.2c0,0,0,0,0-0.1c0.1,0,0.2-0.2,0.2-0.2c0,0,0-0.1,0.1-0.1c0,0,0.1,0,0.1,0s0.1,0,0.1,0c0,0,0.1,0,0.1,0
					c0,0,0.1,0,0.1,0c0,0,0.1-0.3,0.1-0.3c0,0,0,0,0-0.1c0,0,0-0.1,0-0.1c0,0,0,0-0.1,0l-0.2-0.1c0,0,0,0,0,0c0,0,0,0,0,0
					c0,0,0,0,0-0.1c0,0,0,0,0-0.1c0-0.1,0-0.2,0-0.3c0,0,0,0,0-0.1c0,0,0.1-0.1,0.1-0.1c0,0,0,0,0,0c0,0,0.1,0,0.1,0s0.1,0,0.1-0.1
					c0,0,0,0,0-0.1c0,0-0.1-0.1-0.1-0.1c0,0-0.1-0.2-0.1-0.2c0,0-0.1,0-0.1,0c0,0-0.1,0-0.1,0c0,0-0.1,0.1-0.2,0.1c0,0-0.1,0-0.1,0
					c0,0,0,0,0,0c0,0,0,0-0.1-0.1c-0.1-0.1-0.1-0.1-0.2-0.2c0,0,0,0,0-0.1c0,0,0-0.1,0-0.1c0,0,0-0.1,0-0.1c0,0,0-0.1,0-0.1
					s0-0.1-0.1-0.1l-0.2-0.1C31.9,16.3,31.8,16.2,31.7,16.3L31.7,16.3L31.7,16.3z M30.4,17.9c0-0.1,0.1-0.3,0.1-0.4
					c0,0,0.1-0.1,0.1-0.2l0,0l0,0l0.1-0.1c0,0,0.1-0.1,0.2-0.1c0.1,0,0.2,0,0.4,0h0c0.1,0,0.3,0.1,0.4,0.1c0,0,0.1,0.1,0.1,0.1
					c0,0,0,0,0,0l0,0l0.1,0.1c0,0,0,0.1,0.1,0.1c0,0.1,0.1,0.3,0,0.5v0c0,0.2-0.1,0.4-0.2,0.5c0,0,0,0-0.1,0.1l-0.1,0.1c0,0,0,0,0,0
					c0,0,0,0,0,0c-0.1,0-0.1,0.1-0.2,0.1c-0.2,0.1-0.5,0-0.8-0.1c0,0,0,0-0.1,0c0,0,0,0,0,0c0,0,0,0-0.1-0.1l0,0l-0.1-0.1l0,0l0,0
					c0,0,0-0.1,0-0.1c0,0,0-0.1-0.1-0.2C30.4,18.2,30.3,18,30.4,17.9L30.4,17.9z"/>
				<path class="st39" d="M31.3,18.6c0.3,0,0.5-0.2,0.5-0.5s-0.2-0.5-0.5-0.5s-0.5,0.2-0.5,0.5S31,18.6,31.3,18.6z"/>
			</g>
			<path class="st39" d="M39.3,19.3c-0.1,0-0.2-0.1-0.3-0.2s-0.4-0.2-0.7-0.2c-0.2,0-0.5,0-0.6,0.1c-0.1,0-0.1,0-0.1,0.1
				c0,0.1,0.1,0.2,0.1,0.3s0,0.1,0.1,0.1s0.2,0,0.2,0c0.1,0,0.2,0,0.3,0.1s0.2,0.2,0.2,0.3s0,0.2,0,0.3c-0.1,0.1-0.2,0.2-0.3,0.2
				c-0.1,0-0.1,0,0,0.2c0.1,0.2,0.3,0.6,0.4,0.8c0.1,0.2,0.1,0.2,0.2,0.2s0.2,0,0.3,0c0.1,0,0.2,0,0.3,0.1s0.1,0.2,0.1,0.4
				c0,0.1-0.1,0.2-0.2,0.3c-0.1,0.1-0.1,0.1-0.2,0.1c0,0,0,0,0,0c0,0,0,0.1,0.1,0.1s0,0,0.1,0c0.1-0.1,0.3-0.2,0.4-0.3
				c0.1-0.1,0.2-0.2,0.2-0.3s0-0.1,0.1-0.1c0.1,0,0.2-0.1,0.4-0.4s0.2-0.5,0.2-0.8s-0.1-0.5-0.2-0.7s-0.3-0.4-0.5-0.5
				s-0.4-0.2-0.5-0.2C39.4,19.3,39.4,19.3,39.3,19.3L39.3,19.3L39.3,19.3z M40.3,20.4c0.2,0,0.2,0,0.2,0.1c0,0.1,0,0.3,0,0.4
				c0,0.2-0.1,0.4-0.2,0.5c-0.1,0.1-0.2,0.2-0.2,0.3c0,0,0,0-0.1-0.1s-0.2-0.5-0.3-0.7c-0.1-0.2-0.1-0.2,0-0.2S40.1,20.5,40.3,20.4
				L40.3,20.4L40.3,20.4z M39.4,19.6c0.2,0.1,0.4,0.2,0.6,0.3s0.2,0.2,0.3,0.3c0,0,0,0.1-0.1,0.1c-0.1,0-0.4,0.2-0.5,0.2
				c-0.1,0-0.1,0-0.2-0.1c-0.1-0.1-0.2-0.5-0.3-0.6c-0.1-0.2-0.1-0.2,0-0.3C39.2,19.5,39.3,19.5,39.4,19.6L39.4,19.6z"/>
			<path class="st39" d="M38.4,19.9c0-0.2-0.1-0.4-0.3-0.4c-0.2,0-0.4,0.1-0.4,0.3c0,0.2,0.1,0.4,0.3,0.4
				C38.2,20.2,38.4,20.1,38.4,19.9z"/>
			<path class="st39" d="M39.4,22.1c0-0.2-0.1-0.4-0.3-0.4c-0.2,0-0.3,0.1-0.4,0.3c0,0.2,0.1,0.4,0.3,0.4
				C39.2,22.5,39.4,22.3,39.4,22.1z"/>
			<path class="st69" d="M14.9,26.9C14.9,26.9,14.9,26.8,14.9,26.9C14.9,26.8,14.9,26.9,14.9,26.9C14.9,26.9,14.9,26.9,14.9,26.9
				C14.9,26.9,14.9,26.9,14.9,26.9z"/>
			<path class="st39" d="M14.6,25.4c-0.1-0.1-0.1-0.2-0.3-0.3c-0.1-0.1-0.4-0.1-0.6,0c-0.2,0.1-0.4,0.2-0.5,0.4s-0.1,0.4-0.1,0.6
				c0,0.2,0.1,0.3,0.2,0.4c0.1,0.1,0.2,0.2,0.2,0.2c0,0.1-0.1,0.1-0.3,0.2c-0.1,0.1-0.3,0.1-0.4,0.2c-0.1,0.1-0.1,0.3-0.1,0.5
				c0,0.2,0.2,0.5,0.3,0.6c0.2,0.1,0.4,0.2,0.5,0.1s0.3-0.1,0.4-0.2s0.1-0.1,0.2-0.1c0.1,0,0.1,0.1,0.1,0.2c0,0.1,0,0.3,0.1,0.4
				c0.1,0.1,0.2,0.2,0.4,0.3c0.2,0,0.4,0.1,0.6,0c0.2-0.1,0.4-0.3,0.5-0.5c0.1-0.2-0.1-0.4-0.1-0.5c0-0.1,0.1-0.2,0.2-0.1
				s0.3,0.1,0.5,0.1c0.2,0,0.4-0.2,0.5-0.5s0-0.5,0-0.7c-0.1-0.2-0.2-0.3-0.3-0.3c-0.1,0-0.3,0-0.4,0c-0.1,0-0.2-0.1-0.2-0.2
				s0.1-0.2,0.2-0.4c0.1-0.1,0.1-0.3,0-0.5c-0.1-0.2-0.3-0.3-0.4-0.4s-0.4-0.1-0.6-0.1s-0.3,0-0.4,0.1s-0.1,0.2-0.2,0.3s0,0.2,0,0.2
				S14.7,25.5,14.6,25.4L14.6,25.4L14.6,25.4z M16,26.7c0.1,0.7-0.3,1.3-0.9,1.4c-0.6,0.1-1.2-0.4-1.3-1c-0.1-0.7,0.3-1.3,0.9-1.4
				C15.3,25.6,15.9,26.1,16,26.7z"/>
			<path class="st69" d="M15.4,26.8c0-0.3-0.3-0.5-0.5-0.4s-0.4,0.3-0.4,0.5s0.3,0.5,0.5,0.4C15.2,27.3,15.4,27.1,15.4,26.8z"/>
			<path class="st39" d="M22.5,24.7c-0.2-0.1-0.6,0-0.8,0.1c-0.2,0.1-0.3,0.2-0.3,0.3c0,0,0.2,0,0.4,0c0.2,0,0.4-0.1,0.5-0.1
				c0.1,0,0.2,0,0.1,0.4s-0.3,1-0.4,1.4s-0.2,0.7-0.2,0.9s0,0.2,0.2,0.4c0.2,0.1,0.5,0.4,0.8,0.5c0.3,0.1,0.5,0.1,0.6,0
				c0.1-0.1,0.2-0.3,0.2-0.5c0-0.2-0.2-0.4-0.3-0.5c-0.1-0.1-0.2,0-0.4,0c-0.1,0-0.2,0-0.4,0c-0.1,0-0.2,0-0.3-0.1
				c-0.1,0-0.1-0.1,0-0.2s0.2-0.4,0.3-0.8s0.2-0.8,0.3-1.1C22.6,25,22.6,24.8,22.5,24.7L22.5,24.7z"/>
			<path class="st39" d="M24.4,24c-0.2,0-0.6,0.1-0.9,0.2c-0.2,0.1-0.3,0.2-0.2,0.2c0,0,0.2,0,0.4,0c0.2,0,0.4-0.1,0.5-0.1
				c0.1,0,0.1,0.1,0.1,0.2s0,0.2-0.2,0.2c-0.1,0-0.4,0-0.5,0.1c-0.2,0-0.4,0.2-0.4,0.3s-0.1,0.2,0.1,0.2s0.5,0,0.6-0.1
				s0.2,0,0.2,0.3c-0.1,0.3-0.2,0.9-0.3,1.2c-0.1,0.3-0.1,0.4,0,0.5s0.2,0.1,0.4,0.2s0.4,0.2,0.6,0.3c0.2,0,0.3,0,0.4-0.1
				c0.1-0.1,0.1-0.4,0-0.5c-0.1-0.2-0.2-0.3-0.3-0.3c-0.1,0-0.3,0-0.4,0c-0.1,0-0.1,0-0.2,0c-0.1,0-0.2-0.1-0.2-0.1
				c-0.1,0-0.1,0,0-0.2c0-0.2,0.2-0.6,0.3-0.9c0.1-0.4,0.2-0.8,0.3-1.1S24.6,24.1,24.4,24L24.4,24z"/>
			<path class="st39" d="M9.5,18.5c0-0.1,0-0.4-0.1-0.6s-0.3-0.3-0.4-0.3c-0.2,0-0.4,0-0.6,0.2c-0.2,0.2-0.6,0.6-0.7,1
				s-0.1,0.9,0.1,1.3c0.2,0.4,0.5,0.8,0.9,1.1s1,0.4,1.4,0.4c0.4,0,0.7-0.3,0.9-0.5s0.3-0.5,0.3-0.9c0-0.3-0.1-0.8-0.3-1
				s-0.4-0.5-0.7-0.6c-0.2-0.1-0.4,0-0.5,0c-0.1,0.1-0.2,0.1-0.2,0.1C9.5,18.7,9.6,18.6,9.5,18.5L9.5,18.5L9.5,18.5z M10,18.8
				c0.2,0,0.4,0.2,0.4,0.4s-0.2,0.3-0.4,0.3c-0.2,0-0.4-0.2-0.4-0.4S9.8,18.8,10,18.8L10,18.8z M10.6,19.6c0.2,0,0.4,0.2,0.4,0.4
				s-0.2,0.3-0.4,0.3c-0.2,0-0.4-0.2-0.4-0.4S10.4,19.6,10.6,19.6L10.6,19.6z M10.2,20.5c0.2,0,0.4,0.2,0.4,0.4s-0.2,0.3-0.4,0.3
				c-0.2,0-0.4-0.2-0.4-0.4S9.9,20.5,10.2,20.5L10.2,20.5z M9.1,20.5c0.2,0,0.4,0.2,0.4,0.4s-0.2,0.3-0.4,0.3
				c-0.2,0-0.4-0.2-0.4-0.4S8.9,20.5,9.1,20.5L9.1,20.5z M8.4,19.8c0.2,0,0.4,0.2,0.4,0.4s-0.2,0.3-0.4,0.3c-0.2,0-0.4-0.2-0.4-0.4
				S8.2,19.8,8.4,19.8L8.4,19.8z M8.1,18.9c0.2,0,0.4,0.2,0.4,0.4s-0.2,0.3-0.4,0.3c-0.2,0-0.4-0.2-0.4-0.4S7.9,18.9,8.1,18.9
				C8.1,18.9,8.1,18.9,8.1,18.9z M9.2,18.1c0.1,0.3-0.1,0.5-0.2,0.5c-0.2,0-0.4-0.1-0.4-0.4s0.1-0.5,0.2-0.5
				C9,17.7,9.2,17.9,9.2,18.1z"/>
			<path class="st70" d="M22.4,14.9c-0.4-1.4-1.1-2.4-1.5-2.2c-0.4,0.1-0.4,1.3,0,2.7c0.4,1.4,1.1,2.4,1.5,2.2
				C22.8,17.4,22.8,16.2,22.4,14.9z"/>
			<path class="st70" d="M21.9,15.9c1.4-0.4,2.5-1.1,2.3-1.6c-0.1-0.4-1.4-0.4-2.8,0s-2.5,1.1-2.3,1.6
				C19.2,16.3,20.4,16.3,21.9,15.9z"/>
			<path class="st69" d="M22,13.6c0.1-0.2,0-0.5-0.2-0.6s-0.5,0-0.6,0.2c-0.1,0.2,0,0.5,0.2,0.6S21.9,13.8,22,13.6z"/>
			<path class="st69" d="M22.1,15.1c0-0.2-0.2-0.4-0.5-0.4s-0.5,0.2-0.5,0.4s0.2,0.4,0.5,0.4S22.1,15.3,22.1,15.1z"/>
			<path class="st69" d="M20.7,16.1c0-0.2-0.1-0.4-0.4-0.5c-0.2,0-0.5,0.1-0.5,0.4c0,0.2,0.1,0.4,0.4,0.5
				C20.4,16.5,20.6,16.4,20.7,16.1z"/>
			<path class="st39" d="M45.4,21c0.5,0.3,1,0.6,1.5,1C45.1,24.6,43.5,22.8,45.4,21L45.4,21z M44.9,22.3c0,0.6,0.1,0.6,0.8,0.5
				C45.4,22.7,45.1,22.5,44.9,22.3L44.9,22.3z M46.3,22.2c0.1-0.1,0.1-0.2,0-0.3c-0.1-0.1-0.2-0.1-0.3,0c-0.1,0.1-0.1,0.2,0,0.3
				C46.1,22.3,46.2,22.3,46.3,22.2L46.3,22.2z M45.7,21.8c0.1-0.1,0-0.2,0-0.3c-0.1-0.1-0.2,0-0.3,0.1c-0.1,0.1,0,0.2,0,0.3
				C45.4,21.9,45.6,21.9,45.7,21.8z"/>
			<path class="st71" d="M34,35c1-1.3,0.6-2.5-0.4-3.3s-3.6-0.2-4.1,1c-0.6,1.3-0.5,2.7,1.1,3.3C31.8,36.5,33,36.3,34,35L34,35z"/>
			<path class="st72" d="M32.5,33.5c0.1-0.4,0.1-0.7-0.1-0.8c-0.2,0-0.4,0.2-0.5,0.6s-0.1,0.7,0.1,0.8
				C32.2,34.2,32.4,33.9,32.5,33.5z"/>
			<path class="st72" d="M31.5,33.3c0.1-0.4,0-0.7-0.1-0.7c-0.1,0-0.3,0.3-0.4,0.6s0,0.7,0.1,0.7C31.3,34,31.5,33.7,31.5,33.3z"/>
			<path class="st72" d="M30.1,33.9c0.8,0.9,2.1,0.8,3.2,0.7C32.5,36,30.1,36.1,30.1,33.9z"/>
			<path class="st73" d="M28.7,28.1c-0.1,0.1-0.4,0.3-0.4,0.3l1.8,2.1C30.2,30.5,28.7,28.1,28.7,28.1z"/>
			<polygon class="st73" points="28.2,28.5 27.9,28.7 29.1,31 			"/>
			<polygon class="st73" points="27.2,29.6 27,29.9 28.9,31.2 			"/>
			<polygon class="st74" points="30.8,29.9 30.1,31.1 28.5,31.5 29.4,32.5 30.2,31.5 31.5,31.1 			"/>
			<polygon class="st74" points="34.7,32.7 34.8,34.1 34.2,35.3 35.2,35.5 35.1,34.1 36.1,32.7 			"/>
			<polygon class="st73" points="35.8,33.5 37.3,32.3 37.8,33.1 			"/>
			<polygon class="st73" points="35.7,33.7 37.6,34.1 37.3,34.8 			"/>
			<polygon class="st73" points="35.4,34.2 37.6,35.2 36.8,35.8 			"/>
			<polygon class="st73" points="35.5,34.8 35.9,36.8 36.8,36.7 			"/>
			<polygon class="st68" points="24.6,36 19.1,33.2 18.5,31.4 18,31.5 18.6,33.2 17,32.2 16.6,32.5 18,33.3 16.5,33.3 16.5,34 
				17.9,34 17.2,34.9 17.8,35.3 18.8,34 24.3,36.7 			"/>
			<path class="st71" d="M28,33.9c0.7-1.6,0.1-2.8-1.1-3.4s-3.8,0.5-4.1,1.9c-0.4,1.5,0.1,2.9,1.8,3.2C26,35.9,27.3,35.4,28,33.9z"
				/>
			<path class="st72" d="M26.2,32.6c0-0.4-0.1-0.8-0.3-0.8c-0.2,0-0.3,0.3-0.4,0.7c0,0.4,0.1,0.8,0.3,0.8C26,33.3,26.2,33,26.2,32.6
				z"/>
			<path class="st72" d="M25.1,32.6c0-0.4-0.1-0.8-0.3-0.7c-0.1,0-0.3,0.3-0.3,0.7c0,0.4,0.1,0.8,0.3,0.7C25,33.4,25.1,33,25.1,32.6
				z"/>
			<path class="st72" d="M23.7,33.5c1,0.8,2.4,0.4,3.5,0.1C26.6,35.2,24.2,35.8,23.7,33.5z"/>
			<path class="st69" d="M44.9,29.6c0,0,0.1,0.1,0.1,0.2s-0.1,0.1-0.1,0.1c0,0-0.1-0.1-0.1-0.2S44.9,29.6,44.9,29.6z"/>
			<path class="st69" d="M50.4,30.4c0,0,0.1,0.1,0,0.2c0,0.1-0.1,0.1-0.1,0.1s-0.1-0.1,0-0.2C50.3,30.5,50.4,30.4,50.4,30.4z"/>
			<path class="st26" d="M56.1,30.7c0.4,1.6,1.1,3.3,2.1,4.7c0.8-1.3,1-3.1,0.9-4.6C58,30.9,57.2,30.9,56.1,30.7z"/>
			
				<linearGradient id="SVGID_00000106867688768217245770000007874614867732266682_" gradientUnits="userSpaceOnUse" x1="36.6688" y1="28.3325" x2="38.7188" y2="29.2625" gradientTransform="matrix(1 0 0 -1 0 74)">
				<stop  offset="0" style="stop-color:#A1DAF8"/>
				<stop  offset="1" style="stop-color:#12B4EA"/>
			</linearGradient>
			<path style="fill-rule:evenodd;clip-rule:evenodd;fill:url(#SVGID_00000106867688768217245770000007874614867732266682_);" d="
				M37.6,43.3c-0.3,0.1-0.6,0.1-0.8,0.1s-0.2,0-0.1,0.1s0.1,0.4,0.2,0.8c0,0.4,0,1-0.1,1.4s-0.1,0.8,0,1c0.1,0.3,0.3,0.5,0.6,0.6
				c0.3,0.1,0.6,0,0.9-0.3c0.2-0.3,0.4-0.7,0.5-1.2s0.1-1.1,0-1.6c0-0.5-0.1-0.9-0.1-1.1c0-0.2,0-0.2-0.2-0.1S37.9,43.3,37.6,43.3
				L37.6,43.3z"/>
			<path class="st65" d="M38.4,43.1c-0.1,0-0.3,0.1-0.6,0.1s-0.5,0.1-0.7,0.1c-0.2,0-0.4,0-0.4,0c-0.1,0-0.1,0-0.1,0
				c0,0,0,0.1,0,0.2c0,0.1,0,0.2,0.1,0.3s0,0.1,0.1,0.1c0.1,0,0.2,0,0.5-0.1c0.2,0,0.5-0.1,0.7-0.1s0.5-0.1,0.5-0.1
				c0.1,0,0.1,0,0.1-0.1c0-0.1,0-0.2-0.1-0.3S38.5,43.1,38.4,43.1L38.4,43.1z"/>
			<g>
				<defs>
					<polygon id="SVGID_00000094599804651164493980000012787127936730442666_" points="27.8,40.2 28.5,40.2 28.5,40.5 27.8,40.5 
											"/>
				</defs>
				<clipPath id="SVGID_00000106848230161233241450000000867882176125518208_">
					<use xlink:href="#SVGID_00000094599804651164493980000012787127936730442666_"  style="overflow:visible;"/>
				</clipPath>
				<g style="clip-path:url(#SVGID_00000106848230161233241450000000867882176125518208_);">
					
						<image style="overflow:visible;enable-background:new    ;" width="2" height="10" xlink:href="5B0F16AB.png"  transform="matrix(2.800000e-02 0 0 2.800000e-02 28.042 40.23)">
					</image>
				</g>
			</g>
			<path class="st47" d="M27.8,40.4c0.2,0,0.4-0.1,0.6-0.1"/>
			<g>
				<defs>
					<polygon id="SVGID_00000123403565545167024720000004855572356847258509_" points="29,40 29.7,40 29.7,40.3 29,40.3 					"/>
				</defs>
				<clipPath id="SVGID_00000070089267811000797420000002015314485819729055_">
					<use xlink:href="#SVGID_00000123403565545167024720000004855572356847258509_"  style="overflow:visible;"/>
				</clipPath>
				<g style="clip-path:url(#SVGID_00000070089267811000797420000002015314485819729055_);">
					
						<image style="overflow:visible;enable-background:new    ;" width="4" height="8" xlink:href="5B0F16AD.png"  transform="matrix(3.500000e-02 0 0 3.500000e-02 29.21 40)">
					</image>
				</g>
			</g>
			<path class="st47" d="M29,40.2c0.2,0,0.4-0.1,0.6-0.1"/>
			<path class="st78" d="M22.9,44.1c0.1,0.1,0.2,0.4,0.5,0.6c0.2,0.2,0.5,0.4,0.7,0.5s0.4,0.2,0.3,0.2s-0.5,0-0.7-0.1
				c-0.3-0.1-0.5-0.2-0.5-0.2S23,45.1,23,44.9c0-0.1-0.1-0.4-0.1-0.6C22.9,44.2,22.9,44.1,22.9,44.1L22.9,44.1z"/>
			<path class="st79" d="M34.8,44.5c0,0.1-0.1,0.5-0.3,0.8c-0.2,0.3-0.4,0.5-0.6,0.7c-0.2,0.2-0.3,0.2-0.2,0.2
				c0.1,0,0.4-0.1,0.7-0.2c0.3-0.1,0.4-0.2,0.5-0.3c0.1-0.1,0.1-0.1,0.1-0.2c0-0.2,0-0.4-0.1-0.6S34.9,44.4,34.8,44.5L34.8,44.5z"/>
			<path class="st5" d="M48.5,39c0,0.1,0,0.4,0,0.5c0,0.1,0.1,0.2,0.3,0.2c0.3,0,0.8,0.2,1.1,0.2s0.4,0,0.5,0s0.3-0.3,0.5-0.4
				c0.1-0.1,0.2-0.2,0-0.2c-0.2,0-0.6-0.1-1-0.2c-0.4-0.1-0.8-0.2-1-0.2C48.6,38.9,48.5,38.9,48.5,39L48.5,39z"/>
			<path class="st5" d="M49.7,39.8c0.2,0,0.4,0,0.7,0.2c0.3,0.2,0.7,0.4,1,0.8s0.7,0.8,0.9,1.1s0.3,0.7,0.3,0.8c0,0.2,0,0.3-0.1,0.3
				c0,0-0.1,0-0.3-0.1c-0.2-0.1-0.5-0.3-0.8-0.5s-0.5-0.3-0.8-0.4c-0.2-0.1-0.4-0.2-0.6-0.4c-0.2-0.2-0.4-0.5-0.5-0.7
				s-0.2-0.3-0.2-0.4c0,0,0-0.1,0-0.1c0-0.1,0.1-0.2,0.1-0.3C49.4,40,49.5,39.9,49.7,39.8L49.7,39.8z"/>
			<path class="st80" d="M49.1,39.6c-0.2,0-0.3,0-0.5,0s-0.2,0.1-0.3,0.1c-0.1,0.1-0.1,0.1-0.1,0.3c0,0.1,0,0.3,0,0.4s0,0.2,0.1,0.2
				c0.1,0,0.2-0.1,0.2-0.1c0.1,0,0.2-0.1,0.3-0.1c0.1,0,0.2,0,0.2,0c0.1,0,0.1,0.1,0.2,0c0,0,0.1-0.2,0.1-0.3s0.1-0.2,0.2-0.2
				s0-0.1-0.1-0.2C49.4,39.6,49.3,39.6,49.1,39.6L49.1,39.6z"/>
		</g>
	</g>
</g>
</svg>
