<?xml version="1.0" encoding="UTF-8"?>
<svg id="Camada_2" data-name="Camada 2" xmlns="http://www.w3.org/2000/svg" viewBox="0 0 906.45 901.51">
  <defs>
    <style>
      .cls-1 {
        fill: #e71c29;
      }

      .cls-2 {
        fill: #feca58;
      }

      .cls-3 {
        fill: #39b54a;
      }

      .cls-4 {
        fill: none;
      }

      .cls-5 {
        fill: #03a1d2;
      }
    </style>
  </defs>
  <g id="Camada_2-2" data-name="Camada 2">
    <g>
      <path class="cls-4" d="m847.69,387.53c-8.97-3.22-18.24-5.35-27.53-6.41,9.44,1.18,18.6,3.22,27.53,6.41Z"/>
      <path class="cls-4" d="m553.7,527.06c6.58-17.77-2.15-22.56-21.47-22.44-33.54.22-67.08.3-100.61.24-.15,0-.3,0-.45,0-18.64-.04-37.29-.11-55.93-.25-19.96-.16-27.45,5.46-21.04,22.69,9.29,24.96,18.54,49.94,27.77,74.92.07.19.14.37.21.56,11.25,30.47,22.47,60.94,33.68,91.42.7,1.89,1.39,3.78,2.09,5.67,10.81,29.41,21.62,58.81,32.45,88.22,2.58-.02,5.17-.04,7.75-.05,9.92-27.13,19.81-54.27,29.71-81.41.69-1.9,1.39-3.81,2.08-5.71,21.15-57.98,42.33-115.95,63.76-173.85Z"/>
      <path class="cls-4" d="m296.33,523.05c-6.05-16.56-20.77-18.63-38.25-18.5-44.94.33-89.9-.19-134.84.28-10.62.11-25.57-4.75-30.89,5.01-5.45,10,9.14,15.84,16.13,22.48,80.32,76.21,160.95,152.19,241.61,228.14,12.05,11.35,24.73,22.23,37.11,33.32,2.36-1.28,4.72-2.56,7.08-3.85-12.57-34.21-25.14-68.41-37.72-102.62-.48-1.1-.89-2.23-1.25-3.41-19.7-53.61-39.39-107.22-58.99-160.86Z"/>
      <path class="cls-4" d="m548.44,264.2c-.93,1.84-1.86,3.67-2.79,5.51.02,0,.05,0,.07,0,.91-1.84,1.82-3.67,2.73-5.51Z"/>
      <path class="cls-1" d="m356.58,687.31c-.42-1.14-.84-2.27-1.25-3.41.36,1.18.78,2.32,1.25,3.41Z"/>
      <path d="m512.07,336.8c-.1-.13-.19-.27-.29-.4-7.37,14.54-14.7,29.1-22,43.67.03.04.06.08.09.12,7.45-14.44,14.85-28.9,22.2-43.39Z"/>
      <path d="m526.62,307.98c6.4-12.74,12.77-25.49,19.1-38.27-.02,0-.05,0-.07,0-6.47,12.76-12.96,25.52-19.44,38.27.14,0,.28,0,.41,0Z"/>
      <path class="cls-2" d="m363.52,688.89c14.89,17.58,33.96,11.41,52.33,5.31-11.21-30.48-22.43-60.96-33.68-91.42-4.93,9.94-9.85,19.88-14.74,29.84-8.69,17.64-19.52,37.85-3.92,56.28Z"/>
      <path class="cls-2" d="m454.28,473.42c-2.13,0-4.26,0-6.39,0-5.45,10.47-10.88,20.95-16.28,31.45,33.54.06,67.08-.02,100.61-.24,19.32-.13,28.05,4.67,21.47,22.44-21.43,57.9-42.6,115.88-63.76,173.85,12.48,8.71,22.77,21.7,29.98,38.56,2.66,6.19,4.36,12.32,5.39,18.43,28.73-77.91,57.5-155.81,86.02-233.77.77-2.1,1.67-3.99,2.68-5.72-29.52-15-59.02-30.04-88.61-44.89-23.71-.11-47.42-.02-71.12-.11Z"/>
      <path class="cls-2" d="m892.13,444.18c-14.57-18.5-30-38.08-44.45-56.65-8.93-3.19-18.09-5.23-27.53-6.41-6.9-.79-13.82-1-20.62-.61-9.12.51-18.03,2.09-26.46,4.67,15.07,24.88,29.75,50.03,49.91,71.88,9.92,10.75,1.94,16.12-10.81,16.11-31.44-.02-62.88-.02-95.42-.02.49,2.04,1.06,4.1,1.71,6.18,2.61,8.34,5.72,16.73,7.33,25.27,22.91-.03,45.82-.08,68.74-.03,15.67.03,31.98,1.78,14.31,18.56-94.05,89.29-188.7,178.13-283.17,267.11-.25,2.5-.54,5.01-.86,7.54-1.6,12.86-4.74,25.53-10.22,37.27-2.61,5.57-5.53,10.91-8.93,16.13-5.08,7.94-11.29,15.14-18.08,21.72-11.74,11.41-22.77,22.42-38.84,28.42,16.94,1.51,33.97-5.61,52.45-20.79,8.94-7.34,17.44-15.08,25.76-22.93,118.88-112.26,237.34-224.84,356.8-336.66,26.58-24.88,30.39-48.81,8.38-76.75Z"/>
      <path class="cls-3" d="m669.59,308.09c7.58.04,17.26-1.8,18.97,9.03-2.16,4.12-3.27,7.55-5.45,10.18-29.03,34.91-51.7,73.65-74.91,112.08-6.69,11.08-13.86,15.74-23.46,1.74-23.96-34.93-47.99-69.84-72.68-104.31-7.35,14.49-14.75,28.95-22.2,43.39,17.72,24.79,36.81,48.79,55.16,73.2,10.82,14.39,6.75,20.3-11.12,20.18-1.4,0-2.81-.01-4.21-.02,28.37,14.56,56.83,28.95,85.38,43.14,5.97-8.79,15.62-12.36,29.58-12.25,26.08.2,52.16.2,78.24.17-1.44-6-3.57-12.07-5.54-18.04-1.5-4.54-2.64-9.02-3.45-13.42-24,0-48.61,0-74.27,0-4.48,0-7.14-5.01-4.64-8.72,30.4-45.08,57.65-85.59,85.09-125.99,7.77-11.44,15.71-7.96,22.62.99,10.92,14.13,20.32,29.19,29.52,44.37,9.13-2.64,18.17-3.46,27.29-3.29,7.35-.57,13.27-.31,20.39.58.08,0,.16.02.23.03,9.29,1.06,18.57,3.19,27.53,6.41-20.18-25.94-40.09-52.02-59.27-78.46-20.54-28.32-48.52-40.04-87.02-39.7-51.89.45-103.78.42-155.68.34-6.33,12.78-12.7,25.53-19.1,38.27,47.66-.12,95.32-.11,142.98.11Z"/>
      <path class="cls-3" d="m799.53,380.51c6.8-.38,13.72-.18,20.62.61-.08,0-.16-.02-.23-.03-7.12-.89-13.04-1.15-20.39-.58Z"/>
      <path class="cls-3" d="m614.01,518.42c.35-.59.7-1.18,1.08-1.73-28.55-14.19-57.02-28.58-85.38-43.14-1.43,0-2.86-.01-4.3-.02,29.59,14.85,59.09,29.89,88.61,44.89Z"/>
      <path class="cls-3" d="m772.24,383.8c.28.46.56.92.83,1.38,8.43-2.58,17.34-4.16,26.46-4.67-9.12-.16-18.16.65-27.29,3.29Z"/>
      <path class="cls-3" d="m717.36,486.57c1.97,5.96,4.1,12.03,5.54,18.04.97,0,1.93,0,2.9,0-1.61-8.53-4.72-16.92-7.33-25.27-.66-2.08-1.22-4.14-1.71-6.18-.95,0-1.9,0-2.85,0,.81,4.4,1.95,8.88,3.45,13.42Z"/>
      <path class="cls-5" d="m62.67,483.65c40.84,20.45,91.89,16.16,121.98-10.58.22-.19.43-.39.64-.59h-95.45c-5.33,0-8.67-5.77-6.01-10.39,24.43-42.59,54.43-78.43,80.49-116.49,4.59-6.71,12.82-14.62,22.32-1.07,3.53,5.03,7.08,10.06,10.64,15.09.1-20.86,12.46-34.09,31.74-35.16-.27-.4-.53-.8-.8-1.2-9.51-14.34,2.75-15.03,12.8-15.07,52.96-.18,105.91-.1,163.31-.09,5.17,0,8.44,5.56,5.92,10.07-13.66,24.45-29.53,45.95-45.64,66.6,12.91,6.54,25.82,13.06,38.76,19.55,12.07-17.41,24.22-34.76,36.74-51.87,8.8-12.03,17.8-20.26,30.99.23,5.97,9.28,12.23,18.39,18.67,27.4,7.29-14.57,14.63-29.13,22-43.67-2.08-2.91-4.17-5.82-6.26-8.73-12.23-16.95-2.77-19.63,12.22-19.68,2.82,0,5.64-.01,8.46-.02,6.48-12.76,12.97-25.51,19.44-38.27-30.59-.05-61.18-.12-91.77-.12-82.51-.08-165.02.34-247.53-.26-38.46-.28-66.06,11.52-86.44,40.24-30.08,42.41-64.01,82.88-95.9,124.38-2.54,3.31-4.88,6.44-7.02,9.41,1.96,2.31,3.75,4.92,5.57,7.54,10.7,13.43,24.4,24.9,40.12,32.75Z"/>
      <path class="cls-1" d="m511.01,838.7c7.29-14.6,11.36-30.51,12.36-46.28-1.72,1.62-3.44,3.24-5.16,4.86-2.09-1.03-4.18-2.07-6.27-3.1,3.41-9.27,6.83-18.53,10.25-27.79-2.91-18.26-10.22-35.14-21.74-48.07-4.02-4.51-8.22-8.4-12.59-11.69-9.9,27.14-19.8,54.28-29.71,81.41-2.58.02-5.17.04-7.75.05-10.83-29.4-21.64-58.81-32.45-88.22-7.6,2.49-15.26,4.91-23.06,5.75-18.89,2.07-32.59-5.14-38.31-18.31,12.57,34.21,25.15,68.41,37.72,102.62-2.36,1.28-4.72,2.56-7.08,3.85-12.39-11.1-25.06-21.98-37.11-33.32-80.67-75.95-161.29-151.93-241.61-228.14-7-6.64-21.59-12.48-16.13-22.48,5.32-9.75,20.27-4.9,30.89-5.01,44.94-.47,89.9.05,134.84-.28,17.48-.13,32.19,1.94,38.25,18.5,19.6,53.64,39.29,107.25,58.99,160.86-1.99-6.46-2.28-14.09-.58-22.6,1.44-7.12,4.5-14.08,7.81-20.62,6.44-12.83,12.92-25.65,19.41-38.47-9.23-24.98-18.47-49.96-27.77-74.92-6.41-17.23,1.08-22.85,21.04-22.69,18.64.15,37.28.22,55.93.25,5.24-10.47,10.44-20.95,15.62-31.45-21.63-.02-43.26-.13-64.89.07-15.01.13-25.28-1.97-13.34-18.98,10.77-15.34,21.39-30.77,32.06-46.17-12.93-6.67-25.88-13.3-38.86-19.89-11.6,14.79-23.26,29.22-34.23,44.05-9.02,12.18-20.31,5.74-26.73-3.3-23.44-33-46.25-66.4-68.65-100.06-7.21-.15-14.4,1.92-21.34,7.79-9.07,7.68-11.73,16.49-11.34,25.75,22.48,31.61,45.79,63.35,71.01,98.05,3.56,4.9.06,11.76-5.99,11.76h-74.73c-7.72,7.52-17.38,13.88-28.87,18.8-19.31,8.28-37.95,7.3-57.55,4.84-12.7-1.58-25.2-4.68-36.78-10.09-5.5-2.58-10.77-5.46-15.92-8.82-7.84-5.01-14.95-11.15-21.43-17.84-2.46-2.53-4.57-5.5-6.64-8.47-1.95-2.45-3.82-4.96-5.57-7.54-.07.1-.1.14-.11.15-27.24,37.04-21.15,49.78,15.67,84.54,74,69.85,147.52,140.06,221.55,209.9,50.74,47.86,101.07,96.07,153.34,142.73,10.53,9.4,20.7,15.54,30.8,18.58,29.76-8.05,57.88-30.67,72.77-60.56Z"/>
      <path class="cls-2" d="m447.89,473.41c-.37,0-.74,0-1.11,0-5.18,10.49-10.38,20.98-15.62,31.45.15,0,.3,0,.45,0,5.4-10.5,10.83-20.98,16.28-31.45Z"/>
      <path class="cls-1" d="m363.52,688.89c-15.61-18.43-4.77-38.64,3.92-56.28,4.89-9.96,9.81-19.9,14.74-29.84-.07-.19-.14-.37-.21-.56-6.49,12.81-12.97,25.63-19.41,38.47-3.31,6.54-6.37,13.51-7.81,20.62-1.71,8.51-1.42,16.15.58,22.6.42,1.14.84,2.27,1.25,3.41,5.72,13.17,19.42,20.38,38.31,18.31,7.8-.85,15.46-3.27,23.06-5.75-.7-1.89-1.39-3.78-2.09-5.67-18.38,6.1-37.45,12.27-52.33-5.31Z"/>
      <path class="cls-1" d="m505.67,851.18c3.4-5.22,6.32-10.55,8.93-16.13,5.48-11.73,8.63-24.4,10.22-37.27.32-2.53.61-5.04.86-7.54-.77.73-1.54,1.45-2.31,2.18-1,15.77-5.07,31.69-12.36,46.28-14.89,29.89-43,52.51-72.77,60.56,3.51,1.06,7,1.74,10.51,2.06,16.07-6,27.11-17.01,38.84-28.42,6.78-6.58,13-13.77,18.08-21.72Z"/>
      <path class="cls-1" d="m519.92,739.47c-7.22-16.87-17.5-29.86-29.98-38.56-.69,1.9-1.39,3.81-2.08,5.71,4.37,3.29,8.57,7.18,12.59,11.69,11.52,12.93,18.83,29.81,21.74,48.07,1.04-2.83,2.08-5.65,3.13-8.48-1.02-6.11-2.73-12.24-5.39-18.43Z"/>
      <path class="cls-5" d="m16.88,443.51c.04-.05.07-.1.11-.15.31-.44-.14.19-.11.15Z"/>
      <path class="cls-5" d="m197.29,359.61c.72,1.02,1.45,2.04,2.17,3.05-.38-9.25,2.27-18.06,11.34-25.75,6.94-5.87,14.13-7.95,21.34-7.79-1.04-1.56-2.07-3.11-3.11-4.67-19.29,1.07-31.64,14.3-31.74,35.16Z"/>
      <path class="cls-5" d="m364.63,384.77c-.96,1.23-1.92,2.45-2.88,3.67,12.97,6.59,25.93,13.22,38.86,19.89.93-1.34,1.85-2.68,2.78-4.01-12.93-6.48-25.85-13.01-38.76-19.55Z"/>
      <path class="cls-5" d="m184.65,473.07c-30.09,26.74-81.14,31.02-121.98,10.58-15.71-7.85-29.42-19.32-40.12-32.75,2.07,2.97,4.17,5.93,6.64,8.47,6.49,6.69,13.59,12.83,21.43,17.84,5.15,3.36,10.42,6.24,15.92,8.82,11.58,5.41,24.09,8.51,36.78,10.09,19.6,2.46,38.24,3.44,57.55-4.84,11.49-4.92,21.15-11.28,28.87-18.8h-4.45c-.22.2-.42.39-.64.59Z"/>
      <path class="cls-5" d="m16.88,443.51s.03-.04.11-.15c-.04.05-.07.1-.11.15Z"/>
      <path class="cls-5" d="m16.99,443.37c1.75,2.57,3.61,5.08,5.57,7.54-1.82-2.61-3.61-5.23-5.57-7.54Z"/>
      <path d="m427.08,18.79s0,.01,0,.02c.13-.16.26-.32.39-.48-.13.16-.26.31-.39.46Z"/>
      <path class="cls-3" d="m454.25,165.79c18.24-.49,25.35-12.38,26.17-25.82,1.14-18.73.29-37.55.29-56.33-.04,0-.08,0-.11,0,0-19.82,1.03-39.7-.36-59.45-.96-13.61-9.42-24.61-27.81-24.17-2.7.06-5.19.41-7.49.97-6.34,5.13-12.21,10.95-17.46,17.34-.13.16-.26.32-.39.48-.23,1.23-.38,2.5-.42,3.8-1.07,39.62-1.17,79.28-.15,118.9.35,13.61,9.54,24.78,27.73,24.29Z"/>
      <path class="cls-5" d="m438.49,6.33c1.74-1.69,3.46-3.36,5.18-5.02-9.26,2.67-15.05,9.23-16.58,17.48.13-.16.26-.31.39-.46,3.41-4.22,7.12-8.22,11.02-12Z"/>
      <path class="cls-5" d="m427.47,18.33c5.24-6.39,11.12-12.21,17.46-17.34-.42.1-.85.21-1.26.33-1.72,1.65-3.44,3.33-5.18,5.02-3.9,3.78-7.6,7.78-11.02,12Z"/>
      <path class="cls-3" d="m746.47,233.82c14.21,12.52,30.15,8.85,43.2-1.47,22.75-17.99,44.42-36.94,66.3-55.69,6.25-5.35,10.18-11.94,10.4-19.73.17-9.28-4.5-16.48-14.36-20.46-12.79-5.17-24.98-2.41-34.61,5.38-23.4,18.94-46.62,38.08-68.87,57.96-11.26,10.07-14.75,22.84-2.06,34.01Z"/>
      <path class="cls-5" d="m46.08,171.92c24.85,21.82,49.46,44.12,76.97,63.4,18.59,13.02,41.99,2.53,42.86-17.66-.48-1.91-.3-5.44-2.14-7.9-22.79-30.41-52.76-55.06-88.49-74.43-11.38-6.17-21.43.65-29.02,8.13-9.39,9.25-9.8,20.01-.17,28.46Z"/>
    </g>
  </g>
</svg>