<?xml version="1.0" encoding="UTF-8"?>
<svg id="Camada_2" data-name="Camada 2" xmlns="http://www.w3.org/2000/svg" viewBox="0 0 889.79 840.53">
  <defs>
    <style>
      .cls-1 {
        fill: #e71c29;
      }

      .cls-2 {
        fill: #feca58;
      }

      .cls-3 {
        fill: #39b54a;
      }

      .cls-4 {
        fill: #03a1d2;
      }
    </style>
  </defs>
  <g id="Camada_2-2" data-name="Camada 2">
    <g>
      <path class="cls-3" d="m466.95,407.42c.83-1.35,1.47-2.68,1.85-3.99-.61,1.33-1.23,2.66-1.85,3.99Z"/>
      <path class="cls-3" d="m670.5,538.64c-1.37.04-2.75,0-4.13-.13-.33.86-.64,1.71-.97,2.57,1.72-.79,3.4-1.62,5.09-2.44Z"/>
      <path class="cls-1" d="m426.15,494.92c-1.87-1.57-3.85-3.34-5.94-5.29"/>
      <path class="cls-1" d="m370.66,598.52c1.77.83,3.56,1.63,5.36,2.41"/>
      <path class="cls-1" d="m382.84,394.84c1.62-.97,3.22-1.71,4.79-2.24"/>
      <path class="cls-1" d="m279.79,334.21c-.68,1.4-1.35,2.81-1.99,4.23"/>
      <path class="cls-2" d="m830.86,383.89c-19.32-10.33-41.03-14.45-61.51-12.66-20.79,1.82-40.3,9.72-54.75,23.43-22.26,21.14-29.16,47-20.15,77.61,3.02,10.28,6.72,20.64,7.79,31.24.69,6.83.28,12.99-1.09,18.38-4.64,18.29-20.34,27.58-41.75,22.97-6.87-1.49-13.59-4.66-19.9-8.08-11.57-6.22-23.13-12.47-34.68-18.74-32,57.13-91.05,96.59-157.33,97.3-25.26.27-49.42-4.88-71.49-14.41-4.49,9.66-8.96,19.33-13.41,29.02-5.3,11.49-11.43,24.06-11.26,36.54,23.74,5.55,48.27,9.5,73.66,11.68,30.43,1.25,60.46-.52,89.98-6.27,145.91-28.43,261.78-112.68,362.81-224.22,2.03-2.24,3.77-4.45,5.25-6.63-10.46-23.71-29.06-44.81-52.18-57.15Z"/>
      <path class="cls-3" d="m491.79,168.25c2.66-.89,5.33-1.84,8.01-2.77-19.23-2.43-38.79-3.37-58.7-2.58-1.3.05-2.59.13-3.89.19,15.93,10.23,34.12,12.02,54.58,5.16Z"/>
      <path class="cls-3" d="m689.89,530.26c1.32-1.24,2.48-2.5,3.52-3.78-7.41,4.29-15.04,8.35-22.92,12.16,6.6-.2,13.13-2.52,19.39-8.38Z"/>
      <path class="cls-3" d="m768.87,371.56c20.48-1.79,42.68,2,62,12.33,23.13,12.34,41.72,33.44,52.18,57.15,1.97-2.88,3.48-5.71,4.56-8.5.02.04.05.09.07.13,5.71-14.92-.65-28.72-13.39-43.03-50.73-56.97-107.65-105.48-171.22-144.96-46.58-28.93-95.01-52.77-145.73-67.1,3.53,7.58,4.51,17.27,2.41,28.4-1.4,7.34-4.36,14.51-7.56,21.26-4.21,8.94-8.44,17.87-12.68,26.8,54.14,34.09,90.41,96.36,90.54,167.73.06,32.65-8.04,63.73-22.25,91.07-.04-.02-.08-.04-.12-.06-.92,1.77-1.88,3.53-2.86,5.27,11.55,6.26,23.11,12.52,34.68,18.74,6.32,3.42,13.03,6.58,19.9,8.08,21.27,4.58,36.9-4.57,41.65-22.62.03-.02.06-.04.1-.06,1.37-5.39,1.78-11.55,1.09-18.38-1.07-10.6-4.77-20.95-7.79-31.24-9.01-30.61-2.11-56.47,20.15-77.61,14.44-13.71,33.96-21.61,54.75-23.43"/>
      <path class="cls-4" d="m202.9,449.61c10.28-17.35,12.24-37.23,5.64-59.68-.92-3.14-1.91-6.29-2.86-9.45-3.55,23.31-4.5,46.28-2.77,69.13Z"/>
      <path class="cls-4" d="m557.34,177.28c-11.94-2.55-13.19-2.47-36.12-8.02-7.02-1.7-19.58-4.13-21.42-3.79-2.79.51-5.35,1.88-8.01,2.77-20.46,6.87-38.65,5.07-54.58-5.16-4.06.19-8.1.42-12.12.71-167.79,11.96-298.96,104.77-413.03,231.57,5.76,33.52,28.78,66.25,60.06,82.95,22.81,12.2,48.97,15.74,72.48,11.1-22.58-17.77-43.61-37.53-63.39-59.14-6.79-7.41-6.6-15.51.61-22.36,43.04-40.88,86.66-80.93,147.9-113.69-3.19,8.05-6.11,16.03-8.76,23.95,6.4-2.29,14.05-2.67,22.61-.83,6.87,1.49,13.59,4.66,19.9,8.08,5.44,2.92,10.87,5.86,16.3,8.79,30.55-62.82,93.2-107.65,163.12-108.12,32.42-.22,62.92,8.28,89.53,23.41,2.39,1.36,4.75,2.77,7.08,4.23,4.24-8.93,8.47-17.86,12.68-26.8,3.2-6.75,6.17-13.92,7.56-21.26,2.1-11.13,5.77-26.65-2.41-28.4Z"/>
      <path class="cls-1" d="m370.66,598.52c-64.63-30.45-110.09-98.98-110.54-178.64-.16-28.77,6.24-56.44,17.68-81.44.65-1.42,1.31-2.83,1.99-4.23-5.43-2.93-10.86-5.87-16.3-8.79-6.32-3.42-13.03-6.58-19.9-8.08-8.57-1.84-19.82-5.36-22.61.83-5.93,13.15-8.8,20.18-12.52,40.68-1.24,6.82-2.82,14.35-2.78,21.63.02,3.3,1.94,6.31,2.86,9.45,6.61,22.45,4.65,42.33-5.64,59.68.14,1.88.31,3.75.49,5.63,2.68,28.17,9.43,56.2,20.45,84.51-26.66-13.29-51.35-28.91-74.43-46.6-1.61-1.23-3.21-2.48-4.8-3.73-23.52,4.63-49.67,1.09-72.48-11.1-31.29-16.69-54.31-49.42-60.06-82.95-.36.4-.73.8-1.09,1.2-1.45,1.62-2.76,3.24-3.91,4.85-11.23,15.63-8.69,30.9,4.93,45.79,95.42,104.28,202.16,185.37,332.76,217.7,2.19.54,4.38,1.07,6.58,1.58-.17-12.48,5.96-25.05,11.26-36.54,4.45-9.68,8.93-19.35,13.41-29.02-1.8-.78-3.59-1.58-5.36-2.41Z"/>
      <path class="cls-3" d="m711.95,61.2c-11.15-5.27-22.56-3.82-30.34,5.8-15.7,19.41-28.59,41.15-35.43,65.97-3.36,12.18,1.36,23.2,10.91,31.04,9.43,7.74,21.27,11.42,30.71,3.93,24.12-19.12,35.34-47.63,44.37-73.56-1.28-17.95-8.4-27.58-20.23-33.17Z"/>
      <path class="cls-2" d="m661.79,673.38c-11.43,6.63-19.54,17.52-16.36,31.07,6.6,28.1,19.98,53.14,40.24,72.64,8.53,8.21,20.35,8,30.72.94,9.85-6.7,15.66-16.06,15.42-32.44-7.95-24.22-20.29-49.57-39.28-70.19-8.22-8.92-20.23-8.11-30.73-2.02Z"/>
      <path class="cls-1" d="m445.52,840.53c35.29.23,29.38-32.17,30.83-57.05-1.85-25.21,6.05-56.76-29.59-62.61-22.17-3.64-32.99,18.35-32.71,62.77.16,25.53-2.52,56.66,31.47,56.88Z"/>
      <path class="cls-1" d="m317.76,736.01c4.27-13.62-1.38-25.3-12.27-33.29-10.64-7.81-23.03-11.43-33.14-1.07-19.04,19.51-30.07,44.7-39.11,68.16-1.1,16.65,3.17,28.15,14.66,35.3,11.65,7.24,24.07,6.31,33.25-3.76,16.89-18.52,28.93-40.87,36.61-65.34Z"/>
      <path class="cls-3" d="m475.79,61.2c0-8.51.3-17.03-.06-25.52C474.84,14.99,466.43.25,445.45,0c-21.3-.25-29.4,15.32-30.73,35.42-.98,14.82-.97,29.8-.17,44.63,1.15,21.38,9.24,38.22,32.12,37.32,20.98-.83,28.38-16.71,29.2-37.03.26-6.37.04-12.76.04-19.14-.04,0-.07,0-.11,0Z"/>
      <path class="cls-4" d="m262.59,154.4c8.67,10.92,20.71,12.6,32.81,6.78,12.05-5.79,17.82-16.46,17.88-35.6-8.48-22.53-19.07-48.93-40.44-67.93-9.33-8.3-20.83-7.05-30.78.17-12,8.71-17.31,21.75-12.48,36.2,7.4,22.13,18.75,42.44,33.01,60.39Z"/>
      <path class="cls-2" d="m454.47,435.01c2.38,2.87,6.03,5.46,11.05,8.09,10.97,5.75,21.91,11.57,32.85,17.4-.18.2-.35.39-.53.59-4.87,5.35-9.82,10.62-14.76,15.89-27.61,29.42-36.15,35.4-56.92,17.94,7.05-14.62,14.15-29.22,21.3-43.78,3.21-6.53,6.5-12.91,6.17-17.24l.85,1.12Z"/>
      <path class="cls-3" d="m572.63,355.23c-3.35-13.37-15.49-19.14-28.27-19.97-10.93-.71-21.93-.15-32.91-.15,0-.07,0-.15,0-.22-3.49,0-6.98-.05-10.48-.1-10.82,22.84-21.58,45.71-32.18,68.65-.38,1.31-1.02,2.63-1.85,3.99-.82,1.78-1.65,3.56-2.47,5.35-4.07,8.85-8.03,13.75-13.24,15.03.34,2.66,1.41,5.02,3.22,7.21,2.38,2.87,6.03,5.46,11.05,8.09,10.97,5.75,21.91,11.57,32.85,17.4.92-1.03,1.82-2.06,2.71-3.07,8.99-10.3,16.32-18.42,30.6,1.68,12.58,17.71,34.03,11.01,40.51-9.5,9.62-30.43,8.27-63.17.45-94.39Z"/>
      <path class="cls-1" d="m453.62,433.89c-.2-2.59-.84-3.96-2.38-6.09-4.01.28-10.76-1.01-16.76-4.38-17.17-9.61-34.39-19.13-51.64-28.59-1.49.89-3.01,1.97-4.54,3.27-20.92,17.76-39.23,39.29-57.24,60.57-8.94,10.56-7.49,24.25,1.46,35.14,10.18,12.4,22.9,12.15,35.21,4.16,6.71-4.36,12.95-10.21,18.06-16.61,11.32-14.18,20.54-15.44,34.37-1.54,3.67,3.68,6.98,6.93,10.05,9.8,2.09,1.95,4.07,3.72,5.94,5.29,7.05-14.62,14.15-29.22,21.3-43.78,3.21-6.53,6.5-12.91,6.17-17.24Z"/>
      <path class="cls-4" d="m449.24,428.11c.69-.05,1.36-.15,2.01-.31-.16-1.24-.16-2.55,0-3.94-1.52.75-3.01,1.23-4.48,1.46.97.91,1.79,1.84,2.48,2.8Z"/>
      <g>
        <path class="cls-4" d="m492.45,334.7c-4.64-.01-9.28.04-13.91.31-13.61.78-25.82,5.28-31.16,20.4-5.5,15.56.2,27.54,13.05,34.91,1.55.89,2.86,1.77,3.96,2.64-2.94,6.04-5.89,12.08-8.85,18.11-2.46,4.99-3.9,9.17-4.3,12.8-.15,1.39-.15,2.7,0,3.94,5.2-1.28,9.17-6.18,13.24-15.03.82-1.78,1.65-3.56,2.47-5.35.61-1.33,1.23-2.66,1.85-3.99,10.6-22.94,21.36-45.81,32.18-68.65-2.85-.04-5.69-.07-8.53-.08Z"/>
        <path class="cls-4" d="m446.76,425.31c-7.56,1.13-14.57-4.4-21.82-12.84-.11-.13-.22-.25-.33-.38-10.37-12.17-22.71-24.32-36.98-19.5-1.57.53-3.17,1.27-4.79,2.24,17.25,9.45,34.47,18.97,51.64,28.59,6,3.37,10.75,4.96,14.76,4.68-.69-.96-1.52-1.89-2.48-2.8Z"/>
      </g>
    </g>
  </g>
</svg>