<?xml version="1.0" encoding="UTF-8"?>
<svg id="Camada_2" data-name="Camada 2" xmlns="http://www.w3.org/2000/svg" viewBox="0 0 358.84 416.8">
  <defs>
    <style>
      .cls-1 {
        fill: #fec6a0;
      }

      .cls-2 {
        fill: #e71c29;
      }

      .cls-3 {
        fill: #feca58;
      }

      .cls-4 {
        fill: #39b54a;
      }

      .cls-5 {
        fill: #d18561;
      }

      .cls-6 {
        fill: #03a1d2;
      }

      .cls-7 {
        fill: #ffdbc2;
      }
    </style>
  </defs>
  <g id="Camada_1-2" data-name="Camada 1">
    <g id="Camada_1-2" data-name="Camada 1-2">
      <g>
        <path class="cls-1" d="m56.8,122.77c-1.23,3.1-1.36,6.41-1.99,9.63-.7,3.59-2.01,6.9-7,5.08-2.74-1-7.37-.14-8.07-2.79-1.56-5.9-5.29-11.55-3.53-18.13,1.77-6.64,3.71-13.24,5.18-19.95.6-2.71,2.18-7.02-.72-8.11-3.31-1.24-2.79,3.58-4.15,5.57-3.26,4.76-4.38,10.71-8.28,15.2-2.11,2.43-4.66,3.4-7.54,2.23s-3.92-3.64-3.82-6.85c.37-12.06,3.28-23.4,8.37-34.34,8.19-17.63,18.7-33.73,30.61-49.05,4.45-5.73,8.39-11.86,13.34-17.22.97-1.05,1.72-2.45,1.71-4.04h62.98c.51,3.71-.45,7.59.85,12.07,2.36-4.43,1.99-8.29,2.15-12.07h7c.4,6.29-.45,12.63,1.02,18.88.31,1.32.53,2.44,1.52,3.51,9.85,10.67,14.54,23.77,16.17,37.79,1.16,9.94,6.47,17.79,11.22,25.78,5.44,9.16,7.65,18.61,6.96,28.95-.14,2.15-.3,5.35-3.03,5.72-4.33.59-8.99,1.53-12.64-2.41-1.72-1.86-2.39-4.87-5.55-5.2,1.17-1.91.5-4.04-.23-5.59-3.14-6.71-4.63-14.17-9.03-20.31-1.41-3.51-3.96-4.86-7.78-5.82-2.09-.53-3.18-1.04-6.1-.58-2.07.36-3.98.85-6,1.83-5.25,2.55-7.29,6.92-9.45,11.9-8.65,19.91-9.74,40.71-7.93,61.87.24,2.76,1.16,5.1-1.74,6.81-2.66-.07-5.32-.02-7.97-.22-4.77-.36-8.57-1.26-11-5.64-.65-1.18,0,0-1.22-4.87-1.72-5.05-4.13-9.94-3.2-15.54.47-2.87.84-5.76,1.25-8.65,1.36-1.55.86-3.42.92-5.2-.03-.99-.06-1.97-.08-2.96-.13-3.35.69-6.83-1.75-10.01-.48,1.68-.96,3.36-1.44,5.04-1.41,6.53-3.37,12.94-3.88,19.64-.08,5.35-.17,10.71-.25,16.06-2.11,9.79-4.02,11.02-14,9.26-1.27-.22-2.6-.05-3.91-.06-6.21-6.69-6.62-15.05-6.77-23.48,1.63-8.17,1.32-16.65,4.11-24.64,1.64-4.71,3.25-9.43,3.34-14.55-5.46,7.61-6.77,16.63-8.65,25.46h0Zm6.13-103.76c-5.66,3.63-7.44,9.88-10.23,15.44,4.25-4.59,7.67-9.74,10.18-15.5,4.2-1.66,6.72-4.72,7.52-9.19-2.36,3.19-6.04,5.29-7.47,9.24h0Z"/>
        <path class="cls-5" d="m243.86,416.8c-9.1-8.72-16.81-18.5-23.53-29.21-3.62-5.77-10.08-8.97-15.2-13.4-3.64-3.15-7.27-6.25-10.56-9.8-1.99-2.14-1.52-3.65-.33-5.59,1.69-1.56,3.33-3.17,5.07-4.68,5.89-5.09,4.1-6.92-1.1-11.12-1.63-1.32-3.61-2.37-5.89-2.33,9.17-2.07,14.79,3.75,20.04,9.55,3.22,3.55,5.85,7.62,9.86,10.43,3.5,2.45,6.74,5.09,11.09,6.37,3.62,1.06,6.05.45,8.38-2.11,1.51-.7,1.93-2.16,2.43-3.56,5.69-5.32,6-11.64,5-19.06-.96-7.13-.56-14.47-2.27-21.58-.26-1.09.1-2.4-1.5-2.69.11-1.48.58-3.02.28-4.41-2.23-10.43-8.34-19.14-12.81-28.58.32-2.74-3.61-6.59,2.06-7.94,2.63,9.09,2.82,9.18,11.72,6.05,2.34-.82,4.73-1.44,7.24-1.38.63-.05,1.26-.1,1.9-.15,6.71,6.44,9.57,14.77,11.55,23.54.57,2.52.86,5.26,3.5,6.73-1.93,2.65.67,4.18,1.51,6.16.23-2.1,1.42-4.27-.56-6.13,2-6.08-.95-11.57-2.09-17.26-1.24-6.19-5.5-11.45-5.68-18,2.1,1.19,4.51,2.22,6.59.78,5.2-3.57,10.69-2.62,16.26-1.7.66.31,1.32.61,1.98.92,4.25,4.32,6.2,9.45,6.2,15.56,0,3.41.77,6.83,3,9.67-.72,7.25.57,14.31,1.92,21.38,1.58-7.31-.31-14.5-.68-21.73-.28.1-.57.19-.85.29.36-3.92.34-7.76-.49-11.69-.64-3.01-2.26-6.05-.93-9.3.34-.13.68-.25,1.02-.38.62.17,1.24.34,1.86.5.27,1.97-.26,4.58,2.99,4.43,3.74-.17,7.46-.52,11.19-.79,3.78,1.14,5.44,2.73,5.31,7.59-.11,3.93,2.9,8.91,2.76,12.61-.22,5.95,2.28,11.3,1.84,17.04.44,4.53.87,9.07,1.31,13.6l1.67.04c-.85-5.02,1.66-9.62.78-14.65,1.12-6.24.9-12.56,1.12-18.85.14-3.86,1.24-7.38,5.19-9.18-.08,3.13-.21,6.26-.21,9.38,0,1.05-.04,2.93,1.61,2.22,3.29-1.41,6.12.72,9.18.6,3.08,12.63,4.17,25.35,2.09,38.27-1.2,7.44-1.68,15.04-3.38,22.36-3.27,14.05-7.22,27.95-10.8,41.93-.77,3.02-1.12,6.15-1.67,9.23h-86.97v.02Z"/>
        <path class="cls-5" d="m136.89,0c-.16,3.78.21,7.64-2.15,12.07C133.44,7.59,134.4,3.71,133.89,0h3Z"/>
        <path class="cls-6" d="m172.1,148.13c.51,1.84.61,3.69.2,5.56h.02c-5.32,1.11-10.86,1.59-15.33,5.22-3.66-1.93-7.32.03-10.7.7-2.92.58-6.81-1.4-8.75,1.79-1.69,2.79,1.16,5.54,1.42,8.42.46,5.05-4.17,10.37-11.01,12.73-14.2,4.89-20.05-2.07-21.2-13.26-.39-3.77,2.84-4.28,4.57-6.17,2.89-1.71,1.97-4.05,1.73-6.8-1.82-21.16-.72-41.96,7.93-61.87,2.16-4.98,4.2-9.35,9.45-11.9,2.02-.98,3.92-1.47,6-1.83,1.92-.46,10.92-1.46,13.88,6.4,4.41,6.14,5.89,13.59,9.03,20.31.73,1.56,1.39,3.69.23,5.59-6.13-.08-10.09,2.99-12.62,8.4-2.38,5.08.27,9.17,2.4,13.35,2.16,4.25,6.01,6.31,10.45,7.5,3.14.85,5.63-2.68,8.84-1.24.44.47.88.94,1.32,1.4.65,1.92,1.39,1.84,2.15,5.7h0Z"/>
        <path class="cls-4" d="m296.96,280.83c-1.33,3.25.29,6.29.93,9.3.83,3.93.84,7.77.5,11.69l-.4.07c-2.23-2.84-3-6.27-3-9.67,0-6.1-1.95-11.24-6.2-15.55,0-1.54-.79-2.69-1.87-3.68l-.1-.17c-2.78-5.85-7.27-8.47-13.84-7.87-5.17.47-8.35,3.04-9.9,7.86-.41,1.45-.33,2.79.88,3.87.18,6.54,4.44,11.8,5.68,18,1.14,5.69,4.09,11.18,2.1,17.26-.31,0-.64,0-.96-.03-2.64-1.47-2.93-4.21-3.5-6.73-1.98-8.78-4.83-17.1-11.55-23.54-3.09-9.01-3.13-9.04-12.7-8.54-.74-.39-1.49-.79-2.23-1.18-.4-4.93,1.44-10.2-3.37-14.36-2.41-2.09-5.1-2.7-7.79-3.78-2.75-1.1-4.93-1.82-1.78-5.74,5.32-6.62,12.3-11.63,17.1-18.66,1.32-1.93,2.79-1.53,4.63-.23,7.36,5.22,15.22,9.79,21.38,16.55.86.94,1.83,1.58,3.06,1.08,1.44-.59.71-2,.89-3.06,1.65-9.87,6.74-18.95,15.92-21.22,14.03-3.47,30.83,5.41,29.03,23.05-.46,4.52-3.06,8.35-6.65,11.15-3.78,2.94-7.73,5.71-11.86,8.12-2.91,1.7-2.73,3.46-.68,5.22,3.21,2.76,4.03,4.88-.57,6.94-.93.42-1.44,1.76-2.14,2.69-.34.41-.67.81-1.01,1.22v-.06Z"/>
        <path class="cls-4" d="m232.82,285.02c4.46,9.44,10.58,18.16,12.81,28.58.3,1.39-.17,2.94-.28,4.41-5.33,1.89-10.84,1.08-16.22.73-10.48-.68-20.93-1.78-31.37-2.91-5.81-.63-11.67-.81-17.16-3.52-3.44-1.7-3.08-3.73-1.04-5.57,9.22-8.34,15.93-18.8,23.99-28.11,3.44-3.98,5.26-2.87,7.13.72,3.2,6.16,7.67,9.57,15.04,8.52,2.73-.39,4.87-1.6,7.12-2.86h-.02Z"/>
        <path class="cls-1" d="m192.32,340.67c2.28-.03,4.26,1.01,5.89,2.33,5.2,4.19,6.99,6.03,1.1,11.12-1.74,1.5-3.39,3.11-5.07,4.68-7.67-4.27-8.52-12.31-1.92-18.12h0Z"/>
        <path class="cls-3" d="m130.99,328.21c-.13,5.08-2.44,7.81-6.45,7.62-4.07-.19-7.81-4.27-7.59-8.29.23-4.19,3.48-6.83,8.15-6.63,4.46.19,6.02,2.12,5.88,7.29h0Z"/>
        <path class="cls-1" d="m240.8,271.88c.74.39,1.49.79,2.23,1.18,4.24,2.11,9.26,3.23,10.81,8.69-2.51-.06-4.9.56-7.24,1.38-8.89,3.13-9.09,3.03-11.72-6.05.55-3.35,4.41-2.94,5.92-5.2h0Z"/>
        <path class="cls-2" d="m344.78,282.91c-.22-4.5,2.25-6.02,6.09-6.04,3.58-.02,8.03,4,7.97,7.14-.07,3.44-4.26,7-7.94,6.75-2.25-.15-6.13-5.27-6.12-7.84h0Z"/>
        <path class="cls-1" d="m344.58,305c-3.06.11-5.9-2.01-9.18-.6-1.65.71-1.61-1.17-1.61-2.22,0-3.13.13-6.26.21-9.38,5.23-1.4,9.85,1.49,10.64,6.84.26,1.75-.03,3.58-.06,5.37h0Z"/>
        <path class="cls-6" d="m200.88,44.26c-.76,3.1-2.98,5.01-6.58,4.94-3.88-.07-5.12-3.12-5.32-6.14-.19-2.94,1.95-4.77,4.92-5.11,2.84-.33,6.87,3.16,6.98,6.31h0Z"/>
        <path class="cls-6" d="m56.8,122.77c1.88-8.83,3.19-17.85,8.65-25.46-.09,5.12-1.69,9.85-3.34,14.55-2.79,7.98-2.48,16.47-4.11,24.64-2.18-4.42-.55-9.18-1.2-13.73Z"/>
        <path class="cls-2" d="m10.06,21.83c3.54.47,5.84,1.43,5.98,5.4.17,4.83-3.94,4.11-6.16,4.44-2.08.31-4.92-1.54-4.83-4.5.1-3.12,2.23-4.85,5.01-5.34Z"/>
        <path class="cls-1" d="m314.03,284.59c-3.73.27-7.46.62-11.19.79-3.25.15-2.72-2.46-2.99-4.43,6.01-5.17,10.69-3.97,14.18,3.64h0Z"/>
        <path class="cls-3" d="m338.73,195.91c-.27-4.98-3.52-6.19-7.78-6.15-3.48.04-5.68,1.87-6.15,5.17-.58,4.07,1.24,7.43,5.18,8.49,3.52.95,6.81-.2,7.97-4.37,1.03-.85.85-2.01.78-3.14h0Z"/>
        <path class="cls-6" d="m211.88,68.54c-.46-3.08,1.43-3.69,4.18-3.63,3.29.07,4.78,1.67,4.85,4.87.08,3.66-3.21,3.78-5.18,3.99-2.99.31-4.11-2.13-3.85-5.23Z"/>
        <path class="cls-6" d="m54.91,271.04c-3.06-.5-3.9-2.73-3.98-5.04-.09-2.8,1.93-4.88,4.45-4.82,2.32.05,4.75,1.55,4.52,4.73-.22,3.16-2.49,4.33-4.99,5.13Z"/>
        <path class="cls-2" d="m111.87,306.04c.11,2.44-.66,4.02-3.38,3.8-2.91-.24-4.55-1.73-4.61-4.75-.06-2.74,1.66-3.44,3.93-3.22,2.49.24,4.59,1.04,4.06,4.17Z"/>
        <path class="cls-2" d="m219.96,215.85c2.63-.19,4.62,1.05,4.65,2.97.03,2.13-2.47,2.97-4.37,2.95-2.09-.02-3.5-1.28-3.43-3.75.08-2.64,2-2.02,3.15-2.17Z"/>
        <path class="cls-6" d="m3.11,55.99c-1.43-.03-3.15.33-3.11-1.98.04-1.94.97-3.04,3.02-3.04,1.93,0,3.43,1.37,3.59,2.76.25,2.1-1.77,2.31-3.5,2.26Z"/>
        <path class="cls-2" d="m44.04,171.89c-.16,1.59-.73,3.06-2.55,2.95-1.71-.1-2.25-1.8-2.46-3.16-.23-1.48.88-2.51,2.31-2.65,1.94-.19,2.34,1.36,2.69,2.86h0Z"/>
        <path class="cls-4" d="m305.75,165.89c-1.63.09-3.06.63-2.89,2.62.15,1.79,1.36,2.52,3.1,2.49,1.89-.03,2.1-1.24,2-2.76.34-1.74-.56-2.45-2.21-2.36h0Z"/>
        <path class="cls-4" d="m254.89,208.14c-.02,1.57-.84,2.51-2.33,2.68-1.58.18-2.48-.71-2.66-2.24-.2-1.68.88-2.42,2.3-2.62,1.58-.23,2.44.66,2.69,2.18h0Z"/>
        <path class="cls-2" d="m186.88,70.03c-.05,1.14-.55,1.9-1.76,1.97-1.12.06-2.01-.39-2.04-1.62-.02-1.32.73-2.21,2.1-2.28,1.28-.07,1.67.82,1.7,1.93h0Z"/>
        <path class="cls-2" d="m275.83,128.23c-3.72-10.02-9.07-18.92-18.68-24.52-7.55-4.4-16.15-3.77-24.32-4.63-15.26-1.62-29.11,3.6-41.19,12.3-7.12,5.13-14.69,11.28-13.74,21.95.42,4.7-.68,7.42-6.12,6.59-.97-.15-2.1.72-3.15,1.12.44.47.88.94,1.33,1.4,1.39,2.83,1.39,3.83,2.15,5.7.51,1.84.61,3.69.2,5.56h.02c-5.32,1.11-10.86,1.59-15.33,5.22,3.79,9.27,5.84,12.83,15.27,11.71,6.98-.83,5.59,2.52,5.58,6.23,0,.83.11,1.68-.03,2.49-.56,3.22.95,3.96,3.89,3.76,5.95-.42,11.92-.57,17.88-.83,3.08.98,6.19.78,9.31.23,1.28.1,2.82,1.18,3.77.03,1-1.2-.17-2.42-.97-3.49-.49-.65-.77-1.45-1.25-2.11-5.43-7.5-7.21-17.12.48-27.12,3.89-5.05,14.62-8.1,22.58-5.73,7.72,2.3,14.14,7.31,13.54,17.45-.35,5.96-1.9,11.3-4.39,16.49-1.75,3.63-.54,4.85,3.08,4.95,5.57.16,11.06,1.25,16.58,1.8,8.03.8,13.36,1.31,14.48-10.85.03-.33.05-.67.1-.99,2.41-14.96,4.39-29.94-1.07-44.67v-.04Z"/>
        <path class="cls-3" d="m170.78,183.79c-.54,1.18-1.16,1.18-1.87.15.62-.05,1.25-.1,1.87-.15Z"/>
        <path class="cls-3" d="m136.6,260.25c.63-.13.98.12,1.01.78-.34-.26-.67-.52-1.01-.78Z"/>
        <path class="cls-3" d="m202.92,223.89c-2.16-9.11-9.98-13.15-21.08-10.9-2.51,1.29-5.53,3.74-4.86-2.15-.02-6.46.09-12.91.76-19.36.79-7.59.54-7.62-6.96-7.68-.54,1.18-1.16,1.18-1.87.15-7.69,0-15.38,0-23.06,0-.3-.13-.6-.13-.91,0-.69,0-1.39,0-2.08-.02-2.63-1.27-2.06.58-1.94,1.99-.84,16.64-6.66,20.49-23.03,16.98-.1-1.32-.72-1.96-2.11-1.62-.81-1.06-1.62-2.12-2.43-3.18-3.41-1.97-2.33-5.31-2.48-8.25-.1-1.93-.02-3.88-.02-5.81-2.66.02-5.33.04-7.99.06-2.01,1.29-3.99,1.38-5.93-.16-4.61-.07-9.22-.15-13.84-.22-1.97.12-3.94.25-5.91.37-1.03,7.25,3.3,12.74,6.75,18.15,6.64,10.39,14.29,20.11,21.94,29.81,8.75,11.1,17.86,21.68,30.72,28.25.63-.13.98.12,1.01.78l.09.19c.14,1.13.81,1.71,1.92,1.83l.11.11c.34,1.8,1.46,2.98,3.04,3.79.36.35.72.69,1.08,1.04.51,1.31,1.46,1.99,2.87,2.02l.08.04c.32.33.64.65.96.98.35.32.7.65,1.04.97.35.95,1.02,1.59,1.97,1.93l.07.07c.34.28.68.57,1.02.85,6.18,4.58,11.76,10.02,18.98,13.1,4.05-.21,3.59-3.45,4.05-6.06.36-2-.9-4.31,1.13-6,1.19-8.23.67-16.51.71-24.76.02-3.54-.05-5.51,4.8-3.62,9.08,3.53,16.09.78,20.3-6.77.24-.3.48-.6.71-.9.39-2.64.78-5.28,1.18-7.93.04-2.7,1.16-5.51-.79-8.01v-.04Z"/>
        <path class="cls-1" d="m201.82,240.72c.24-.3.48-.6.71-.9.09.56-.15.85-.71.9Z"/>
        <path class="cls-5" d="m62.88,18.97c-2.51,5.76-5.93,10.91-10.18,15.5,2.79-5.57,4.57-11.81,10.23-15.44l-.05-.05h0Z"/>
        <path class="cls-5" d="m62.94,19.02c1.42-3.95,5.11-6.05,7.47-9.24-.8,4.47-3.32,7.52-7.52,9.19,0,0,.05.05.05.05Z"/>
        <path class="cls-6" d="m92.13,157.08c-.4-1.55-.67-3.12-1.01-4.69-1.72-5.05-4.13-9.94-3.2-15.54.47-2.87.84-5.76,1.25-8.65,1.36-1.55.86-3.42.92-5.2-.03-.99-.06-1.97-.08-2.96-.13-3.35.69-6.83-1.75-10.01-.48,1.68-.96,3.36-1.44,5.04h0c-1.41,6.53-3.37,12.94-3.88,19.64-.08,5.35-.17,10.71-.25,16.06-2.11,9.79-4.02,11.02-14,9.26-1.27-.22-2.6-.05-3.91-.06.46,3.65,3.48,5.84,5.03,8.85,1.15,2.25,3.03,2.52,5.01,2.08,4.97-1.1,10.02-1.43,15.02-2.12,3.33-.46,7.34,0,10.21-3.77-5.53,0-6.87-3.85-7.92-7.94h0Z"/>
        <path class="cls-1" d="m263.95,276.65c-1.21-1.08-1.29-2.42-.88-3.87,1.19.09,2.22-.09,3.17-1.01,5.68-5.54,11.72-5.65,17.54-.37.88.8,1.74,1.54,3.04,1.4l.1.17c-.04.92-.07,1.84-.11,2.77-5.57-.92-11.06-1.87-16.26,1.7-2.09,1.43-4.49.4-6.59-.78h-.01Z"/>
      </g>
      <g>
        <path class="cls-7" d="m173.31,118.89c-2.16-.74-3.67-2.39-4.76-4.18-3.48-5.7-4.55-8.03,2.71-10.84,2.14-.83,4.24-1.79,6.35-2.7,5.78,6.61,3.87,14.46-4.3,17.71h0Z"/>
        <path class="cls-7" d="m102.36,163.8c-.57-.62-1.14-1.25-1.7-1.86-3.28-3.42-7.63-6.16-7.25-11.83,2.34.9,4.8,1.12,7.28,1.14,9.42.05,9.58.21,8.99,9.65-1.65,2.97-5.14,1.28-7.33,2.9h0Z"/>
        <path class="cls-7" d="m18.93,95.63c2.92.93,4.88,3.88,8.44,3.66,1.79-.11,1.12,1.64.77,2.63-1.06,2.95-2.23,5.85-3.36,8.76-5.4-.44-8.77-4.72-7.71-10.03.35-1.74,1.24-3.36,1.87-5.04h0Z"/>
        <path class="cls-7" d="m39.82,127.14c3.6,1,7.23,1.93,10.8,3.03,3.11.95,1.73,3.23,1.32,5.18-7.4,2.84-11.4.13-12.12-8.21h0Z"/>
        <path class="cls-7" d="m81.62,154.41c.78,1.42.4,2.71-.48,3.94-1.09-.49-2.12-.66-3.32-.12-7.22,3.3-12.94,1.37-16.64-5.56-.56-1.05-1.12-2.04-2.39-2.34l-.04-.19c.35-.85.69-1.71,1.04-2.57,4.93,2.74,9.78,5.49,15.88,3.88,2.45-.64,4.36,1.14,5.94,2.96h0Z"/>
      </g>
    </g>
  </g>
</svg>