<?xml version="1.0" encoding="UTF-8"?>
<svg id="Camada_2" data-name="Camada 2" xmlns="http://www.w3.org/2000/svg" viewBox="0 0 867.11 868">
  <defs>
    <style>
      .cls-1 {
        fill: #e71c29;
      }

      .cls-2 {
        fill: #feca58;
      }

      .cls-3 {
        fill: #39b54a;
      }

      .cls-4 {
        fill: #03a1d2;
      }
    </style>
  </defs>
  <g id="Camada_2-2" data-name="Camada 2">
    <g>
      <path class="cls-1" d="m397.47,867.22c7.28,1.01,14.82,1.04,22.41.12-1.56.13-3.11.26-4.66.4-5.94-.05-11.86-.22-17.74-.52Z"/>
      <path class="cls-1" d="m188.99,329.21c-11.15,10.42-11.47,22.21-8.39,34.21,5.85-14.34,13.06-28.35,21.64-41.84-4.55,1.24-9,3.64-13.26,7.62Z"/>
      <path d="m33.82,311.72c3.91-1.15,7.81-2.65,11.57-4.46-4.05,1.66-8.19,3.13-12.29,4.69.24-.07.48-.16.72-.23Z"/>
      <path class="cls-1" d="m482.87,830.7c6.26-6.69,11.93-13.95,16.47-21.89,3.05-5.21,5.62-10.52,7.89-16.04,4.05-9.89,6.4-20.35,7.6-30.97-.87.3-1.73.62-2.61.92-122.02,41.66-267.04,1.16-347.36-97.02-43.07-52.65-68.26-113.35-75.3-175.27-11.98-1.02-23.83-3.44-34.95-7.99-5.52-2.27-10.83-4.84-16.04-7.89-7.93-4.54-15.2-10.22-21.89-16.47-5.68-5.3-11.26-10.44-16.25-16.1-.63,14.39-.59,29,.16,43.8,7.8,154.57,110.52,287.71,251.37,347.83,2.11-4.74,4.22-9.48,6.32-14.23,4.72-10.64,10.47-20.58,17.84-29.41,15.28-18.32,36.9-17.38,50.36,2.34,4.4,6.39,7.85,13.83,10.03,21.26,9.38,32.09,33.35,49.84,60.96,53.65,5.89.29,11.8.47,17.74.52,1.55-.14,3.11-.27,4.66-.4,8.89-1.09,17.85-3.48,26.56-7.2,15.37-6.56,25.56-17.79,36.42-29.43Z"/>
      <path class="cls-1" d="m45.4,307.27c3.39-1.62,6.66-3.49,9.68-5.57,19.72-13.46,20.66-35.08,2.34-50.36-.72-.6-1.46-1.17-2.19-1.75-11.82,20.61-21.91,42.41-30.09,65.22,2.55-1.05,5.2-2.01,7.97-2.84,4.1-1.56,8.24-3.03,12.29-4.69Z"/>
      <path class="cls-2" d="m733.02,474.21c-4.58,128.88-91.15,243.07-218.2,287.59-1.19,10.62-3.55,21.08-7.6,30.97-2.27,5.52-4.84,10.83-7.89,16.04-4.54,7.93-10.22,15.2-16.47,21.89-10.86,11.64-21.06,22.87-36.42,29.43-8.71,3.72-17.67,6.11-26.56,7.2,20.38-1.67,40.94-2.32,61-5.83,157.39-27.51,280.71-141.37,324.91-287.57-11.37-15.23-9.12-32.69,6.17-46.09,1.8-1.58,3.7-2.96,5.66-4.23,4.19-24.7,6.18-50.08,5.77-75.92-.55-34.99-5.24-69.53-15.65-102.7-30.79-8.71-64.26-4.65-88.72,10.75,12,38.43,15.43,77.99,13.99,118.46Z"/>
      <path class="cls-2" d="m336.51,813.56c-2.18-7.43-5.63-14.87-10.03-21.26-13.46-19.72-35.08-20.66-50.36-2.34-7.37,8.82-13.12,18.76-17.84,29.41-2.1,4.74-4.22,9.49-6.32,14.23,45.2,19.29,94.33,31.07,145.51,33.61-27.61-3.82-51.58-21.56-60.96-53.65Z"/>
      <path class="cls-4" d="m55.23,249.58c.73.58,1.47,1.15,2.19,1.75,18.32,15.28,17.38,36.9-2.34,50.36-3.03,2.08-6.3,3.95-9.68,5.57-3.76,1.8-7.67,3.31-11.57,4.46-.25.07-.48.16-.72.23-2.77.83-5.42,1.8-7.97,2.84C10.9,354.45,2.4,397.15.44,441.98c4.99,5.66,10.57,10.8,16.25,16.1,6.69,6.26,13.95,11.93,21.89,16.47,5.21,3.05,10.52,5.62,16.04,7.89,11.12,4.55,22.97,6.96,34.95,7.99-8.69-76.47,10.31-154.79,57.62-222.06,54.58-77.61,136.7-123.81,226.98-133.08-2.19-3.4-4.23-7.03-6.11-10.89-9.05-18.55-8.98-36.89-7.51-56.23.49-6.58,1.41-13.13,2.85-19.55C227.51,65.77,117.34,141.31,55.23,249.58Z"/>
      <path class="cls-3" d="m368.05,124.4c1.88,3.86,3.92,7.49,6.11,10.89,49.98-5.13,102.45,1.05,154.15,19.51,14.09,5.03,31.46,22.22,42.51-6.32,17.94-46.36,15.75-64.4-14.26-75.79-58.17-22.07-117.95-31.68-180.71-25.48-4.17.41-8.32.89-12.45,1.41-1.44,6.42-2.36,12.97-2.85,19.55-1.47,19.35-1.54,37.69,7.51,56.23Z"/>
      <path class="cls-3" d="m805.8,573.94c4.96-16.39,8.92-33.19,11.83-50.32-1.96,1.27-3.85,2.65-5.66,4.23-15.29,13.4-17.55,30.86-6.17,46.09Z"/>
      <path class="cls-3" d="m807.76,345c-4.16-13.27-9.24-26.33-15.33-39.11-11.09-23.25-36.11-24.81-72.87-8.66-24.4,10.72-12.34,26.3-6.88,40.31,2.35,6.04,4.46,12.11,6.37,18.21,24.47-15.39,57.93-19.46,88.72-10.75Z"/>
      <path class="cls-1" d="m490.86,691.39c3.38-1.13,6.71-2.33,10.01-3.6-21.03-31.52-55.24-42.41-92.76-27.96-18.47,7.09-37.94,15.88-54.11-1.43-15.79-16.89-6.69-36.7.84-54.04-61.78-21.04-102.08-75.51-102.35-146.45-.15-40.89,14.23-78.58,37.98-107.19-15.58-6.85-31.18-13.64-46.8-20.39-13.13-5.69-27.73-12.48-41.43-8.75-8.58,13.49-15.8,27.5-21.64,41.84,1.02,3.96,2.4,7.94,3.89,11.91.45,1.18.9,2.35,1.35,3.53.58,1.49,1.16,2.98,1.73,4.46,14.01,36.4,4.18,69.69-25.2,90.84,2.96,45.19,18.52,89.28,46.7,127.16,66,88.71,178.29,124.6,281.79,90.05Z"/>
      <path class="cls-2" d="m422.91,613.63c-24.61,1.02-47.52-2.27-68.07-9.27-7.53,17.34-16.63,37.14-.84,54.04,16.17,17.31,35.64,8.51,54.11,1.43,37.52-14.45,71.73-3.55,92.76,27.96,76.49-29.34,132.62-95.67,151-176.56-5.54-1.33-11-3.48-16.21-5.81-22.38-9.93-44.73-19.95-67.08-29.97-7.69,74.63-68.83,134.99-145.67,138.19Z"/>
      <path class="cls-4" d="m243.68,330.34c15.62,6.75,31.22,13.54,46.8,20.39,29.33-35.33,72.97-56.83,121.25-53.42,33.24,2.35,54.29-8.01,75.51-30.62,31.83-33.91,31.78-36.97-14.2-50.34-95.05-27.65-206.33,12.56-264.31,95.52-2.24,3.21-4.4,6.45-6.48,9.73,13.7-3.73,28.29,3.06,41.43,8.75Z"/>
      <path class="cls-4" d="m187.56,383.33c-.57-1.48-1.15-2.97-1.73-4.46-.45-1.18-.9-2.35-1.35-3.53-1.49-3.97-2.87-7.95-3.89-11.91-14.59,35.78-20.67,73.63-18.24,110.75,29.38-21.15,39.21-54.44,25.2-90.84Z"/>
      <path class="cls-3" d="m651.87,511.23c4.1-18.07,6.33-36.86,6.47-56.14.99-24.54-2.49-52.02-12.96-78.26-3.81-9.55-7.26-19.95-22.36-13.76-28.46,11.66-56.36,54.29-54.07,84.58.71,9.42.57,18.71-.37,27.79,22.35,10.02,44.69,20.05,67.08,29.97,5.21,2.33,10.66,4.47,16.21,5.81Z"/>
      <path class="cls-2" d="m439.85,413.08c-.4-1.08-.63-2.23-.73-3.45-.97.7-1.98,1.26-3.06,1.65.4,1.08.63,2.22.72,3.44.97-.7,1.99-1.24,3.06-1.64Z"/>
      <path class="cls-1" d="m328.49,458.08c1.2,38.28,23.5,67.19,56.72,76.84,15.65-35.31,31.56-70.5,47.8-105.53,2.78-5.98,4.07-10.72,3.77-14.67-.09-1.21-.33-2.36-.72-3.44-4.58,1.66-10.27.56-18.06-3.06-16.61-7.7-33.25-15.31-49.93-22.87-25.5,13.38-40.59,40.44-39.58,72.73Z"/>
      <path class="cls-2" d="m439.85,413.08c-1.08.39-2.1.93-3.06,1.64.3,3.95-.99,8.69-3.77,14.67-16.23,35.03-32.15,70.22-47.8,105.53,7.98,2.32,16.58,3.54,25.68,3.49,47.69-.23,82.43-34.47,84.08-83.43.14-4.11-.31-8.37-.55-12.59-13.28-5.86-26.58-11.68-39.91-17.44-8.13-3.51-12.92-7.09-14.67-11.87Z"/>
      <path class="cls-4" d="m368.07,385.35c16.67,7.56,33.32,15.18,49.93,22.87,7.8,3.62,13.48,4.72,18.06,3.06,1.08-.39,2.09-.95,3.06-1.65-.3-3.95,1-8.68,3.77-14.66,6.58-14.2,13.1-28.42,19.58-42.67-16.15,15.38-33.88,23.52-58.15,24.05-13.59.3-25.79,3.5-36.26,8.99Z"/>
      <path class="cls-3" d="m439.12,409.64c.09,1.22.33,2.36.73,3.45,1.76,4.78,6.54,8.36,14.67,11.87,13.33,5.75,26.62,11.58,39.91,17.44-.42-7.53-.14-14.88,5.47-20.86,52.3-55.71,105.48-110.58,162.69-161.33,4.08-3.62,10.38-6.1,15.86-6.56,77.31-6.39,126.15-57.58,174.1-110.15,6.03-6.61,17.6-12.57,13.82-22.21-4.51-11.49-17.91-7.95-27.96-8.33q-82.24-3.16-84.37-82.87c-.28-9.95,4.13-23.28-6.68-28.63-11.88-5.89-17.89,7.47-24.86,14.16-23.39,22.47-45.99,45.76-69.11,68.52-11.83,11.65-22.45,24.55-23.96,41.3-5.36,59.44-36.98,102.76-80.47,140.69-28.75,25.07-55.14,53-81.24,80.91-1.73,1.85-3.48,3.59-5.25,5.27-6.48,14.25-13,28.47-19.58,42.67-2.77,5.98-4.07,10.71-3.77,14.66Z"/>
    </g>
  </g>
</svg>